<?xml version="1.0" encoding="utf-8"?>
<!-- Generator: Adobe Illustrator 27.9.0, SVG Export Plug-In . SVG Version: 6.00 Build 0)  -->
<svg version="1.1" id="Ebene_1" xmlns="http://www.w3.org/2000/svg" xmlns:xlink="http://www.w3.org/1999/xlink" x="0px" y="0px"
	 viewBox="0 0 300 300" style="enable-background:new 0 0 300 300;" xml:space="preserve">
<style type="text/css">
	.st0{fill:#207BB5;}
</style>
<path class="st0" d="M239,150.9c1.5,1.5,2.8,3.3,3.7,5.2l0.1,0.3c9.2,17.6,26.6,28.2,46.8,28.3l0.1-28.3c-5.6,0-15.9-1.8-21.7-12.9
	c-2.3-4.6-5.2-8.7-8.8-12.4l0,0c0,0,0,0,0,0c0,0,0,0,0,0l0,0c-12-12.2-30-17.9-48.1-15.2c-17.1,2.6-31.2,12.3-38.8,26.6l0,0
	c-5.7,10.5-15.3,12.4-20.6,12.5c-10,0.3-20-4.7-24.8-12.5c-10-16.5-27.4-26.4-46.5-26.4c-19.5,0-37,10-46.9,26.7l-0.5,0.8
	c-3.8,6.4-10.4,10.9-18.3,12.2c-1.6,0.3-3,0.4-4.5,0.4v28.3c3.1,0,6.2-0.3,9.4-0.8c15.8-2.7,29.4-11.9,37.4-25.2l0.6-1
	c4.7-8.2,13.2-13.1,22.7-13.1c9.1,0,17.5,4.8,22.3,12.8l0.1,0.2c10.2,16.3,29.7,26.5,49.7,25.8c19.3-0.6,35.6-10.6,44.7-27.3l0,0
	l0,0c0,0,0,0,0,0l0,0l0.1-0.2c3.3-6.3,9.8-10.6,17.9-11.8C224.4,142.6,233.4,145.3,239,150.9"/>
<path class="st0" d="M239,240.2c1.5,1.5,2.8,3.3,3.7,5.2l0.1,0.3c9.2,17.6,26.6,28.2,46.8,28.3l0.1-28.3c-5.6,0-15.9-1.8-21.7-12.9
	c-2.3-4.6-5.2-8.7-8.8-12.4l0,0c0,0,0,0,0,0c0,0,0,0,0,0l0,0c-12-12.2-30-17.9-48.1-15.2c-17.1,2.6-31.2,12.3-38.8,26.6l0,0
	c-5.7,10.5-15.3,12.4-20.6,12.5c-10,0.3-20-4.7-24.8-12.5c-10-16.5-27.4-26.4-46.5-26.4c-19.5,0-37,10-46.9,26.7l-0.5,0.8
	c-3.8,6.4-10.4,10.9-18.3,12.2c-1.6,0.3-3,0.4-4.5,0.4V274c3.1,0,6.2-0.3,9.4-0.8c15.8-2.7,29.4-11.9,37.4-25.2l0.6-1
	c4.7-8.2,13.2-13.1,22.7-13.1c9.1,0,17.5,4.8,22.3,12.8l0.1,0.2c10.2,16.3,29.7,26.5,49.7,25.8c19.3-0.6,35.6-10.6,44.7-27.3l0,0
	l0,0c0,0,0,0,0,0l0,0l0.1-0.2c3.3-6.3,9.8-10.6,17.9-11.8C224.4,231.8,233.4,234.5,239,240.2"/>
<path class="st0" d="M239,61.7c1.5,1.5,2.8,3.3,3.7,5.2l0.1,0.3c9.2,17.6,26.6,28.2,46.8,28.3l0.1-28.3c-5.6,0-15.9-1.8-21.7-12.9
	c-2.3-4.6-5.2-8.7-8.8-12.4l0,0c0,0,0,0,0,0c0,0,0,0,0,0l0,0c-12-12.2-30-17.9-48.1-15.2c-17.1,2.6-31.2,12.3-38.8,26.6l0,0
	c-5.7,10.5-15.3,12.4-20.6,12.5c-10,0.3-20-4.7-24.8-12.5C117,36.8,99.6,27,80.4,27c-19.5,0-37,10-46.9,26.7l-0.5,0.8
	c-3.8,6.4-10.4,10.9-18.3,12.2c-1.6,0.3-3,0.4-4.5,0.4v28.3c3.1,0,6.2-0.3,9.4-0.8c15.8-2.7,29.4-11.9,37.4-25.2l0.6-1
	c4.7-8.2,13.2-13.1,22.7-13.1c9.1,0,17.5,4.8,22.3,12.8l0.1,0.2c10.2,16.3,29.7,26.5,49.7,25.8c19.3-0.6,35.6-10.6,44.7-27.3l0,0
	l0,0c0,0,0,0,0,0l0,0l0.1-0.2c3.3-6.3,9.8-10.6,17.9-11.8C224.4,53.3,233.4,56,239,61.7"/>
</svg>
