<?xml version="1.0" encoding="utf-8"?>
<!-- Generator: Adobe Illustrator 27.9.0, SVG Export Plug-In . SVG Version: 6.00 Build 0)  -->
<svg version="1.1" id="Ebene_1" xmlns="http://www.w3.org/2000/svg" xmlns:xlink="http://www.w3.org/1999/xlink" x="0px" y="0px"
	 viewBox="0 0 377 461.4" style="enable-background:new 0 0 377 461.4;" xml:space="preserve">
<style type="text/css">
	.st0{fill:#E6E6E6;}
	.st1{fill:#FFFFFF;stroke:#1D1D1B;stroke-miterlimit:10;}
	.st2{fill:#38929F;stroke:#FFFFFF;stroke-miterlimit:10;}
	.st3{fill:#38929F;stroke:#E6E6E6;stroke-width:1.4173;stroke-miterlimit:10;}
	.st4{fill:#207BB5;}
	.st5{fill:#FFFFFF;}
</style>
<circle class="st0" cx="31.5" cy="134.2" r="28.9"/>
<polygon class="st3" points="60.4,51.8 60.4,18.5 31.5,1.8 2.6,18.5 2.6,51.8 31.5,68.5 "/>
<g>
	<g>
		<path d="M14.6,40.9v-1.1c0-0.8,0.1-1.4,0.4-1.9c0.3-0.5,0.7-0.9,1.2-1.1c0.5-0.3,1.1-0.5,1.8-0.7l0.9-0.3c0.5-0.1,0.9-0.3,1.2-0.5
			s0.6-0.5,0.8-0.8c0.2-0.3,0.3-0.7,0.3-1.2v-0.1c0-0.7-0.2-1.2-0.7-1.6c-0.5-0.4-1.1-0.6-1.9-0.6c-0.8,0-1.4,0.2-2,0.6
			c-0.5,0.4-0.8,1.1-0.8,1.9v0.2h-1.3v-0.2c0-0.8,0.2-1.5,0.5-2s0.8-1,1.4-1.3c0.6-0.3,1.3-0.4,2-0.4s1.4,0.1,2,0.4
			c0.6,0.3,1,0.7,1.4,1.2s0.5,1.1,0.5,1.8v0.1c0,0.7-0.1,1.3-0.4,1.8c-0.3,0.5-0.7,0.8-1.2,1.1c-0.5,0.3-1.1,0.5-1.8,0.8l-0.8,0.3
			c-0.5,0.2-1,0.3-1.3,0.5c-0.4,0.2-0.6,0.4-0.8,0.7c-0.2,0.3-0.3,0.7-0.3,1.1v0.3h6.5v1.1H14.6z"/>
		<path d="M27.2,40.9V30.8H27l-2.1,3.9h-1.4l2.6-4.8h2.4v11H27.2z"/>
		<path d="M34.7,41.2c-0.8,0-1.6-0.1-2.2-0.4c-0.6-0.3-1.1-0.6-1.4-1.1c-0.3-0.5-0.5-1-0.5-1.6v-0.2c0-0.5,0.1-1,0.3-1.4
			s0.5-0.6,0.8-0.8c0.3-0.2,0.6-0.3,0.9-0.4v-0.2c-0.3-0.1-0.6-0.2-0.9-0.4c-0.3-0.2-0.5-0.4-0.7-0.8c-0.2-0.3-0.3-0.7-0.3-1.2v-0.2
			c0-0.6,0.2-1.1,0.5-1.5s0.8-0.8,1.4-1s1.3-0.3,2-0.3c0.8,0,1.5,0.1,2.1,0.3s1.1,0.6,1.4,1s0.5,0.9,0.5,1.5v0.2
			c0,0.5-0.1,0.9-0.3,1.2c-0.2,0.3-0.4,0.6-0.7,0.8c-0.3,0.2-0.6,0.3-0.9,0.4v0.2c0.3,0.1,0.6,0.2,0.9,0.4c0.3,0.2,0.6,0.5,0.8,0.8
			s0.3,0.8,0.3,1.4V38c0,0.6-0.2,1.2-0.5,1.6c-0.3,0.5-0.8,0.8-1.4,1.1S35.5,41.2,34.7,41.2z M34.7,40c0.9,0,1.6-0.2,2.1-0.5
			c0.5-0.3,0.8-0.8,0.8-1.5v-0.1c0-0.7-0.3-1.2-0.8-1.5c-0.5-0.3-1.2-0.5-2.1-0.5c-0.9,0-1.6,0.2-2.1,0.5c-0.5,0.3-0.8,0.8-0.8,1.5
			V38c0,0.7,0.3,1.2,0.8,1.5C33.1,39.8,33.8,40,34.7,40z M34.7,34.7c0.8,0,1.5-0.2,2-0.5c0.5-0.3,0.7-0.8,0.7-1.4v-0.1
			c0-0.6-0.2-1.1-0.7-1.4c-0.5-0.3-1.1-0.5-2-0.5s-1.5,0.2-2,0.5c-0.5,0.3-0.7,0.8-0.7,1.4v0.1c0,0.6,0.2,1,0.7,1.4
			C33.2,34.5,33.8,34.7,34.7,34.7z"/>
		<path d="M44.3,41.2c-0.8,0-1.5-0.2-2.1-0.5c-0.6-0.3-1-0.7-1.4-1.3c-0.3-0.5-0.5-1.2-0.5-1.9v-0.2h1.3v0.1c0,0.8,0.2,1.5,0.7,1.9
			c0.5,0.4,1.1,0.7,1.9,0.7c0.8,0,1.5-0.2,2-0.7s0.7-1.1,0.7-1.9v-0.1c0-0.8-0.2-1.4-0.7-1.9c-0.5-0.5-1-0.7-1.8-0.7
			c-0.4,0-0.8,0.1-1,0.2c-0.3,0.1-0.5,0.3-0.6,0.5c-0.2,0.2-0.3,0.4-0.4,0.6h-1.7v-6h7.2v1.1h-6v3.8h0.2c0.1-0.2,0.3-0.4,0.5-0.6
			c0.2-0.2,0.5-0.4,0.8-0.5c0.3-0.1,0.8-0.2,1.3-0.2c0.6,0,1.2,0.1,1.7,0.4c0.5,0.3,0.9,0.7,1.2,1.3c0.3,0.5,0.5,1.2,0.5,1.9v0.2
			c0,0.7-0.2,1.4-0.5,2s-0.8,1-1.4,1.3C45.8,41,45.1,41.2,44.3,41.2z"/>
	</g>
</g>
<g>
	<circle class="st0" cx="31.5" cy="332.3" r="28.9"/>
	<g>
		<path class="st4" d="M32.9,340.1L32.9,340.1l-7.2-13.6l-7.2,13.6h0c-0.8,1.3-1.2,2.8-1.2,4.4c0,4.7,3.8,8.5,8.5,8.5
			s8.5-3.8,8.5-8.5C34.1,342.9,33.6,341.4,32.9,340.1z"/>
		<path class="st4" d="M45.1,333.8L45.1,333.8l-4.6-8.7l-4.6,8.7h0c-0.5,0.8-0.8,1.8-0.8,2.8c0,3,2.4,5.4,5.4,5.4s5.4-2.4,5.4-5.4
			C45.9,335.6,45.6,334.6,45.1,333.8z"/>
		<path class="st4" d="M36.7,320.2L36.7,320.2l-4.6-8.7l-4.6,8.7h0c-0.5,0.8-0.8,1.8-0.8,2.8c0,3,2.4,5.4,5.4,5.4s5.4-2.4,5.4-5.4
			C37.5,322,37.2,321.1,36.7,320.2z"/>
	</g>
</g>
<circle class="st0" cx="31.5" cy="233.2" r="28.9"/>
<g>
	<path class="st4" d="M32.9,234.3L32.9,234.3l-7.2-13.6l-7.2,13.6h0c-0.8,1.3-1.2,2.8-1.2,4.4c0,4.7,3.8,8.5,8.5,8.5
		s8.5-3.8,8.5-8.5C34.1,237.1,33.6,235.6,32.9,234.3z"/>
	<path class="st4" d="M45.1,228L45.1,228l-4.6-8.7l-4.6,8.7h0c-0.5,0.8-0.8,1.8-0.8,2.8c0,3,2.4,5.4,5.4,5.4s5.4-2.4,5.4-5.4
		C45.9,229.8,45.6,228.8,45.1,228z"/>
</g>
<g>
	<circle class="st0" cx="31.5" cy="431.3" r="28.9"/>
	<g>
		<g>
			<g>
				<g>
					<path class="st4" d="M43.5,431.4c0.2,0.2,0.4,0.4,0.5,0.7l0,0c1.2,2.4,3.6,3.8,6.3,3.8l0-3.8c-0.8,0-2.1-0.2-2.9-1.7
						c-0.3-0.6-0.7-1.2-1.2-1.7l0,0c0,0,0,0,0,0c0,0,0,0,0,0l0,0c-1.6-1.7-4.1-2.4-6.5-2.1c-2.3,0.3-4.2,1.7-5.2,3.6l0,0
						c-0.8,1.4-2.1,1.7-2.8,1.7c-1.3,0-2.7-0.6-3.4-1.7c-1.4-2.2-3.7-3.6-6.3-3.6c-2.6,0-5,1.3-6.3,3.6l-0.1,0.1
						c-0.5,0.9-1.4,1.5-2.5,1.7c-0.2,0-0.4,0.1-0.6,0.1v3.8c0.4,0,0.8,0,1.3-0.1c2.1-0.4,4-1.6,5.1-3.4l0.1-0.1
						c0.6-1.1,1.8-1.8,3.1-1.8c1.2,0,2.4,0.6,3,1.7l0,0c1.4,2.2,4,3.6,6.7,3.5c2.6-0.1,4.8-1.4,6-3.7l0,0l0,0c0,0,0,0,0,0l0,0l0,0
						c0.4-0.9,1.3-1.4,2.4-1.6C41.6,430.3,42.8,430.7,43.5,431.4"/>
				</g>
			</g>
			<g>
				<g>
					<path class="st4" d="M43.5,443.5c0.2,0.2,0.4,0.4,0.5,0.7l0,0c1.2,2.4,3.6,3.8,6.3,3.8l0-3.8c-0.8,0-2.1-0.2-2.9-1.7
						c-0.3-0.6-0.7-1.2-1.2-1.7l0,0c0,0,0,0,0,0c0,0,0,0,0,0l0,0c-1.6-1.7-4.1-2.4-6.5-2.1c-2.3,0.3-4.2,1.7-5.2,3.6l0,0
						c-0.8,1.4-2.1,1.7-2.8,1.7c-1.3,0-2.7-0.6-3.4-1.7c-1.4-2.2-3.7-3.6-6.3-3.6c-2.6,0-5,1.3-6.3,3.6l-0.1,0.1
						c-0.5,0.9-1.4,1.5-2.5,1.7c-0.2,0-0.4,0.1-0.6,0.1v3.8c0.4,0,0.8,0,1.3-0.1c2.1-0.4,4-1.6,5.1-3.4l0.1-0.1
						c0.6-1.1,1.8-1.8,3.1-1.8c1.2,0,2.4,0.6,3,1.7l0,0c1.4,2.2,4,3.6,6.7,3.5c2.6-0.1,4.8-1.4,6-3.7h0l0,0c0,0,0,0,0,0l0,0l0,0
						c0.4-0.9,1.3-1.4,2.4-1.6C41.6,442.4,42.8,442.7,43.5,443.5"/>
				</g>
			</g>
			<g>
				<g>
					<path class="st4" d="M43.5,419.3c0.2,0.2,0.4,0.4,0.5,0.7l0,0c1.2,2.4,3.6,3.8,6.3,3.8l0-3.8c-0.8,0-2.1-0.2-2.9-1.7
						c-0.3-0.6-0.7-1.2-1.2-1.7l0,0c0,0,0,0,0,0c0,0,0,0,0,0l0,0c-1.6-1.7-4.1-2.4-6.5-2.1c-2.3,0.3-4.2,1.7-5.2,3.6l0,0
						c-0.8,1.4-2.1,1.7-2.8,1.7c-1.3,0-2.7-0.6-3.4-1.7c-1.4-2.2-3.7-3.6-6.3-3.6c-2.6,0-5,1.3-6.3,3.6l-0.1,0.1
						c-0.5,0.9-1.4,1.5-2.5,1.7c-0.2,0-0.4,0.1-0.6,0.1v3.8c0.4,0,0.8,0,1.3-0.1c2.1-0.4,4-1.6,5.1-3.4l0.1-0.1
						c0.6-1.1,1.8-1.8,3.1-1.8c1.2,0,2.4,0.6,3,1.7l0,0c1.4,2.2,4,3.6,6.7,3.5c2.6-0.1,4.8-1.4,6-3.7l0,0l0,0c0,0,0,0,0,0l0,0l0,0
						c0.4-0.9,1.3-1.4,2.4-1.6C41.6,418.2,42.8,418.6,43.5,419.3"/>
				</g>
			</g>
		</g>
	</g>
</g>
<g>
	<g>
		<path class="st0" d="M85,28.1c-1.5,0-2.6-0.4-3.5-1.2c-0.9-0.8-1.3-2-1.3-3.5v-1.3h2.3v1.3c0,0.8,0.2,1.4,0.6,1.9
			c0.4,0.5,1,0.7,1.9,0.7c0.8,0,1.4-0.2,1.7-0.7c0.4-0.5,0.6-1.1,0.6-1.9v-8.3h-2.6v-2.1h6.5v2.1h-1.6v8.3c0,1.5-0.4,2.7-1.2,3.5
			S86.4,28.1,85,28.1z"/>
		<path class="st0" d="M96.9,28.1c-0.7,0-1.4-0.1-2-0.4s-1-0.6-1.4-1.1c-0.3-0.5-0.5-1.1-0.5-1.8c0-0.7,0.2-1.3,0.5-1.8
			c0.3-0.5,0.8-0.8,1.4-1.1c0.6-0.2,1.3-0.4,2-0.4h3.2v-0.7c0-0.6-0.2-1.1-0.5-1.5c-0.4-0.4-0.9-0.5-1.7-0.5c-0.7,0-1.3,0.2-1.7,0.5
			s-0.7,0.8-0.8,1.4l-2-0.7c0.2-0.6,0.4-1.1,0.8-1.5c0.4-0.5,0.9-0.8,1.5-1.1c0.6-0.3,1.4-0.4,2.2-0.4c1.3,0,2.4,0.3,3.2,1
			c0.8,0.7,1.2,1.7,1.2,2.9v4.3c0,0.4,0.2,0.6,0.6,0.6h0.9v1.8h-1.6c-0.5,0-0.9-0.1-1.2-0.4c-0.3-0.3-0.5-0.6-0.5-1v-0.1h-0.3
			c-0.1,0.2-0.3,0.5-0.5,0.7c-0.2,0.3-0.6,0.5-1,0.7S97.6,28.1,96.9,28.1z M95.9,16.1c-0.4,0-0.8-0.1-1.1-0.4
			c-0.3-0.3-0.4-0.6-0.4-1.1c0-0.4,0.1-0.8,0.4-1.1c0.3-0.3,0.6-0.4,1.1-0.4c0.4,0,0.8,0.1,1.1,0.4c0.3,0.3,0.4,0.6,0.4,1.1
			c0,0.5-0.1,0.8-0.4,1.1C96.7,15.9,96.4,16.1,95.9,16.1z M97.2,26.3c0.9,0,1.6-0.2,2.1-0.7c0.5-0.5,0.8-1.2,0.8-2.1v-0.2h-3
			c-0.6,0-1,0.1-1.4,0.4c-0.4,0.2-0.5,0.6-0.5,1.1s0.2,0.9,0.5,1.1C96.1,26.2,96.6,26.3,97.2,26.3z M100.1,16.1
			c-0.4,0-0.8-0.1-1-0.4c-0.3-0.3-0.4-0.6-0.4-1.1c0-0.4,0.1-0.8,0.4-1.1c0.3-0.3,0.6-0.4,1-0.4c0.4,0,0.8,0.1,1.1,0.4
			c0.3,0.3,0.4,0.6,0.4,1.1c0,0.5-0.1,0.8-0.4,1.1C100.9,15.9,100.5,16.1,100.1,16.1z"/>
		<path class="st0" d="M105.8,27.8V13.1h2.2v5.8h0.3c0.1-0.3,0.3-0.5,0.6-0.8c0.3-0.3,0.6-0.5,1-0.6c0.4-0.2,1-0.2,1.6-0.2
			c0.8,0,1.5,0.2,2.1,0.5c0.6,0.4,1.1,0.8,1.4,1.5c0.4,0.6,0.5,1.4,0.5,2.3v6.2h-2.2v-6.1c0-0.9-0.2-1.6-0.7-2
			c-0.4-0.4-1.1-0.6-1.9-0.6c-0.9,0-1.6,0.3-2.2,0.9c-0.5,0.6-0.8,1.4-0.8,2.6v5.2H105.8z"/>
		<path class="st0" d="M118.8,27.8V17.4h2.1v1.2h0.3c0.2-0.4,0.4-0.8,0.8-1c0.4-0.2,0.8-0.3,1.4-0.3h1.2v2h-1.3
			c-0.7,0-1.3,0.2-1.7,0.6c-0.5,0.4-0.7,1-0.7,1.8v6.1H118.8z"/>
		<path class="st0" d="M126.9,27.8V13.1h2.2v14.7H126.9z"/>
		<path class="st0" d="M133.4,16c-0.4,0-0.8-0.1-1.1-0.4c-0.3-0.3-0.4-0.6-0.4-1.1s0.1-0.8,0.4-1.1c0.3-0.3,0.6-0.4,1.1-0.4
			c0.4,0,0.8,0.1,1.1,0.4c0.3,0.3,0.4,0.6,0.4,1.1s-0.1,0.8-0.4,1.1S133.9,16,133.4,16z M132.3,27.8V17.4h2.2v10.4H132.3z"/>
		<path class="st0" d="M142.5,28.1c-1,0-1.9-0.2-2.7-0.6s-1.4-1-1.9-1.8c-0.5-0.8-0.7-1.8-0.7-2.9v-0.3c0-1.1,0.2-2.1,0.7-2.9
			c0.5-0.8,1.1-1.4,1.9-1.8c0.8-0.4,1.7-0.6,2.7-0.6s1.8,0.2,2.5,0.5c0.7,0.4,1.3,0.9,1.7,1.5c0.4,0.6,0.7,1.3,0.8,2l-2.1,0.4
			c-0.1-0.5-0.2-0.9-0.4-1.3c-0.2-0.4-0.5-0.7-0.9-0.9s-0.9-0.3-1.5-0.3c-0.6,0-1.1,0.1-1.6,0.4c-0.5,0.3-0.9,0.7-1.1,1.2
			c-0.3,0.5-0.4,1.1-0.4,1.9v0.2c0,0.7,0.1,1.4,0.4,1.9c0.3,0.5,0.7,0.9,1.1,1.2s1,0.4,1.6,0.4c0.9,0,1.6-0.2,2.1-0.7
			c0.5-0.5,0.8-1.1,0.9-1.8l2.1,0.5c-0.2,0.7-0.5,1.4-0.9,2c-0.4,0.6-1,1.1-1.7,1.4S143.5,28.1,142.5,28.1z"/>
		<path class="st0" d="M150.2,27.8V13.1h2.2v5.8h0.3c0.1-0.3,0.3-0.5,0.6-0.8c0.3-0.3,0.6-0.5,1-0.6c0.4-0.2,1-0.2,1.6-0.2
			c0.8,0,1.5,0.2,2.1,0.5c0.6,0.4,1.1,0.8,1.4,1.5c0.4,0.6,0.5,1.4,0.5,2.3v6.2h-2.2v-6.1c0-0.9-0.2-1.6-0.7-2
			c-0.4-0.4-1.1-0.6-1.9-0.6c-0.9,0-1.6,0.3-2.2,0.9s-0.8,1.4-0.8,2.6v5.2H150.2z"/>
		<path class="st0" d="M167.9,28.1c-1.1,0-2-0.2-2.8-0.7c-0.8-0.4-1.4-1.1-1.8-1.9s-0.7-1.7-0.7-2.8v-0.3c0-1.1,0.2-2,0.7-2.8
			s1-1.4,1.8-1.9s1.7-0.7,2.7-0.7c1,0,1.9,0.2,2.6,0.7c0.8,0.4,1.3,1.1,1.8,1.8c0.4,0.8,0.6,1.7,0.6,2.8v0.8h-8
			c0,0.9,0.3,1.6,0.9,2.2c0.6,0.5,1.3,0.8,2.2,0.8c0.8,0,1.4-0.2,1.8-0.5s0.7-0.8,1-1.3l1.8,0.9c-0.2,0.4-0.5,0.8-0.9,1.2
			c-0.4,0.4-0.9,0.8-1.5,1.1S168.8,28.1,167.9,28.1z M164.9,21.6h5.8c-0.1-0.8-0.3-1.4-0.8-1.8c-0.5-0.4-1.2-0.7-2-0.7
			s-1.5,0.2-2,0.7C165.3,20.2,165,20.8,164.9,21.6z"/>
		<path class="st0" d="M175.4,27.8V17.4h2.1v1.2h0.3c0.2-0.4,0.4-0.8,0.8-1c0.4-0.2,0.8-0.3,1.4-0.3h1.2v2H180
			c-0.7,0-1.3,0.2-1.7,0.6c-0.4,0.4-0.7,1-0.7,1.8v6.1H175.4z"/>
		<path class="st0" d="M193.3,28.1c-0.9,0-1.7-0.2-2.4-0.6c-0.7-0.4-1.3-1-1.8-1.8c-0.4-0.8-0.7-1.8-0.7-2.9v-0.3
			c0-1.1,0.2-2.1,0.7-2.9c0.4-0.8,1-1.4,1.7-1.8c0.7-0.4,1.5-0.6,2.4-0.6c0.7,0,1.2,0.1,1.7,0.3c0.5,0.2,0.8,0.4,1.1,0.6
			c0.3,0.3,0.5,0.5,0.7,0.8h0.3v-5.8h2.2v14.7h-2.1v-1.5h-0.3c-0.3,0.5-0.7,0.9-1.2,1.2C195.1,27.9,194.3,28.1,193.3,28.1z
			 M193.9,26.2c0.9,0,1.7-0.3,2.3-0.9c0.6-0.6,0.9-1.5,0.9-2.6v-0.2c0-1.1-0.3-2-0.9-2.6c-0.6-0.6-1.4-0.9-2.3-0.9
			c-0.9,0-1.7,0.3-2.3,0.9c-0.6,0.6-0.9,1.5-0.9,2.6v0.2c0,1.1,0.3,2,0.9,2.6C192.2,25.9,192.9,26.2,193.9,26.2z"/>
		<path class="st0" d="M206.4,28c-0.8,0-1.5-0.2-2.1-0.5c-0.6-0.4-1.1-0.8-1.5-1.5c-0.4-0.6-0.5-1.4-0.5-2.3v-6.2h2.2v6.1
			c0,0.9,0.2,1.6,0.7,2c0.4,0.4,1.1,0.6,1.9,0.6c0.9,0,1.6-0.3,2.1-0.9c0.5-0.6,0.8-1.5,0.8-2.6v-5.2h2.2v10.4h-2.1v-1.6h-0.3
			c-0.2,0.4-0.5,0.8-1.1,1.2C208.2,27.8,207.4,28,206.4,28z"/>
		<path class="st0" d="M215.4,27.8V17.4h2.1v1.2h0.3c0.2-0.4,0.4-0.8,0.8-1c0.4-0.2,0.8-0.3,1.4-0.3h1.2v2H220
			c-0.7,0-1.3,0.2-1.7,0.6c-0.4,0.4-0.7,1-0.7,1.8v6.1H215.4z"/>
		<path class="st0" d="M228.4,28.1c-1,0-1.9-0.2-2.7-0.6s-1.4-1-1.9-1.8c-0.5-0.8-0.7-1.8-0.7-2.9v-0.3c0-1.1,0.2-2.1,0.7-2.9
			c0.5-0.8,1.1-1.4,1.9-1.8c0.8-0.4,1.7-0.6,2.7-0.6s1.8,0.2,2.5,0.5c0.7,0.4,1.3,0.9,1.7,1.5c0.4,0.6,0.7,1.3,0.8,2l-2.1,0.4
			c-0.1-0.5-0.2-0.9-0.4-1.3c-0.2-0.4-0.5-0.7-0.9-0.9s-0.9-0.3-1.5-0.3c-0.6,0-1.1,0.1-1.6,0.4c-0.5,0.3-0.9,0.7-1.1,1.2
			c-0.3,0.5-0.4,1.1-0.4,1.9v0.2c0,0.7,0.1,1.4,0.4,1.9c0.3,0.5,0.7,0.9,1.1,1.2s1,0.4,1.6,0.4c0.9,0,1.6-0.2,2.1-0.7
			c0.5-0.5,0.8-1.1,0.9-1.8l2.1,0.5c-0.2,0.7-0.5,1.4-0.9,2c-0.4,0.6-1,1.1-1.7,1.4S229.4,28.1,228.4,28.1z"/>
		<path class="st0" d="M236,27.8V13.1h2.2v5.8h0.3c0.1-0.3,0.3-0.5,0.6-0.8c0.3-0.3,0.6-0.5,1-0.6c0.4-0.2,1-0.2,1.6-0.2
			c0.8,0,1.5,0.2,2.1,0.5c0.6,0.4,1.1,0.8,1.4,1.5c0.4,0.6,0.5,1.4,0.5,2.3v6.2h-2.2v-6.1c0-0.9-0.2-1.6-0.7-2
			c-0.4-0.4-1.1-0.6-1.9-0.6c-0.9,0-1.6,0.3-2.2,0.9s-0.8,1.4-0.8,2.6v5.2H236z"/>
		<path class="st0" d="M253.2,28.1c-1.3,0-2.4-0.3-3.3-0.9c-0.9-0.6-1.4-1.5-1.6-2.7l2-0.5c0.1,0.6,0.3,1,0.6,1.4s0.6,0.6,1,0.7
			c0.4,0.1,0.8,0.2,1.3,0.2c0.7,0,1.2-0.1,1.6-0.4c0.4-0.3,0.6-0.6,0.6-1s-0.2-0.7-0.5-0.9c-0.4-0.2-0.9-0.4-1.6-0.5l-0.7-0.1
			c-0.7-0.1-1.3-0.3-1.9-0.5c-0.6-0.2-1-0.6-1.4-1s-0.5-1-0.5-1.6c0-1,0.4-1.7,1.1-2.3c0.7-0.5,1.7-0.8,2.9-0.8
			c1.2,0,2.1,0.3,2.9,0.8c0.8,0.5,1.2,1.2,1.5,2.1l-2,0.6c-0.1-0.6-0.4-1.1-0.8-1.3c-0.4-0.3-0.9-0.4-1.5-0.4
			c-0.6,0-1.1,0.1-1.4,0.3s-0.5,0.5-0.5,0.9c0,0.4,0.2,0.7,0.5,0.9c0.3,0.2,0.8,0.3,1.3,0.4l0.7,0.1c0.7,0.1,1.4,0.3,2,0.5
			c0.6,0.2,1.1,0.5,1.5,1c0.4,0.4,0.5,1,0.5,1.7c0,1-0.4,1.8-1.2,2.4C255.6,27.8,254.5,28.1,253.2,28.1z"/>
		<path class="st0" d="M264.9,28.1c-1,0-1.9-0.2-2.7-0.6s-1.4-1-1.9-1.8c-0.5-0.8-0.7-1.8-0.7-2.9v-0.3c0-1.1,0.2-2.1,0.7-2.9
			c0.5-0.8,1.1-1.4,1.9-1.8c0.8-0.4,1.7-0.6,2.7-0.6s1.8,0.2,2.5,0.5c0.7,0.4,1.3,0.9,1.7,1.5c0.4,0.6,0.7,1.3,0.8,2l-2.1,0.4
			c-0.1-0.5-0.2-0.9-0.4-1.3c-0.2-0.4-0.5-0.7-0.9-0.9s-0.9-0.3-1.5-0.3c-0.6,0-1.1,0.1-1.6,0.4c-0.5,0.3-0.9,0.7-1.1,1.2
			c-0.3,0.5-0.4,1.1-0.4,1.9v0.2c0,0.7,0.1,1.4,0.4,1.9c0.3,0.5,0.7,0.9,1.1,1.2s1,0.4,1.6,0.4c0.9,0,1.6-0.2,2.1-0.7
			c0.5-0.5,0.8-1.1,0.9-1.8l2.1,0.5c-0.2,0.7-0.5,1.4-0.9,2c-0.4,0.6-1,1.1-1.7,1.4S265.9,28.1,264.9,28.1z"/>
		<path class="st0" d="M272.5,27.8V13.1h2.2v5.8h0.3c0.1-0.3,0.3-0.5,0.6-0.8c0.3-0.3,0.6-0.5,1-0.6c0.4-0.2,1-0.2,1.6-0.2
			c0.8,0,1.5,0.2,2.1,0.5c0.6,0.4,1.1,0.8,1.4,1.5c0.4,0.6,0.5,1.4,0.5,2.3v6.2h-2.2v-6.1c0-0.9-0.2-1.6-0.7-2
			c-0.4-0.4-1.1-0.6-1.9-0.6c-0.9,0-1.6,0.3-2.2,0.9s-0.8,1.4-0.8,2.6v5.2H272.5z"/>
		<path class="st0" d="M285.5,27.8V17.4h2.1V19h0.3c0.2-0.4,0.5-0.8,1.1-1.2c0.5-0.4,1.3-0.5,2.3-0.5c0.8,0,1.5,0.2,2.1,0.5
			c0.6,0.4,1.1,0.8,1.4,1.5c0.4,0.6,0.5,1.4,0.5,2.3v6.2h-2.2v-6.1c0-0.9-0.2-1.6-0.7-2c-0.4-0.4-1.1-0.6-1.9-0.6
			c-0.9,0-1.6,0.3-2.2,0.9s-0.8,1.4-0.8,2.6v5.2H285.5z"/>
		<path class="st0" d="M299.5,16c-0.4,0-0.8-0.1-1.1-0.4c-0.3-0.3-0.4-0.6-0.4-1.1s0.1-0.8,0.4-1.1c0.3-0.3,0.6-0.4,1.1-0.4
			c0.4,0,0.8,0.1,1.1,0.4c0.3,0.3,0.4,0.6,0.4,1.1s-0.1,0.8-0.4,1.1C300.3,15.9,299.9,16,299.5,16z M298.4,27.8V17.4h2.2v10.4H298.4
			z"/>
		<path class="st0" d="M307.7,27.8c-0.6,0-1.1-0.2-1.5-0.6c-0.4-0.4-0.6-0.9-0.6-1.5v-6.5h-2.9v-1.8h2.9V14h2.2v3.4h3.1v1.8h-3.1
			v6.1c0,0.4,0.2,0.6,0.6,0.6h2.2v1.8H307.7z"/>
		<path class="st0" d="M317.3,27.8c-0.6,0-1.1-0.2-1.5-0.6c-0.4-0.4-0.6-0.9-0.6-1.5v-6.5h-2.9v-1.8h2.9V14h2.2v3.4h3.1v1.8h-3.1
			v6.1c0,0.4,0.2,0.6,0.6,0.6h2.2v1.8H317.3z"/>
		<path class="st0" d="M323.1,27.8V13.1h2.2v14.7H323.1z"/>
		<path class="st0" d="M329.6,16c-0.4,0-0.8-0.1-1.1-0.4c-0.3-0.3-0.4-0.6-0.4-1.1s0.1-0.8,0.4-1.1c0.3-0.3,0.6-0.4,1.1-0.4
			c0.4,0,0.8,0.1,1.1,0.4c0.3,0.3,0.4,0.6,0.4,1.1s-0.1,0.8-0.4,1.1C330.4,15.9,330,16,329.6,16z M328.5,27.8V17.4h2.2v10.4H328.5z"
			/>
		<path class="st0" d="M338.7,28.1c-1,0-1.9-0.2-2.7-0.6s-1.4-1-1.9-1.8c-0.5-0.8-0.7-1.8-0.7-2.9v-0.3c0-1.1,0.2-2.1,0.7-2.9
			c0.5-0.8,1.1-1.4,1.9-1.8c0.8-0.4,1.7-0.6,2.7-0.6s1.8,0.2,2.5,0.5c0.7,0.4,1.3,0.9,1.7,1.5c0.4,0.6,0.7,1.3,0.8,2l-2.1,0.4
			c-0.1-0.5-0.2-0.9-0.4-1.3c-0.2-0.4-0.5-0.7-0.9-0.9s-0.9-0.3-1.5-0.3c-0.6,0-1.1,0.1-1.6,0.4c-0.5,0.3-0.9,0.7-1.1,1.2
			c-0.3,0.5-0.4,1.1-0.4,1.9v0.2c0,0.7,0.1,1.4,0.4,1.9c0.3,0.5,0.7,0.9,1.1,1.2s1,0.4,1.6,0.4c0.9,0,1.6-0.2,2.1-0.7
			c0.5-0.5,0.8-1.1,0.9-1.8l2.1,0.5c-0.2,0.7-0.5,1.4-0.9,2c-0.4,0.6-1,1.1-1.7,1.4S339.7,28.1,338.7,28.1z"/>
		<path class="st0" d="M346.3,27.8V13.1h2.2v5.8h0.3c0.1-0.3,0.3-0.5,0.6-0.8c0.3-0.3,0.6-0.5,1-0.6c0.4-0.2,1-0.2,1.6-0.2
			c0.8,0,1.5,0.2,2.1,0.5c0.6,0.4,1.1,0.8,1.4,1.5c0.4,0.6,0.5,1.4,0.5,2.3v6.2H354v-6.1c0-0.9-0.2-1.6-0.7-2
			c-0.4-0.4-1.1-0.6-1.9-0.6c-0.9,0-1.6,0.3-2.2,0.9s-0.8,1.4-0.8,2.6v5.2H346.3z"/>
		<path class="st0" d="M364.1,28.1c-1.1,0-2-0.2-2.8-0.7c-0.8-0.4-1.4-1.1-1.8-1.9s-0.7-1.7-0.7-2.8v-0.3c0-1.1,0.2-2,0.7-2.8
			s1-1.4,1.8-1.9s1.7-0.7,2.7-0.7c1,0,1.9,0.2,2.6,0.7c0.8,0.4,1.3,1.1,1.8,1.8c0.4,0.8,0.6,1.7,0.6,2.8v0.8h-8
			c0,0.9,0.3,1.6,0.9,2.2c0.6,0.5,1.3,0.8,2.2,0.8c0.8,0,1.4-0.2,1.8-0.5s0.7-0.8,1-1.3l1.8,0.9c-0.2,0.4-0.5,0.8-0.9,1.2
			c-0.4,0.4-0.9,0.8-1.5,1.1S365,28.1,364.1,28.1z M361,21.6h5.8c-0.1-0.8-0.3-1.4-0.8-1.8c-0.5-0.4-1.2-0.7-2-0.7s-1.5,0.2-2,0.7
			C361.5,20.2,361.1,20.8,361,21.6z"/>
		<path class="st0" d="M371.6,27.8V17.4h2.1v1.2h0.3c0.2-0.4,0.4-0.8,0.8-1c0.4-0.2,0.8-0.3,1.4-0.3h1.2v2h-1.3
			c-0.7,0-1.3,0.2-1.7,0.6c-0.4,0.4-0.7,1-0.7,1.8v6.1H371.6z"/>
		<path class="st0" d="M80.9,53.1V38.3h4.4l4,13.2h0.3V38.3h2.3v14.7h-4.4l-4-13.2h-0.3v13.2H80.9z"/>
		<path class="st0" d="M96.1,41.3c-0.4,0-0.8-0.1-1.1-0.4c-0.3-0.3-0.4-0.6-0.4-1.1s0.1-0.8,0.4-1.1c0.3-0.3,0.6-0.4,1.1-0.4
			c0.4,0,0.8,0.1,1.1,0.4c0.3,0.3,0.4,0.6,0.4,1.1s-0.1,0.8-0.4,1.1S96.6,41.3,96.1,41.3z M95,53.1V42.7h2.2v10.4H95z"/>
		<path class="st0" d="M105.2,53.4c-1.1,0-2-0.2-2.8-0.7c-0.8-0.4-1.4-1.1-1.8-1.9s-0.7-1.7-0.7-2.8v-0.3c0-1.1,0.2-2,0.7-2.8
			c0.4-0.8,1-1.4,1.8-1.9s1.7-0.7,2.7-0.7c1,0,1.9,0.2,2.6,0.7c0.8,0.4,1.3,1.1,1.8,1.8c0.4,0.8,0.6,1.7,0.6,2.8v0.8h-8
			c0,0.9,0.3,1.6,0.9,2.2c0.6,0.5,1.3,0.8,2.2,0.8c0.8,0,1.4-0.2,1.8-0.5s0.7-0.8,1-1.3l1.8,0.9c-0.2,0.4-0.5,0.8-0.9,1.2
			c-0.4,0.4-0.9,0.8-1.5,1.1S106.1,53.4,105.2,53.4z M102.2,46.8h5.8c-0.1-0.8-0.3-1.4-0.8-1.8s-1.2-0.7-2-0.7c-0.8,0-1.5,0.2-2,0.7
			S102.3,46,102.2,46.8z"/>
		<path class="st0" d="M117,53.4c-0.9,0-1.6-0.2-2.4-0.6s-1.3-1-1.8-1.8c-0.4-0.8-0.7-1.8-0.7-2.9v-0.3c0-1.1,0.2-2.1,0.7-2.9
			c0.4-0.8,1-1.4,1.7-1.8c0.7-0.4,1.5-0.6,2.4-0.6c0.7,0,1.2,0.1,1.7,0.3c0.5,0.2,0.8,0.4,1.1,0.6c0.3,0.3,0.5,0.5,0.7,0.8h0.3v-5.8
			h2.2v14.7h-2.1v-1.5h-0.3c-0.3,0.5-0.7,0.9-1.2,1.2C118.8,53.2,118,53.4,117,53.4z M117.6,51.5c0.9,0,1.7-0.3,2.3-0.9
			c0.6-0.6,0.9-1.5,0.9-2.6v-0.2c0-1.1-0.3-2-0.9-2.6s-1.4-0.9-2.3-0.9c-0.9,0-1.7,0.3-2.3,0.9c-0.6,0.6-0.9,1.5-0.9,2.6V48
			c0,1.1,0.3,2,0.9,2.6C116,51.2,116.7,51.5,117.6,51.5z"/>
		<path class="st0" d="M131,53.4c-1.1,0-2-0.2-2.8-0.7c-0.8-0.4-1.4-1.1-1.8-1.9s-0.7-1.7-0.7-2.8v-0.3c0-1.1,0.2-2,0.7-2.8
			c0.4-0.8,1-1.4,1.8-1.9s1.7-0.7,2.7-0.7c1,0,1.9,0.2,2.6,0.7s1.3,1.1,1.8,1.8c0.4,0.8,0.6,1.7,0.6,2.8v0.8h-8
			c0,0.9,0.3,1.6,0.9,2.2c0.6,0.5,1.3,0.8,2.2,0.8c0.8,0,1.4-0.2,1.8-0.5s0.7-0.8,1-1.3l1.8,0.9c-0.2,0.4-0.5,0.8-0.9,1.2
			c-0.4,0.4-0.9,0.8-1.5,1.1C132.7,53.2,131.9,53.4,131,53.4z M128,46.8h5.8c-0.1-0.8-0.3-1.4-0.8-1.8c-0.5-0.4-1.2-0.7-2-0.7
			s-1.5,0.2-2,0.7S128.1,46,128,46.8z"/>
		<path class="st0" d="M138.5,53.1V42.7h2.1v1.2h0.3c0.2-0.4,0.4-0.8,0.8-1c0.4-0.2,0.8-0.3,1.4-0.3h1.2v2h-1.3
			c-0.7,0-1.3,0.2-1.7,0.6c-0.4,0.4-0.7,1-0.7,1.8v6.1H138.5z"/>
		<path class="st0" d="M150.9,53.4c-1.3,0-2.4-0.3-3.3-0.9c-0.9-0.6-1.4-1.5-1.6-2.7l2-0.5c0.1,0.6,0.3,1,0.6,1.4s0.6,0.6,1,0.7
			c0.4,0.1,0.8,0.2,1.3,0.2c0.7,0,1.2-0.1,1.6-0.4c0.4-0.3,0.6-0.6,0.6-1s-0.2-0.7-0.5-0.9c-0.4-0.2-0.9-0.4-1.6-0.5l-0.7-0.1
			c-0.7-0.1-1.3-0.3-1.9-0.5c-0.6-0.2-1-0.6-1.4-1s-0.5-1-0.5-1.6c0-1,0.4-1.7,1.1-2.3c0.7-0.5,1.7-0.8,2.9-0.8
			c1.2,0,2.1,0.3,2.9,0.8c0.8,0.5,1.2,1.2,1.5,2.1l-2,0.6c-0.1-0.6-0.4-1.1-0.8-1.3c-0.4-0.3-0.9-0.4-1.5-0.4
			c-0.6,0-1.1,0.1-1.4,0.3s-0.5,0.5-0.5,0.9c0,0.4,0.2,0.7,0.5,0.9c0.3,0.2,0.8,0.3,1.3,0.4l0.7,0.1c0.7,0.1,1.4,0.3,2,0.5
			c0.6,0.2,1.1,0.5,1.5,1c0.4,0.4,0.5,1,0.5,1.7c0,1-0.4,1.8-1.2,2.4C153.3,53.1,152.3,53.4,150.9,53.4z"/>
		<path class="st0" d="M162.6,53.4c-1,0-1.9-0.2-2.7-0.6s-1.4-1-1.9-1.8c-0.5-0.8-0.7-1.8-0.7-2.9v-0.3c0-1.1,0.2-2.1,0.7-2.9
			c0.5-0.8,1.1-1.4,1.9-1.8c0.8-0.4,1.7-0.6,2.7-0.6s1.8,0.2,2.5,0.5c0.7,0.4,1.3,0.9,1.7,1.5c0.4,0.6,0.7,1.3,0.8,2l-2.1,0.4
			c-0.1-0.5-0.2-0.9-0.4-1.3c-0.2-0.4-0.5-0.7-0.9-0.9s-0.9-0.3-1.5-0.3c-0.6,0-1.1,0.1-1.6,0.4c-0.5,0.3-0.9,0.7-1.1,1.2
			c-0.3,0.5-0.4,1.1-0.4,1.9V48c0,0.7,0.1,1.4,0.4,1.9c0.3,0.5,0.7,0.9,1.1,1.2s1,0.4,1.6,0.4c0.9,0,1.6-0.2,2.1-0.7
			c0.5-0.5,0.8-1.1,0.9-1.8l2.1,0.5c-0.2,0.7-0.5,1.4-0.9,2c-0.4,0.6-1,1.1-1.7,1.4S163.6,53.4,162.6,53.4z"/>
		<path class="st0" d="M170.2,53.1V38.3h2.2v5.8h0.3c0.1-0.3,0.3-0.5,0.6-0.8c0.3-0.3,0.6-0.5,1-0.6c0.4-0.2,1-0.2,1.6-0.2
			c0.8,0,1.5,0.2,2.1,0.5c0.6,0.4,1.1,0.8,1.4,1.5c0.4,0.6,0.5,1.4,0.5,2.3v6.2h-2.2V47c0-0.9-0.2-1.6-0.7-2
			c-0.4-0.4-1.1-0.6-1.9-0.6c-0.9,0-1.6,0.3-2.2,0.9s-0.8,1.4-0.8,2.6v5.2H170.2z"/>
		<path class="st0" d="M183.2,53.1V38.3h2.2v14.7H183.2z"/>
		<path class="st0" d="M191.8,53.4c-0.7,0-1.4-0.1-2-0.4c-0.6-0.3-1-0.6-1.4-1.1c-0.3-0.5-0.5-1.1-0.5-1.8c0-0.7,0.2-1.3,0.5-1.8
			c0.3-0.5,0.8-0.8,1.4-1.1c0.6-0.2,1.3-0.4,2-0.4h3.2v-0.7c0-0.6-0.2-1.1-0.5-1.5c-0.4-0.4-0.9-0.5-1.7-0.5c-0.7,0-1.3,0.2-1.7,0.5
			c-0.4,0.4-0.7,0.8-0.8,1.4l-2-0.7c0.2-0.6,0.4-1.1,0.8-1.5c0.4-0.5,0.9-0.8,1.5-1.1c0.6-0.3,1.4-0.4,2.2-0.4c1.3,0,2.4,0.3,3.2,1
			c0.8,0.7,1.2,1.7,1.2,2.9v4.3c0,0.4,0.2,0.6,0.6,0.6h0.9v1.8H197c-0.5,0-0.9-0.1-1.2-0.4s-0.5-0.6-0.5-1v-0.1H195
			c-0.1,0.2-0.3,0.5-0.5,0.7c-0.2,0.3-0.6,0.5-1,0.7C193.1,53.3,192.5,53.4,191.8,53.4z M192.1,51.6c0.9,0,1.6-0.2,2.1-0.7
			c0.5-0.5,0.8-1.2,0.8-2.1v-0.2h-3c-0.6,0-1,0.1-1.4,0.4c-0.4,0.2-0.5,0.6-0.5,1.1s0.2,0.9,0.5,1.1C191,51.5,191.5,51.6,192.1,51.6
			z"/>
		<path class="st0" d="M200.2,47.9v-0.3c0-1.1,0.2-2,0.7-2.8s1-1.4,1.8-1.8c0.7-0.4,1.5-0.6,2.4-0.6c1,0,1.8,0.2,2.3,0.6
			s0.9,0.8,1.2,1.2h0.3v-1.5h2.1v12.5c0,0.6-0.2,1.1-0.6,1.5c-0.4,0.4-0.9,0.6-1.5,0.6h-7v-1.9h6.3c0.4,0,0.6-0.2,0.6-0.6v-3.3h-0.3
			c-0.2,0.3-0.4,0.5-0.7,0.8c-0.3,0.3-0.6,0.5-1.1,0.7c-0.5,0.2-1,0.3-1.7,0.3c-0.9,0-1.7-0.2-2.4-0.6c-0.7-0.4-1.3-1-1.8-1.8
			S200.2,49,200.2,47.9z M205.6,51.3c0.9,0,1.7-0.3,2.3-0.9c0.6-0.6,0.9-1.4,0.9-2.5v-0.2c0-1.1-0.3-1.9-0.9-2.5
			c-0.6-0.6-1.4-0.9-2.3-0.9c-0.9,0-1.7,0.3-2.3,0.9c-0.6,0.6-0.9,1.4-0.9,2.5v0.2c0,1.1,0.3,1.9,0.9,2.5
			C203.9,51,204.7,51.3,205.6,51.3z"/>
		<path class="st0" d="M220.7,41.3c-0.4,0-0.8-0.1-1.1-0.4c-0.3-0.3-0.4-0.6-0.4-1.1s0.1-0.8,0.4-1.1c0.3-0.3,0.6-0.4,1.1-0.4
			c0.4,0,0.8,0.1,1.1,0.4c0.3,0.3,0.4,0.6,0.4,1.1s-0.1,0.8-0.4,1.1C221.5,41.2,221.1,41.3,220.7,41.3z M219.6,53.1V42.7h2.2v10.4
			H219.6z"/>
		<path class="st0" d="M225,53.1V42.7h2.1v1.6h0.3c0.2-0.4,0.5-0.8,1.1-1.2c0.5-0.4,1.3-0.5,2.3-0.5c0.8,0,1.5,0.2,2.1,0.5
			c0.6,0.4,1.1,0.8,1.4,1.5c0.4,0.6,0.5,1.4,0.5,2.3v6.2h-2.2V47c0-0.9-0.2-1.6-0.7-2c-0.4-0.4-1.1-0.6-1.9-0.6
			c-0.9,0-1.6,0.3-2.2,0.9s-0.8,1.4-0.8,2.6v5.2H225z"/>
		<path class="st0" d="M243.3,53.1V42.7h2.1v1.2h0.3c0.2-0.4,0.5-0.7,0.9-1c0.4-0.3,1-0.4,1.8-0.4c0.8,0,1.4,0.2,1.9,0.5
			c0.5,0.3,0.8,0.7,1.1,1.2h0.3c0.2-0.5,0.6-0.9,1-1.2c0.5-0.3,1.1-0.5,1.9-0.5c0.7,0,1.3,0.1,1.8,0.4c0.5,0.3,0.9,0.7,1.2,1.2
			c0.3,0.5,0.5,1.2,0.5,2v6.9h-2.2v-6.7c0-0.6-0.2-1.1-0.5-1.5c-0.3-0.3-0.8-0.5-1.5-0.5c-0.7,0-1.2,0.2-1.6,0.7
			c-0.4,0.4-0.6,1.1-0.6,1.9v6.2h-2.2v-6.7c0-0.6-0.2-1.1-0.5-1.5c-0.3-0.3-0.8-0.5-1.5-0.5c-0.7,0-1.2,0.2-1.6,0.7
			c-0.4,0.4-0.6,1.1-0.6,1.9v6.2H243.3z"/>
		<path class="st0" d="M261.3,53.1V42.7h2.1v1.2h0.3c0.2-0.4,0.5-0.7,0.9-1c0.4-0.3,1-0.4,1.8-0.4c0.8,0,1.4,0.2,1.9,0.5
			c0.5,0.3,0.8,0.7,1.1,1.2h0.3c0.2-0.5,0.6-0.9,1-1.2c0.5-0.3,1.1-0.5,1.9-0.5c0.7,0,1.3,0.1,1.8,0.4c0.5,0.3,0.9,0.7,1.2,1.2
			c0.3,0.5,0.5,1.2,0.5,2v6.9h-2.2v-6.7c0-0.6-0.2-1.1-0.5-1.5c-0.3-0.3-0.8-0.5-1.5-0.5c-0.7,0-1.2,0.2-1.6,0.7
			c-0.4,0.4-0.6,1.1-0.6,1.9v6.2h-2.2v-6.7c0-0.6-0.2-1.1-0.5-1.5c-0.3-0.3-0.8-0.5-1.5-0.5c-0.7,0-1.2,0.2-1.6,0.7
			c-0.4,0.4-0.6,1.1-0.6,1.9v6.2H261.3z"/>
		<path class="st0" d="M284.8,57.3V42.7h2.1v1.5h0.3c0.3-0.5,0.7-0.9,1.2-1.2c0.5-0.4,1.3-0.5,2.3-0.5c0.9,0,1.7,0.2,2.4,0.6
			c0.7,0.4,1.3,1,1.7,1.8c0.4,0.8,0.7,1.8,0.7,2.9v0.3c0,1.1-0.2,2.1-0.7,2.9c-0.4,0.8-1,1.4-1.7,1.8s-1.5,0.6-2.4,0.6
			c-0.7,0-1.2-0.1-1.7-0.3c-0.5-0.2-0.8-0.4-1.1-0.6c-0.3-0.3-0.5-0.5-0.7-0.8h-0.3v5.6H284.8z M290.1,51.5c1,0,1.7-0.3,2.3-0.9
			c0.6-0.6,0.9-1.5,0.9-2.6v-0.2c0-1.1-0.3-2-0.9-2.6c-0.6-0.6-1.4-0.9-2.3-0.9c-0.9,0-1.7,0.3-2.3,0.9c-0.6,0.6-0.9,1.5-0.9,2.6V48
			c0,1.1,0.3,2,0.9,2.6C288.4,51.2,289.2,51.5,290.1,51.5z"/>
		<path class="st0" d="M298.3,53.1V42.7h2.1v1.2h0.3c0.2-0.4,0.4-0.8,0.8-1c0.4-0.2,0.8-0.3,1.4-0.3h1.2v2h-1.3
			c-0.7,0-1.3,0.2-1.7,0.6c-0.4,0.4-0.7,1-0.7,1.8v6.1H298.3z"/>
		<path class="st0" d="M311.3,53.4c-1,0-2-0.2-2.8-0.6c-0.8-0.4-1.4-1-1.9-1.8c-0.5-0.8-0.7-1.7-0.7-2.8v-0.3c0-1.1,0.2-2,0.7-2.8
			c0.5-0.8,1.1-1.4,1.9-1.8c0.8-0.4,1.7-0.7,2.8-0.7c1,0,2,0.2,2.8,0.7c0.8,0.4,1.5,1,1.9,1.8c0.5,0.8,0.7,1.7,0.7,2.8v0.3
			c0,1.1-0.2,2-0.7,2.8c-0.5,0.8-1.1,1.4-1.9,1.8C313.2,53.2,312.3,53.4,311.3,53.4z M311.3,51.4c1,0,1.7-0.3,2.3-0.9
			c0.6-0.6,0.9-1.5,0.9-2.5v-0.2c0-1.1-0.3-1.9-0.9-2.5c-0.6-0.6-1.4-0.9-2.3-0.9c-0.9,0-1.7,0.3-2.3,0.9c-0.6,0.6-0.9,1.5-0.9,2.5
			V48c0,1.1,0.3,1.9,0.9,2.5C309.6,51.1,310.3,51.4,311.3,51.4z"/>
		<path class="st0" d="M324.7,53.1V42.7h2.1v1.2h0.3c0.2-0.4,0.5-0.7,0.9-1c0.4-0.3,1-0.4,1.8-0.4c0.8,0,1.4,0.2,1.9,0.5
			c0.5,0.3,0.8,0.7,1.1,1.2h0.3c0.2-0.5,0.6-0.9,1-1.2c0.5-0.3,1.1-0.5,1.9-0.5c0.7,0,1.3,0.1,1.8,0.4c0.5,0.3,0.9,0.7,1.2,1.2
			c0.3,0.5,0.5,1.2,0.5,2v6.9h-2.2v-6.7c0-0.6-0.2-1.1-0.5-1.5c-0.3-0.3-0.8-0.5-1.5-0.5c-0.7,0-1.2,0.2-1.6,0.7
			c-0.4,0.4-0.6,1.1-0.6,1.9v6.2h-2.2v-6.7c0-0.6-0.2-1.1-0.5-1.5c-0.3-0.3-0.8-0.5-1.5-0.5c-0.7,0-1.2,0.2-1.6,0.7
			c-0.4,0.4-0.6,1.1-0.6,1.9v6.2H324.7z"/>
		<path class="st0" d="M341.8,45.7v-0.8c0-0.8,0.2-1.5,0.7-1.9c0.5-0.5,1.2-0.8,2.1-1c0.7-0.2,1.2-0.3,1.5-0.6s0.5-0.5,0.5-0.9
			c0-0.3-0.1-0.6-0.4-0.8c-0.3-0.2-0.6-0.3-1.1-0.3c-0.4,0-0.8,0.1-1.1,0.3c-0.3,0.2-0.5,0.6-0.5,1.1l-1.7-0.1c0.1-0.9,0.4-1.6,1-2
			s1.4-0.7,2.3-0.7c0.9,0,1.7,0.2,2.3,0.7c0.6,0.5,0.9,1.1,0.9,1.8c0,0.8-0.3,1.3-0.8,1.7s-1.2,0.7-2.1,0.9
			c-0.7,0.1-1.1,0.3-1.4,0.5s-0.4,0.4-0.5,0.7h4.7v1.4H341.8z"/>
	</g>
</g>
<g>
	<g>
		<path class="st0" d="M85.9,114.5c-1.1,0-2.1-0.2-2.9-0.6s-1.5-1-2-1.7s-0.7-1.7-0.7-2.8v-0.5h2.3v0.5c0,1,0.3,1.8,0.9,2.3
			s1.5,0.8,2.5,0.8c1.1,0,1.8-0.2,2.4-0.7c0.5-0.4,0.8-1,0.8-1.7c0-0.5-0.1-0.8-0.4-1.1s-0.6-0.5-1.1-0.7c-0.5-0.2-1-0.3-1.7-0.5
			l-0.8-0.2c-0.9-0.2-1.8-0.5-2.5-0.8c-0.7-0.3-1.2-0.8-1.6-1.3c-0.4-0.5-0.6-1.2-0.6-2.1c0-0.9,0.2-1.6,0.6-2.2
			c0.4-0.6,1-1.1,1.8-1.4c0.8-0.3,1.7-0.5,2.7-0.5c1,0,1.9,0.2,2.7,0.5c0.8,0.4,1.4,0.9,1.9,1.6c0.5,0.7,0.7,1.6,0.7,2.6v0.8h-2.3
			v-0.8c0-0.6-0.1-1.1-0.4-1.5c-0.3-0.4-0.6-0.7-1.1-0.9c-0.5-0.2-1-0.3-1.6-0.3c-0.9,0-1.6,0.2-2.1,0.6s-0.7,0.9-0.7,1.5
			c0,0.4,0.1,0.8,0.3,1.1c0.2,0.3,0.5,0.5,1,0.7c0.4,0.2,0.9,0.3,1.6,0.5l0.8,0.2c1,0.2,1.8,0.5,2.5,0.8c0.7,0.3,1.3,0.8,1.7,1.3
			c0.4,0.6,0.6,1.3,0.6,2.2c0,0.9-0.2,1.7-0.7,2.3s-1.1,1.2-1.9,1.5C88,114.3,87.1,114.5,85.9,114.5z"/>
		<path class="st0" d="M97.7,114.2c-0.6,0-1.1-0.2-1.5-0.6c-0.4-0.4-0.6-0.9-0.6-1.5v-6.5h-2.9v-1.8h2.9v-3.4h2.2v3.4h3.1v1.8h-3.1
			v6.1c0,0.4,0.2,0.6,0.6,0.6h2.2v1.8H97.7z"/>
		<path class="st0" d="M106.7,114.5c-0.7,0-1.4-0.1-2-0.4c-0.6-0.3-1-0.6-1.4-1.1c-0.3-0.5-0.5-1.1-0.5-1.8c0-0.7,0.2-1.3,0.5-1.8
			s0.8-0.8,1.4-1.1c0.6-0.2,1.3-0.4,2-0.4h3.2v-0.7c0-0.6-0.2-1.1-0.5-1.5c-0.4-0.4-0.9-0.5-1.7-0.5c-0.7,0-1.3,0.2-1.7,0.5
			c-0.4,0.4-0.7,0.8-0.8,1.4l-2-0.7c0.2-0.6,0.4-1.1,0.8-1.5c0.4-0.5,0.9-0.8,1.5-1.1c0.6-0.3,1.4-0.4,2.2-0.4c1.3,0,2.4,0.3,3.2,1
			c0.8,0.7,1.2,1.7,1.2,2.9v4.3c0,0.4,0.2,0.6,0.6,0.6h0.9v1.8h-1.6c-0.5,0-0.9-0.1-1.2-0.4s-0.5-0.6-0.5-1v-0.1h-0.3
			c-0.1,0.2-0.3,0.5-0.5,0.7c-0.2,0.3-0.6,0.5-1,0.7C108,114.4,107.4,114.5,106.7,114.5z M107,112.7c0.9,0,1.6-0.2,2.1-0.7
			c0.5-0.5,0.8-1.2,0.8-2.1v-0.2h-3c-0.6,0-1,0.1-1.4,0.4c-0.4,0.2-0.5,0.6-0.5,1.1s0.2,0.9,0.5,1.1
			C105.9,112.6,106.4,112.7,107,112.7z"/>
		<path class="st0" d="M115.6,114.2v-10.4h2.1v1.2h0.3c0.2-0.4,0.4-0.8,0.8-1c0.4-0.2,0.8-0.3,1.4-0.3h1.2v2h-1.3
			c-0.7,0-1.3,0.2-1.7,0.6c-0.5,0.4-0.7,1-0.7,1.8v6.1H115.6z"/>
		<path class="st0" d="M123.8,114.2V99.5h2.2v8.4h0.3l4.1-4h2.9l-5.2,5l5.4,5.3h-2.9l-4.3-4.3h-0.3v4.3H123.8z"/>
		<path class="st0" d="M140.1,114.5c-1.1,0-2-0.2-2.8-0.7c-0.8-0.4-1.4-1.1-1.8-1.9s-0.7-1.7-0.7-2.8v-0.3c0-1.1,0.2-2,0.7-2.8
			s1-1.4,1.8-1.9s1.7-0.7,2.7-0.7c1,0,1.9,0.2,2.6,0.7c0.8,0.4,1.3,1.1,1.8,1.8c0.4,0.8,0.6,1.7,0.6,2.8v0.8h-8
			c0,0.9,0.3,1.6,0.9,2.2c0.6,0.5,1.3,0.8,2.2,0.8c0.8,0,1.4-0.2,1.8-0.5s0.7-0.8,1-1.3l1.8,0.9c-0.2,0.4-0.5,0.8-0.9,1.2
			c-0.4,0.4-0.9,0.8-1.5,1.1S141.1,114.5,140.1,114.5z M137.1,108h5.8c-0.1-0.8-0.3-1.4-0.8-1.8c-0.5-0.4-1.2-0.7-2-0.7
			s-1.5,0.2-2,0.7C137.5,106.6,137.2,107.2,137.1,108z"/>
		<path class="st0" d="M147.7,114.2v-10.4h2.1v1.2h0.3c0.2-0.4,0.4-0.8,0.8-1c0.4-0.2,0.8-0.3,1.4-0.3h1.2v2h-1.3
			c-0.7,0-1.3,0.2-1.7,0.6c-0.4,0.4-0.7,1-0.7,1.8v6.1H147.7z"/>
		<path class="st0" d="M161.1,114.2V99.5h4.4l4,13.2h0.3V99.5h2.3v14.7h-4.4l-4-13.2h-0.3v13.2H161.1z"/>
		<path class="st0" d="M176.3,102.4c-0.4,0-0.8-0.1-1.1-0.4c-0.3-0.3-0.4-0.6-0.4-1.1s0.1-0.8,0.4-1.1c0.3-0.3,0.6-0.4,1.1-0.4
			c0.4,0,0.8,0.1,1.1,0.4c0.3,0.3,0.4,0.6,0.4,1.1s-0.1,0.8-0.4,1.1C177.1,102.3,176.8,102.4,176.3,102.4z M175.3,114.2v-10.4h2.2
			v10.4H175.3z"/>
		<path class="st0" d="M185.4,114.5c-1.1,0-2-0.2-2.8-0.7c-0.8-0.4-1.4-1.1-1.8-1.9s-0.7-1.7-0.7-2.8v-0.3c0-1.1,0.2-2,0.7-2.8
			s1-1.4,1.8-1.9s1.7-0.7,2.7-0.7c1,0,1.9,0.2,2.6,0.7c0.8,0.4,1.3,1.1,1.8,1.8c0.4,0.8,0.6,1.7,0.6,2.8v0.8h-8
			c0,0.9,0.3,1.6,0.9,2.2c0.6,0.5,1.3,0.8,2.2,0.8c0.8,0,1.4-0.2,1.8-0.5s0.7-0.8,1-1.3l1.8,0.9c-0.2,0.4-0.5,0.8-0.9,1.2
			c-0.4,0.4-0.9,0.8-1.5,1.1S186.3,114.5,185.4,114.5z M182.4,108h5.8c-0.1-0.8-0.3-1.4-0.8-1.8c-0.5-0.4-1.2-0.7-2-0.7
			s-1.5,0.2-2,0.7C182.8,106.6,182.5,107.2,182.4,108z"/>
		<path class="st0" d="M197.2,114.5c-0.9,0-1.7-0.2-2.4-0.6c-0.7-0.4-1.3-1-1.8-1.8c-0.4-0.8-0.7-1.8-0.7-2.9v-0.3
			c0-1.1,0.2-2.1,0.7-2.9c0.4-0.8,1-1.4,1.7-1.8c0.7-0.4,1.5-0.6,2.4-0.6c0.7,0,1.2,0.1,1.7,0.3c0.5,0.2,0.8,0.4,1.1,0.6
			c0.3,0.3,0.5,0.5,0.7,0.8h0.3v-5.8h2.2v14.7h-2.1v-1.5h-0.3c-0.3,0.5-0.7,0.9-1.2,1.2C199,114.3,198.3,114.5,197.2,114.5z
			 M197.9,112.6c0.9,0,1.7-0.3,2.3-0.9c0.6-0.6,0.9-1.5,0.9-2.6v-0.2c0-1.1-0.3-2-0.9-2.6c-0.6-0.6-1.4-0.9-2.3-0.9
			c-0.9,0-1.7,0.3-2.3,0.9c-0.6,0.6-0.9,1.5-0.9,2.6v0.2c0,1.1,0.3,2,0.9,2.6C196.2,112.3,196.9,112.6,197.9,112.6z"/>
		<path class="st0" d="M211.2,114.5c-1.1,0-2-0.2-2.8-0.7c-0.8-0.4-1.4-1.1-1.8-1.9s-0.7-1.7-0.7-2.8v-0.3c0-1.1,0.2-2,0.7-2.8
			s1-1.4,1.8-1.9s1.7-0.7,2.7-0.7c1,0,1.9,0.2,2.6,0.7c0.8,0.4,1.3,1.1,1.8,1.8c0.4,0.8,0.6,1.7,0.6,2.8v0.8h-8
			c0,0.9,0.3,1.6,0.9,2.2c0.6,0.5,1.3,0.8,2.2,0.8c0.8,0,1.4-0.2,1.8-0.5s0.7-0.8,1-1.3l1.8,0.9c-0.2,0.4-0.5,0.8-0.9,1.2
			c-0.4,0.4-0.9,0.8-1.5,1.1S212.1,114.5,211.2,114.5z M208.2,108h5.8c-0.1-0.8-0.3-1.4-0.8-1.8c-0.5-0.4-1.2-0.7-2-0.7
			s-1.5,0.2-2,0.7C208.6,106.6,208.3,107.2,208.2,108z"/>
		<path class="st0" d="M218.7,114.2v-10.4h2.1v1.2h0.3c0.2-0.4,0.4-0.8,0.8-1c0.4-0.2,0.8-0.3,1.4-0.3h1.2v2h-1.3
			c-0.7,0-1.3,0.2-1.7,0.6c-0.4,0.4-0.7,1-0.7,1.8v6.1H218.7z"/>
		<path class="st0" d="M231.2,114.5c-1.3,0-2.4-0.3-3.3-0.9c-0.9-0.6-1.4-1.5-1.6-2.7l2-0.5c0.1,0.6,0.3,1,0.6,1.4s0.6,0.6,1,0.7
			c0.4,0.1,0.8,0.2,1.3,0.2c0.7,0,1.2-0.1,1.6-0.4c0.4-0.3,0.6-0.6,0.6-1s-0.2-0.7-0.5-0.9c-0.4-0.2-0.9-0.4-1.6-0.5l-0.7-0.1
			c-0.7-0.1-1.3-0.3-1.9-0.5c-0.6-0.2-1-0.6-1.4-1s-0.5-1-0.5-1.6c0-1,0.4-1.7,1.1-2.3c0.7-0.5,1.7-0.8,2.9-0.8
			c1.2,0,2.1,0.3,2.9,0.8c0.8,0.5,1.2,1.2,1.5,2.1l-2,0.6c-0.1-0.6-0.4-1.1-0.8-1.3c-0.4-0.3-0.9-0.4-1.5-0.4
			c-0.6,0-1.1,0.1-1.4,0.3s-0.5,0.5-0.5,0.9c0,0.4,0.2,0.7,0.5,0.9c0.3,0.2,0.8,0.3,1.3,0.4l0.7,0.1c0.7,0.1,1.4,0.3,2,0.5
			c0.6,0.2,1.1,0.5,1.5,1c0.4,0.4,0.5,1,0.5,1.7c0,1-0.4,1.8-1.2,2.4C233.5,114.2,232.5,114.5,231.2,114.5z"/>
		<path class="st0" d="M242.8,114.5c-1,0-1.9-0.2-2.7-0.6s-1.4-1-1.9-1.8c-0.5-0.8-0.7-1.8-0.7-2.9v-0.3c0-1.1,0.2-2.1,0.7-2.9
			c0.5-0.8,1.1-1.4,1.9-1.8c0.8-0.4,1.7-0.6,2.7-0.6s1.8,0.2,2.5,0.5c0.7,0.4,1.3,0.9,1.7,1.5c0.4,0.6,0.7,1.3,0.8,2l-2.1,0.4
			c-0.1-0.5-0.2-0.9-0.4-1.3c-0.2-0.4-0.5-0.7-0.9-0.9s-0.9-0.3-1.5-0.3c-0.6,0-1.1,0.1-1.6,0.4c-0.5,0.3-0.9,0.7-1.1,1.2
			c-0.3,0.5-0.4,1.1-0.4,1.9v0.2c0,0.7,0.1,1.4,0.4,1.9c0.3,0.5,0.7,0.9,1.1,1.2s1,0.4,1.6,0.4c0.9,0,1.6-0.2,2.1-0.7
			c0.5-0.5,0.8-1.1,0.9-1.8l2.1,0.5c-0.2,0.7-0.5,1.4-0.9,2c-0.4,0.6-1,1.1-1.7,1.4S243.8,114.5,242.8,114.5z"/>
		<path class="st0" d="M250.4,114.2V99.5h2.2v5.8h0.3c0.1-0.3,0.3-0.5,0.6-0.8c0.3-0.3,0.6-0.5,1-0.6c0.4-0.2,1-0.2,1.6-0.2
			c0.8,0,1.5,0.2,2.1,0.5c0.6,0.4,1.1,0.8,1.4,1.5c0.4,0.6,0.5,1.4,0.5,2.3v6.2h-2.2v-6.1c0-0.9-0.2-1.6-0.7-2
			c-0.4-0.4-1.1-0.6-1.9-0.6c-0.9,0-1.6,0.3-2.2,0.9s-0.8,1.4-0.8,2.6v5.2H250.4z"/>
		<path class="st0" d="M263.4,114.2V99.5h2.2v14.7H263.4z"/>
		<path class="st0" d="M272,114.5c-0.7,0-1.4-0.1-2-0.4c-0.6-0.3-1-0.6-1.4-1.1c-0.3-0.5-0.5-1.1-0.5-1.8c0-0.7,0.2-1.3,0.5-1.8
			c0.3-0.5,0.8-0.8,1.4-1.1c0.6-0.2,1.3-0.4,2-0.4h3.2v-0.7c0-0.6-0.2-1.1-0.5-1.5c-0.4-0.4-0.9-0.5-1.7-0.5c-0.7,0-1.3,0.2-1.7,0.5
			c-0.4,0.4-0.7,0.8-0.8,1.4l-2-0.7c0.2-0.6,0.4-1.1,0.8-1.5c0.4-0.5,0.9-0.8,1.5-1.1c0.6-0.3,1.4-0.4,2.2-0.4c1.3,0,2.4,0.3,3.2,1
			c0.8,0.7,1.2,1.7,1.2,2.9v4.3c0,0.4,0.2,0.6,0.6,0.6h0.9v1.8h-1.6c-0.5,0-0.9-0.1-1.2-0.4s-0.5-0.6-0.5-1v-0.1h-0.3
			c-0.1,0.2-0.3,0.5-0.5,0.7c-0.2,0.3-0.6,0.5-1,0.7C273.3,114.4,272.7,114.5,272,114.5z M272.3,112.7c0.9,0,1.6-0.2,2.1-0.7
			c0.5-0.5,0.8-1.2,0.8-2.1v-0.2h-3c-0.6,0-1,0.1-1.4,0.4c-0.4,0.2-0.5,0.6-0.5,1.1s0.2,0.9,0.5,1.1
			C271.2,112.6,271.7,112.7,272.3,112.7z"/>
		<path class="st0" d="M280.4,109.1v-0.3c0-1.1,0.2-2,0.7-2.8s1-1.4,1.8-1.8c0.7-0.4,1.5-0.6,2.4-0.6c1,0,1.8,0.2,2.3,0.6
			s0.9,0.8,1.2,1.2h0.3v-1.5h2.1v12.5c0,0.6-0.2,1.1-0.6,1.5c-0.4,0.4-0.9,0.6-1.5,0.6h-7v-1.9h6.3c0.4,0,0.6-0.2,0.6-0.6v-3.3h-0.3
			c-0.2,0.3-0.4,0.5-0.7,0.8c-0.3,0.3-0.6,0.5-1.1,0.7c-0.5,0.2-1,0.3-1.7,0.3c-0.9,0-1.7-0.2-2.4-0.6c-0.7-0.4-1.3-1-1.8-1.8
			S280.4,110.2,280.4,109.1z M285.8,112.4c0.9,0,1.7-0.3,2.3-0.9c0.6-0.6,0.9-1.4,0.9-2.5v-0.2c0-1.1-0.3-1.9-0.9-2.5
			c-0.6-0.6-1.4-0.9-2.3-0.9c-0.9,0-1.7,0.3-2.3,0.9c-0.6,0.6-0.9,1.4-0.9,2.5v0.2c0,1.1,0.3,1.9,0.9,2.5
			C284.1,112.1,284.9,112.4,285.8,112.4z"/>
		<path class="st0" d="M81.5,136.7v-2.2l6.7-2.3v-0.3l-6.7-2.3v-2.2l8.8,3.3v2.7L81.5,136.7z"/>
		<path class="st0" d="M104.2,139.8c-1.1,0-2-0.2-2.9-0.6c-0.8-0.4-1.5-1-2-1.7s-0.7-1.6-0.7-2.7v-0.4h2.2v0.3
			c0,0.9,0.3,1.7,0.9,2.2c0.6,0.5,1.4,0.8,2.4,0.8c1,0,1.8-0.3,2.4-0.8s0.8-1.1,0.8-1.9v-0.2c0-0.5-0.1-1-0.4-1.3s-0.6-0.6-1.1-0.7
			s-1-0.2-1.5-0.2h-2.7v-2.5l5.2-3.1v-0.3H99v-2h10.3v3l-5,2.9v0.3h0.9c0.7,0,1.4,0.1,2.1,0.4c0.7,0.3,1.2,0.7,1.6,1.3
			c0.4,0.6,0.6,1.3,0.6,2.2v0.3c0,0.9-0.2,1.8-0.7,2.5c-0.5,0.7-1.1,1.2-1.9,1.6S105.3,139.8,104.2,139.8z"/>
		<path class="st0" d="M117.4,139.8c-1.7,0-3.1-0.5-4.1-1.5c-1-1-1.5-2.4-1.5-4.4v-3.6c0-1.9,0.5-3.4,1.5-4.4c1-1,2.4-1.5,4.1-1.5
			c1.7,0,3.1,0.5,4.1,1.5c1,1,1.5,2.5,1.5,4.4v3.6c0,2-0.5,3.4-1.5,4.4C120.5,139.3,119.1,139.8,117.4,139.8z M117.4,137.8
			c1.2,0,2-0.3,2.6-1s0.8-1.6,0.8-2.8v-3.8c0-1.2-0.3-2.1-0.9-2.8c-0.6-0.7-1.4-1-2.5-1c-1.1,0-1.9,0.3-2.5,1s-0.9,1.6-0.9,2.8v3.8
			c0,1.2,0.3,2.2,0.9,2.8C115.4,137.5,116.2,137.8,117.4,137.8z"/>
		<path class="st0" d="M125.8,139.5v-10.4h2.1v1.2h0.3c0.2-0.4,0.5-0.7,0.9-1c0.4-0.3,1-0.4,1.8-0.4c0.8,0,1.4,0.2,1.9,0.5
			c0.5,0.3,0.8,0.7,1.1,1.2h0.3c0.2-0.5,0.6-0.9,1-1.2c0.5-0.3,1.1-0.5,1.9-0.5c0.7,0,1.3,0.1,1.8,0.4c0.5,0.3,0.9,0.7,1.2,1.2
			c0.3,0.5,0.5,1.2,0.5,2v6.9h-2.2v-6.7c0-0.6-0.2-1.1-0.5-1.5c-0.3-0.3-0.8-0.5-1.5-0.5c-0.7,0-1.2,0.2-1.6,0.7
			c-0.4,0.4-0.6,1.1-0.6,1.9v6.2h-2.2v-6.7c0-0.6-0.2-1.1-0.5-1.5c-0.3-0.3-0.8-0.5-1.5-0.5c-0.7,0-1.2,0.2-1.6,0.7
			c-0.4,0.4-0.6,1.1-0.6,1.9v6.2H125.8z"/>
		<path class="st0" d="M143.8,139.5v-10.4h2.1v1.2h0.3c0.2-0.4,0.5-0.7,0.9-1c0.4-0.3,1-0.4,1.8-0.4c0.8,0,1.4,0.2,1.9,0.5
			c0.5,0.3,0.8,0.7,1.1,1.2h0.3c0.2-0.5,0.6-0.9,1-1.2c0.5-0.3,1.1-0.5,1.9-0.5c0.7,0,1.3,0.1,1.8,0.4c0.5,0.3,0.9,0.7,1.2,1.2
			c0.3,0.5,0.5,1.2,0.5,2v6.9h-2.2v-6.7c0-0.6-0.2-1.1-0.5-1.5c-0.3-0.3-0.8-0.5-1.5-0.5c-0.7,0-1.2,0.2-1.6,0.7
			c-0.4,0.4-0.6,1.1-0.6,1.9v6.2h-2.2v-6.7c0-0.6-0.2-1.1-0.5-1.5c-0.3-0.3-0.8-0.5-1.5-0.5c-0.7,0-1.2,0.2-1.6,0.7
			c-0.4,0.4-0.6,1.1-0.6,1.9v6.2H143.8z"/>
		<path class="st0" d="M168.3,127.7c-0.4,0-0.8-0.1-1.1-0.4c-0.3-0.3-0.4-0.6-0.4-1.1s0.1-0.8,0.4-1.1c0.3-0.3,0.6-0.4,1.1-0.4
			c0.4,0,0.8,0.1,1.1,0.4c0.3,0.3,0.4,0.6,0.4,1.1s-0.1,0.8-0.4,1.1C169.1,127.6,168.8,127.7,168.3,127.7z M167.3,139.5v-10.4h2.2
			v10.4H167.3z"/>
		<path class="st0" d="M172.6,139.5v-10.4h2.1v1.6h0.3c0.2-0.4,0.5-0.8,1.1-1.2c0.5-0.4,1.3-0.5,2.3-0.5c0.8,0,1.5,0.2,2.1,0.5
			c0.6,0.4,1.1,0.8,1.4,1.5c0.4,0.6,0.5,1.4,0.5,2.3v6.2h-2.2v-6.1c0-0.9-0.2-1.6-0.7-2c-0.4-0.4-1.1-0.6-1.9-0.6
			c-0.9,0-1.6,0.3-2.2,0.9s-0.8,1.4-0.8,2.6v5.2H172.6z"/>
		<path class="st0" d="M195.9,139.8c-1.1,0-2-0.2-2.8-0.6c-0.8-0.4-1.4-1-1.9-1.7c-0.4-0.7-0.7-1.6-0.7-2.6v-5.1
			c0-1.2,0.2-2.1,0.7-2.9c0.5-0.8,1.1-1.4,1.9-1.8c0.8-0.4,1.8-0.6,2.9-0.6c1.1,0,2,0.2,2.8,0.6s1.4,0.9,1.8,1.6
			c0.4,0.7,0.6,1.5,0.6,2.4H199c0-0.7-0.2-1.3-0.7-1.8c-0.5-0.5-1.2-0.7-2.3-0.7c-1.1,0-1.9,0.3-2.4,0.8c-0.6,0.6-0.9,1.3-0.9,2.3
			v1.8h0.3c0.2-0.3,0.6-0.7,1.2-1s1.3-0.5,2.3-0.5c0.9,0,1.7,0.2,2.4,0.6c0.7,0.4,1.3,0.9,1.8,1.6c0.4,0.7,0.7,1.6,0.7,2.5v0.3
			c0,1-0.2,1.8-0.7,2.6c-0.5,0.7-1.1,1.3-1.9,1.7C197.9,139.6,197,139.8,195.9,139.8z M195.9,137.8c1,0,1.8-0.3,2.3-0.8
			c0.6-0.5,0.9-1.2,0.9-2.1v-0.2c0-0.6-0.1-1.1-0.4-1.6c-0.3-0.4-0.6-0.8-1.1-1s-1-0.4-1.7-0.4c-0.6,0-1.2,0.1-1.7,0.4
			s-0.9,0.6-1.1,1c-0.3,0.4-0.4,1-0.4,1.6v0.2c0,0.9,0.3,1.6,0.9,2.1C194.2,137.5,195,137.8,195.9,137.8z"/>
		<path class="st0" d="M209.1,139.8c-1.7,0-3.1-0.5-4.1-1.5c-1-1-1.5-2.4-1.5-4.4v-3.6c0-1.9,0.5-3.4,1.5-4.4c1-1,2.4-1.5,4.1-1.5
			c1.7,0,3.1,0.5,4.1,1.5c1,1,1.5,2.5,1.5,4.4v3.6c0,2-0.5,3.4-1.5,4.4C212.2,139.3,210.8,139.8,209.1,139.8z M209.1,137.8
			c1.2,0,2-0.3,2.6-1s0.8-1.6,0.8-2.8v-3.8c0-1.2-0.3-2.1-0.9-2.8c-0.6-0.7-1.4-1-2.5-1c-1.1,0-1.9,0.3-2.5,1s-0.9,1.6-0.9,2.8v3.8
			c0,1.2,0.3,2.2,0.9,2.8C207.1,137.5,208,137.8,209.1,137.8z"/>
		<path class="st0" d="M217.5,139.5v-10.4h2.1v1.2h0.3c0.2-0.4,0.5-0.7,0.9-1c0.4-0.3,1-0.4,1.8-0.4c0.8,0,1.4,0.2,1.9,0.5
			c0.5,0.3,0.8,0.7,1.1,1.2h0.3c0.2-0.5,0.6-0.9,1-1.2c0.5-0.3,1.1-0.5,1.9-0.5c0.7,0,1.3,0.1,1.8,0.4c0.5,0.3,0.9,0.7,1.2,1.2
			c0.3,0.5,0.5,1.2,0.5,2v6.9h-2.2v-6.7c0-0.6-0.2-1.1-0.5-1.5c-0.3-0.3-0.8-0.5-1.5-0.5c-0.7,0-1.2,0.2-1.6,0.7
			c-0.4,0.4-0.6,1.1-0.6,1.9v6.2h-2.2v-6.7c0-0.6-0.2-1.1-0.5-1.5c-0.3-0.3-0.8-0.5-1.5-0.5c-0.7,0-1.2,0.2-1.6,0.7
			c-0.4,0.4-0.6,1.1-0.6,1.9v6.2H217.5z"/>
		<path class="st0" d="M236.7,127.7c-0.4,0-0.8-0.1-1.1-0.4c-0.3-0.3-0.4-0.6-0.4-1.1s0.1-0.8,0.4-1.1c0.3-0.3,0.6-0.4,1.1-0.4
			c0.4,0,0.8,0.1,1.1,0.4c0.3,0.3,0.4,0.6,0.4,1.1s-0.1,0.8-0.4,1.1C237.4,127.6,237.1,127.7,236.7,127.7z M235.6,139.5v-10.4h2.2
			v10.4H235.6z"/>
		<path class="st0" d="M240.9,139.5v-10.4h2.1v1.6h0.3c0.2-0.4,0.5-0.8,1.1-1.2c0.5-0.4,1.3-0.5,2.3-0.5c0.8,0,1.5,0.2,2.1,0.5
			c0.6,0.4,1.1,0.8,1.4,1.5c0.4,0.6,0.5,1.4,0.5,2.3v6.2h-2.2v-6.1c0-0.9-0.2-1.6-0.7-2c-0.4-0.4-1.1-0.6-1.9-0.6
			c-0.9,0-1.6,0.3-2.2,0.9s-0.8,1.4-0.8,2.6v5.2H240.9z"/>
		<path class="st0" d="M81.5,162v-2.2l6.7-2.3v-0.3l-6.7-2.3v-2.2l8.8,3.3v2.7L81.5,162z"/>
		<path class="st0" d="M103.2,164.8v-13.2h-0.3l-2.4,5h-2.3l3.3-6.5h4v14.7H103.2z"/>
		<path class="st0" d="M113.3,165.1c-1.1,0-2.1-0.2-2.9-0.6c-0.8-0.4-1.4-1-1.9-1.7s-0.7-1.6-0.7-2.6v-0.2h2.3v0.2
			c0,0.9,0.3,1.6,0.8,2.2c0.6,0.5,1.3,0.8,2.3,0.8c1,0,1.8-0.3,2.4-0.8s0.8-1.3,0.8-2.3v-0.2c0-0.9-0.3-1.6-0.8-2.2
			s-1.3-0.8-2.1-0.8c-0.5,0-0.9,0.1-1.2,0.2c-0.3,0.1-0.6,0.3-0.8,0.5c-0.2,0.2-0.3,0.4-0.5,0.6h-2.8V150h9.9v2h-7.7v4.3h0.3
			c0.1-0.2,0.3-0.5,0.6-0.7s0.6-0.4,1-0.5c0.4-0.1,0.9-0.2,1.5-0.2c0.9,0,1.7,0.2,2.4,0.6s1.3,0.9,1.7,1.6c0.4,0.7,0.6,1.6,0.6,2.6
			v0.2c0,1-0.2,1.9-0.7,2.7c-0.4,0.8-1.1,1.3-1.9,1.8S114.5,165.1,113.3,165.1z"/>
		<path class="st0" d="M121.2,164.8v-10.4h2.1v1.2h0.3c0.2-0.4,0.5-0.7,0.9-1c0.4-0.3,1-0.4,1.8-0.4c0.8,0,1.4,0.2,1.9,0.5
			c0.5,0.3,0.8,0.7,1.1,1.2h0.3c0.2-0.5,0.6-0.9,1-1.2c0.5-0.3,1.1-0.5,1.9-0.5c0.7,0,1.3,0.1,1.8,0.4c0.5,0.3,0.9,0.7,1.2,1.2
			c0.3,0.5,0.5,1.2,0.5,2v6.9H134V158c0-0.6-0.2-1.1-0.5-1.5c-0.3-0.3-0.8-0.5-1.5-0.5c-0.7,0-1.2,0.2-1.6,0.7
			c-0.4,0.4-0.6,1.1-0.6,1.9v6.2h-2.2V158c0-0.6-0.2-1.1-0.5-1.5c-0.3-0.3-0.8-0.5-1.5-0.5c-0.7,0-1.2,0.2-1.6,0.7
			c-0.4,0.4-0.6,1.1-0.6,1.9v6.2H121.2z"/>
		<path class="st0" d="M139.3,164.8v-10.4h2.1v1.2h0.3c0.2-0.4,0.5-0.7,0.9-1c0.4-0.3,1-0.4,1.8-0.4c0.8,0,1.4,0.2,1.9,0.5
			c0.5,0.3,0.8,0.7,1.1,1.2h0.3c0.2-0.5,0.6-0.9,1-1.2c0.5-0.3,1.1-0.5,1.9-0.5c0.7,0,1.3,0.1,1.8,0.4c0.5,0.3,0.9,0.7,1.2,1.2
			c0.3,0.5,0.5,1.2,0.5,2v6.9H152V158c0-0.6-0.2-1.1-0.5-1.5c-0.3-0.3-0.8-0.5-1.5-0.5c-0.7,0-1.2,0.2-1.6,0.7
			c-0.4,0.4-0.6,1.1-0.6,1.9v6.2h-2.2V158c0-0.6-0.2-1.1-0.5-1.5c-0.3-0.3-0.8-0.5-1.5-0.5c-0.7,0-1.2,0.2-1.6,0.7
			c-0.4,0.4-0.6,1.1-0.6,1.9v6.2H139.3z"/>
		<path class="st0" d="M163.8,153c-0.4,0-0.8-0.1-1.1-0.4c-0.3-0.3-0.4-0.6-0.4-1.1s0.1-0.8,0.4-1.1c0.3-0.3,0.6-0.4,1.1-0.4
			c0.4,0,0.8,0.1,1.1,0.4c0.3,0.3,0.4,0.6,0.4,1.1s-0.1,0.8-0.4,1.1C164.6,152.8,164.2,153,163.8,153z M162.7,164.8v-10.4h2.2v10.4
			H162.7z"/>
		<path class="st0" d="M168.1,164.8v-10.4h2.1v1.6h0.3c0.2-0.4,0.5-0.8,1.1-1.2c0.5-0.4,1.3-0.5,2.3-0.5c0.8,0,1.5,0.2,2.1,0.5
			c0.6,0.4,1.1,0.8,1.4,1.5c0.4,0.6,0.5,1.4,0.5,2.3v6.2h-2.2v-6.1c0-0.9-0.2-1.6-0.7-2c-0.4-0.4-1.1-0.6-1.9-0.6
			c-0.9,0-1.6,0.3-2.2,0.9s-0.8,1.4-0.8,2.6v5.2H168.1z"/>
		<path class="st0" d="M190.2,164.8v-13.2h-0.3l-2.4,5h-2.3l3.3-6.5h4v14.7H190.2z"/>
		<path class="st0" d="M200.7,165.1c-1.7,0-3.1-0.5-4.1-1.5c-1-1-1.5-2.4-1.5-4.4v-3.6c0-1.9,0.5-3.4,1.5-4.4c1-1,2.4-1.5,4.1-1.5
			c1.7,0,3.1,0.5,4.1,1.5c1,1,1.5,2.5,1.5,4.4v3.6c0,2-0.5,3.4-1.5,4.4C203.8,164.6,202.5,165.1,200.7,165.1z M200.7,163.1
			c1.2,0,2-0.3,2.6-1s0.8-1.6,0.8-2.8v-3.8c0-1.2-0.3-2.1-0.9-2.8c-0.6-0.7-1.4-1-2.5-1c-1.1,0-1.9,0.3-2.5,1s-0.9,1.6-0.9,2.8v3.8
			c0,1.2,0.3,2.2,0.9,2.8C198.8,162.7,199.6,163.1,200.7,163.1z"/>
		<path class="st0" d="M209.1,164.8v-10.4h2.1v1.2h0.3c0.2-0.4,0.5-0.7,0.9-1c0.4-0.3,1-0.4,1.8-0.4c0.8,0,1.4,0.2,1.9,0.5
			c0.5,0.3,0.8,0.7,1.1,1.2h0.3c0.2-0.5,0.6-0.9,1-1.2c0.5-0.3,1.1-0.5,1.9-0.5c0.7,0,1.3,0.1,1.8,0.4c0.5,0.3,0.9,0.7,1.2,1.2
			c0.3,0.5,0.5,1.2,0.5,2v6.9h-2.2V158c0-0.6-0.2-1.1-0.5-1.5c-0.3-0.3-0.8-0.5-1.5-0.5c-0.7,0-1.2,0.2-1.6,0.7
			c-0.4,0.4-0.6,1.1-0.6,1.9v6.2h-2.2V158c0-0.6-0.2-1.1-0.5-1.5c-0.3-0.3-0.8-0.5-1.5-0.5c-0.7,0-1.2,0.2-1.6,0.7
			c-0.4,0.4-0.6,1.1-0.6,1.9v6.2H209.1z"/>
		<path class="st0" d="M228.3,153c-0.4,0-0.8-0.1-1.1-0.4c-0.3-0.3-0.4-0.6-0.4-1.1s0.1-0.8,0.4-1.1c0.3-0.3,0.6-0.4,1.1-0.4
			c0.4,0,0.8,0.1,1.1,0.4c0.3,0.3,0.4,0.6,0.4,1.1s-0.1,0.8-0.4,1.1C229.1,152.8,228.7,153,228.3,153z M227.2,164.8v-10.4h2.2v10.4
			H227.2z"/>
		<path class="st0" d="M232.6,164.8v-10.4h2.1v1.6h0.3c0.2-0.4,0.5-0.8,1.1-1.2c0.5-0.4,1.3-0.5,2.3-0.5c0.8,0,1.5,0.2,2.1,0.5
			c0.6,0.4,1.1,0.8,1.4,1.5c0.4,0.6,0.5,1.4,0.5,2.3v6.2h-2.2v-6.1c0-0.9-0.2-1.6-0.7-2c-0.4-0.4-1.1-0.6-1.9-0.6
			c-0.9,0-1.6,0.3-2.2,0.9s-0.8,1.4-0.8,2.6v5.2H232.6z"/>
	</g>
</g>
<g>
	<g>
		<path class="st0" d="M85.9,213.5c-1.1,0-2.1-0.2-2.9-0.6s-1.5-1-2-1.7s-0.7-1.7-0.7-2.8v-0.5h2.3v0.5c0,1,0.3,1.8,0.9,2.3
			s1.5,0.8,2.5,0.8c1.1,0,1.8-0.2,2.4-0.7c0.5-0.4,0.8-1,0.8-1.7c0-0.5-0.1-0.8-0.4-1.1s-0.6-0.5-1.1-0.7c-0.5-0.2-1-0.3-1.7-0.5
			l-0.8-0.2c-0.9-0.2-1.8-0.5-2.5-0.8c-0.7-0.3-1.2-0.8-1.6-1.3c-0.4-0.5-0.6-1.2-0.6-2.1c0-0.9,0.2-1.6,0.6-2.2
			c0.4-0.6,1-1.1,1.8-1.4c0.8-0.3,1.7-0.5,2.7-0.5c1,0,1.9,0.2,2.7,0.5c0.8,0.4,1.4,0.9,1.9,1.6c0.5,0.7,0.7,1.6,0.7,2.6v0.8h-2.3
			v-0.8c0-0.6-0.1-1.1-0.4-1.5c-0.3-0.4-0.6-0.7-1.1-0.9c-0.5-0.2-1-0.3-1.6-0.3c-0.9,0-1.6,0.2-2.1,0.6s-0.7,0.9-0.7,1.5
			c0,0.4,0.1,0.8,0.3,1.1c0.2,0.3,0.5,0.5,1,0.7c0.4,0.2,0.9,0.3,1.6,0.5l0.8,0.2c1,0.2,1.8,0.5,2.5,0.8c0.7,0.3,1.3,0.8,1.7,1.3
			c0.4,0.6,0.6,1.3,0.6,2.2c0,0.9-0.2,1.7-0.7,2.3s-1.1,1.2-1.9,1.5C88,213.4,87.1,213.5,85.9,213.5z"/>
		<path class="st0" d="M98.6,213.5c-1.1,0-2-0.2-2.8-0.7c-0.8-0.4-1.4-1.1-1.8-1.9s-0.7-1.7-0.7-2.8v-0.3c0-1.1,0.2-2,0.7-2.8
			c0.4-0.8,1-1.4,1.8-1.9s1.7-0.7,2.7-0.7c1,0,1.9,0.2,2.6,0.7s1.3,1.1,1.8,1.8c0.4,0.8,0.6,1.7,0.6,2.8v0.8h-8
			c0,0.9,0.3,1.6,0.9,2.2c0.6,0.5,1.3,0.8,2.2,0.8c0.8,0,1.4-0.2,1.8-0.5s0.7-0.8,1-1.3l1.8,0.9c-0.2,0.4-0.5,0.8-0.9,1.2
			c-0.4,0.4-0.9,0.8-1.5,1.1C100.3,213.4,99.5,213.5,98.6,213.5z M95.6,207h5.8c-0.1-0.8-0.3-1.4-0.8-1.8c-0.5-0.4-1.2-0.7-2-0.7
			s-1.5,0.2-2,0.7S95.7,206.2,95.6,207z"/>
		<path class="st0" d="M106.1,213.2v-14.7h2.2v5.8h0.3c0.1-0.3,0.3-0.5,0.6-0.8c0.3-0.3,0.6-0.5,1-0.6c0.4-0.2,1-0.2,1.6-0.2
			c0.8,0,1.5,0.2,2.1,0.5c0.6,0.4,1.1,0.8,1.4,1.5c0.4,0.6,0.5,1.4,0.5,2.3v6.2h-2.2v-6.1c0-0.9-0.2-1.6-0.7-2
			c-0.5-0.4-1.1-0.6-1.9-0.6c-0.9,0-1.6,0.3-2.2,0.9c-0.5,0.6-0.8,1.4-0.8,2.6v5.2H106.1z"/>
		<path class="st0" d="M119.1,213.2v-10.4h2.1v1.2h0.3c0.2-0.4,0.4-0.8,0.8-1c0.4-0.2,0.8-0.3,1.4-0.3h1.2v2h-1.3
			c-0.7,0-1.3,0.2-1.7,0.6c-0.4,0.4-0.7,1-0.7,1.8v6.1H119.1z"/>
		<path class="st0" d="M136.9,213.5c-1.3,0-2.4-0.3-3.3-0.9s-1.4-1.5-1.6-2.7l2-0.5c0.1,0.6,0.3,1,0.6,1.4s0.6,0.6,1,0.7
			c0.4,0.1,0.8,0.2,1.3,0.2c0.7,0,1.2-0.1,1.6-0.4c0.4-0.3,0.6-0.6,0.6-1s-0.2-0.7-0.5-0.9c-0.4-0.2-0.9-0.4-1.6-0.5l-0.7-0.1
			c-0.7-0.1-1.3-0.3-1.9-0.5c-0.6-0.2-1-0.6-1.4-1c-0.3-0.4-0.5-1-0.5-1.6c0-1,0.4-1.7,1.1-2.3c0.7-0.5,1.7-0.8,2.9-0.8
			c1.2,0,2.1,0.3,2.9,0.8c0.8,0.5,1.2,1.2,1.5,2.1l-2,0.6c-0.1-0.6-0.4-1.1-0.8-1.3c-0.4-0.3-0.9-0.4-1.5-0.4
			c-0.6,0-1.1,0.1-1.4,0.3s-0.5,0.5-0.5,0.9c0,0.4,0.2,0.7,0.5,0.9c0.3,0.2,0.8,0.3,1.3,0.4l0.7,0.1c0.7,0.1,1.4,0.3,2,0.5
			c0.6,0.2,1.1,0.5,1.5,1c0.4,0.4,0.5,1,0.5,1.7c0,1-0.4,1.8-1.2,2.4C139.2,213.3,138.2,213.5,136.9,213.5z"/>
		<path class="st0" d="M147.6,213.2c-0.6,0-1.1-0.2-1.5-0.6c-0.4-0.4-0.6-0.9-0.6-1.5v-6.5h-2.9v-1.8h2.9v-3.4h2.2v3.4h3.1v1.8h-3.1
			v6.1c0,0.4,0.2,0.6,0.6,0.6h2.2v1.8H147.6z"/>
		<path class="st0" d="M156.5,213.5c-0.7,0-1.4-0.1-2-0.4c-0.6-0.3-1-0.6-1.4-1.1c-0.3-0.5-0.5-1.1-0.5-1.8c0-0.7,0.2-1.3,0.5-1.8
			c0.3-0.5,0.8-0.8,1.4-1.1c0.6-0.2,1.3-0.4,2-0.4h3.2v-0.7c0-0.6-0.2-1.1-0.5-1.5c-0.4-0.4-0.9-0.5-1.7-0.5c-0.7,0-1.3,0.2-1.7,0.5
			c-0.4,0.4-0.7,0.8-0.8,1.4l-2-0.7c0.2-0.6,0.4-1.1,0.8-1.5c0.4-0.5,0.9-0.8,1.5-1.1c0.6-0.3,1.4-0.4,2.2-0.4c1.3,0,2.4,0.3,3.2,1
			c0.8,0.7,1.2,1.7,1.2,2.9v4.3c0,0.4,0.2,0.6,0.6,0.6h0.9v1.8h-1.6c-0.5,0-0.9-0.1-1.2-0.4s-0.5-0.6-0.5-1v-0.1h-0.3
			c-0.1,0.2-0.3,0.5-0.5,0.7c-0.2,0.3-0.6,0.5-1,0.7C157.8,213.4,157.2,213.5,156.5,213.5z M156.8,211.8c0.9,0,1.6-0.2,2.1-0.7
			c0.5-0.5,0.8-1.2,0.8-2.1v-0.2h-3c-0.6,0-1,0.1-1.4,0.4c-0.4,0.2-0.5,0.6-0.5,1.1s0.2,0.9,0.5,1.1
			C155.7,211.6,156.2,211.8,156.8,211.8z"/>
		<path class="st0" d="M165.5,213.2v-10.4h2.1v1.2h0.3c0.2-0.4,0.4-0.8,0.8-1c0.4-0.2,0.8-0.3,1.4-0.3h1.2v2H170
			c-0.7,0-1.3,0.2-1.7,0.6c-0.4,0.4-0.7,1-0.7,1.8v6.1H165.5z"/>
		<path class="st0" d="M173.6,213.2v-14.7h2.2v8.4h0.3l4.1-4h2.9l-5.2,5l5.4,5.3h-2.9l-4.3-4.3h-0.3v4.3H173.6z"/>
		<path class="st0" d="M190,213.5c-1.1,0-2-0.2-2.8-0.7c-0.8-0.4-1.4-1.1-1.8-1.9s-0.7-1.7-0.7-2.8v-0.3c0-1.1,0.2-2,0.7-2.8
			s1-1.4,1.8-1.9s1.7-0.7,2.7-0.7c1,0,1.9,0.2,2.6,0.7c0.8,0.4,1.3,1.1,1.8,1.8c0.4,0.8,0.6,1.7,0.6,2.8v0.8h-8
			c0,0.9,0.3,1.6,0.9,2.2c0.6,0.5,1.3,0.8,2.2,0.8c0.8,0,1.4-0.2,1.8-0.5s0.7-0.8,1-1.3l1.8,0.9c-0.2,0.4-0.5,0.8-0.9,1.2
			c-0.4,0.4-0.9,0.8-1.5,1.1S190.9,213.5,190,213.5z M186.9,207h5.8c-0.1-0.8-0.3-1.4-0.8-1.8c-0.5-0.4-1.2-0.7-2-0.7
			s-1.5,0.2-2,0.7C187.4,205.6,187.1,206.2,186.9,207z"/>
		<path class="st0" d="M197.5,213.2v-10.4h2.1v1.2h0.3c0.2-0.4,0.4-0.8,0.8-1c0.4-0.2,0.8-0.3,1.4-0.3h1.2v2h-1.3
			c-0.7,0-1.3,0.2-1.7,0.6c-0.4,0.4-0.7,1-0.7,1.8v6.1H197.5z"/>
		<path class="st0" d="M211,213.2v-14.7h4.4l4,13.2h0.3v-13.2h2.3v14.7h-4.4l-4-13.2h-0.3v13.2H211z"/>
		<path class="st0" d="M226.2,201.5c-0.4,0-0.8-0.1-1.1-0.4c-0.3-0.3-0.4-0.6-0.4-1.1s0.1-0.8,0.4-1.1c0.3-0.3,0.6-0.4,1.1-0.4
			c0.4,0,0.8,0.1,1.1,0.4c0.3,0.3,0.4,0.6,0.4,1.1s-0.1,0.8-0.4,1.1C227,201.3,226.6,201.5,226.2,201.5z M225.1,213.2v-10.4h2.2
			v10.4H225.1z"/>
		<path class="st0" d="M235.2,213.5c-1.1,0-2-0.2-2.8-0.7c-0.8-0.4-1.4-1.1-1.8-1.9s-0.7-1.7-0.7-2.8v-0.3c0-1.1,0.2-2,0.7-2.8
			s1-1.4,1.8-1.9s1.7-0.7,2.7-0.7c1,0,1.9,0.2,2.6,0.7c0.8,0.4,1.3,1.1,1.8,1.8c0.4,0.8,0.6,1.7,0.6,2.8v0.8h-8
			c0,0.9,0.3,1.6,0.9,2.2c0.6,0.5,1.3,0.8,2.2,0.8c0.8,0,1.4-0.2,1.8-0.5s0.7-0.8,1-1.3l1.8,0.9c-0.2,0.4-0.5,0.8-0.9,1.2
			c-0.4,0.4-0.9,0.8-1.5,1.1S236.2,213.5,235.2,213.5z M232.2,207h5.8c-0.1-0.8-0.3-1.4-0.8-1.8c-0.5-0.4-1.2-0.7-2-0.7
			s-1.5,0.2-2,0.7C232.6,205.6,232.3,206.2,232.2,207z"/>
		<path class="st0" d="M247.1,213.5c-0.9,0-1.7-0.2-2.4-0.6c-0.7-0.4-1.3-1-1.8-1.8c-0.4-0.8-0.7-1.8-0.7-2.9v-0.3
			c0-1.1,0.2-2.1,0.7-2.9c0.4-0.8,1-1.4,1.7-1.8c0.7-0.4,1.5-0.6,2.4-0.6c0.7,0,1.2,0.1,1.7,0.3c0.5,0.2,0.8,0.4,1.1,0.6
			c0.3,0.3,0.5,0.5,0.7,0.8h0.3v-5.8h2.2v14.7H251v-1.5h-0.3c-0.3,0.5-0.7,0.9-1.2,1.2C248.9,213.4,248.1,213.5,247.1,213.5z
			 M247.7,211.6c0.9,0,1.7-0.3,2.3-0.9c0.6-0.6,0.9-1.5,0.9-2.6V208c0-1.1-0.3-2-0.9-2.6c-0.6-0.6-1.4-0.9-2.3-0.9
			c-0.9,0-1.7,0.3-2.3,0.9c-0.6,0.6-0.9,1.5-0.9,2.6v0.2c0,1.1,0.3,2,0.9,2.6C246,211.3,246.8,211.6,247.7,211.6z"/>
		<path class="st0" d="M261,213.5c-1.1,0-2-0.2-2.8-0.7c-0.8-0.4-1.4-1.1-1.8-1.9c-0.4-0.8-0.7-1.7-0.7-2.8v-0.3
			c0-1.1,0.2-2,0.7-2.8c0.4-0.8,1-1.4,1.8-1.9s1.7-0.7,2.7-0.7c1,0,1.9,0.2,2.6,0.7c0.8,0.4,1.3,1.1,1.8,1.8
			c0.4,0.8,0.6,1.7,0.6,2.8v0.8h-8c0,0.9,0.3,1.6,0.9,2.2c0.6,0.5,1.3,0.8,2.2,0.8c0.8,0,1.4-0.2,1.8-0.5s0.7-0.8,1-1.3l1.8,0.9
			c-0.2,0.4-0.5,0.8-0.9,1.2c-0.4,0.4-0.9,0.8-1.5,1.1S262,213.5,261,213.5z M258,207h5.8c-0.1-0.8-0.3-1.4-0.8-1.8
			c-0.5-0.4-1.2-0.7-2-0.7s-1.5,0.2-2,0.7C258.4,205.6,258.1,206.2,258,207z"/>
		<path class="st0" d="M268.6,213.2v-10.4h2.1v1.2h0.3c0.2-0.4,0.4-0.8,0.8-1c0.4-0.2,0.8-0.3,1.4-0.3h1.2v2h-1.3
			c-0.7,0-1.3,0.2-1.7,0.6c-0.4,0.4-0.7,1-0.7,1.8v6.1H268.6z"/>
		<path class="st0" d="M281,213.5c-1.3,0-2.4-0.3-3.3-0.9c-0.9-0.6-1.4-1.5-1.6-2.7l2-0.5c0.1,0.6,0.3,1,0.6,1.4s0.6,0.6,1,0.7
			c0.4,0.1,0.8,0.2,1.3,0.2c0.7,0,1.2-0.1,1.6-0.4c0.4-0.3,0.6-0.6,0.6-1s-0.2-0.7-0.5-0.9c-0.4-0.2-0.9-0.4-1.6-0.5l-0.7-0.1
			c-0.7-0.1-1.3-0.3-1.9-0.5c-0.6-0.2-1-0.6-1.4-1s-0.5-1-0.5-1.6c0-1,0.4-1.7,1.1-2.3c0.7-0.5,1.7-0.8,2.9-0.8
			c1.2,0,2.1,0.3,2.9,0.8c0.8,0.5,1.2,1.2,1.5,2.1l-2,0.6c-0.1-0.6-0.4-1.1-0.8-1.3c-0.4-0.3-0.9-0.4-1.5-0.4
			c-0.6,0-1.1,0.1-1.4,0.3s-0.5,0.5-0.5,0.9c0,0.4,0.2,0.7,0.5,0.9c0.3,0.2,0.8,0.3,1.3,0.4l0.7,0.1c0.7,0.1,1.4,0.3,2,0.5
			c0.6,0.2,1.1,0.5,1.5,1c0.4,0.4,0.5,1,0.5,1.7c0,1-0.4,1.8-1.2,2.4C283.3,213.3,282.3,213.5,281,213.5z"/>
		<path class="st0" d="M292.6,213.5c-1,0-1.9-0.2-2.7-0.6s-1.4-1-1.9-1.8c-0.5-0.8-0.7-1.8-0.7-2.9v-0.3c0-1.1,0.2-2.1,0.7-2.9
			c0.5-0.8,1.1-1.4,1.9-1.8c0.8-0.4,1.7-0.6,2.7-0.6s1.8,0.2,2.5,0.5c0.7,0.4,1.3,0.9,1.7,1.5c0.4,0.6,0.7,1.3,0.8,2l-2.1,0.4
			c-0.1-0.5-0.2-0.9-0.4-1.3c-0.2-0.4-0.5-0.7-0.9-0.9s-0.9-0.3-1.5-0.3c-0.6,0-1.1,0.1-1.6,0.4c-0.5,0.3-0.9,0.7-1.1,1.2
			c-0.3,0.5-0.4,1.1-0.4,1.9v0.2c0,0.7,0.1,1.4,0.4,1.9c0.3,0.5,0.7,0.9,1.1,1.2s1,0.4,1.6,0.4c0.9,0,1.6-0.2,2.1-0.7
			c0.5-0.5,0.8-1.1,0.9-1.8l2.1,0.5c-0.2,0.7-0.5,1.4-0.9,2c-0.4,0.6-1,1.1-1.7,1.4S293.6,213.5,292.6,213.5z"/>
		<path class="st0" d="M300.3,213.2v-14.7h2.2v5.8h0.3c0.1-0.3,0.3-0.5,0.6-0.8c0.3-0.3,0.6-0.5,1-0.6c0.4-0.2,1-0.2,1.6-0.2
			c0.8,0,1.5,0.2,2.1,0.5c0.6,0.4,1.1,0.8,1.4,1.5c0.4,0.6,0.5,1.4,0.5,2.3v6.2h-2.2v-6.1c0-0.9-0.2-1.6-0.7-2
			c-0.4-0.4-1.1-0.6-1.9-0.6c-0.9,0-1.6,0.3-2.2,0.9s-0.8,1.4-0.8,2.6v5.2H300.3z"/>
		<path class="st0" d="M313.2,213.2v-14.7h2.2v14.7H313.2z"/>
		<path class="st0" d="M321.8,213.5c-0.7,0-1.4-0.1-2-0.4c-0.6-0.3-1-0.6-1.4-1.1c-0.3-0.5-0.5-1.1-0.5-1.8c0-0.7,0.2-1.3,0.5-1.8
			c0.3-0.5,0.8-0.8,1.4-1.1c0.6-0.2,1.3-0.4,2-0.4h3.2v-0.7c0-0.6-0.2-1.1-0.5-1.5c-0.4-0.4-0.9-0.5-1.7-0.5c-0.7,0-1.3,0.2-1.7,0.5
			c-0.4,0.4-0.7,0.8-0.8,1.4l-2-0.7c0.2-0.6,0.4-1.1,0.8-1.5c0.4-0.5,0.9-0.8,1.5-1.1c0.6-0.3,1.4-0.4,2.2-0.4c1.3,0,2.4,0.3,3.2,1
			c0.8,0.7,1.2,1.7,1.2,2.9v4.3c0,0.4,0.2,0.6,0.6,0.6h0.9v1.8H327c-0.5,0-0.9-0.1-1.2-0.4s-0.5-0.6-0.5-1v-0.1h-0.3
			c-0.1,0.2-0.3,0.5-0.5,0.7c-0.2,0.3-0.6,0.5-1,0.7C323.1,213.4,322.5,213.5,321.8,213.5z M322.1,211.8c0.9,0,1.6-0.2,2.1-0.7
			c0.5-0.5,0.8-1.2,0.8-2.1v-0.2h-3c-0.6,0-1,0.1-1.4,0.4c-0.4,0.2-0.5,0.6-0.5,1.1s0.2,0.9,0.5,1.1
			C321,211.6,321.5,211.8,322.1,211.8z"/>
		<path class="st0" d="M330.3,208.1v-0.3c0-1.1,0.2-2,0.7-2.8s1-1.4,1.8-1.8c0.7-0.4,1.5-0.6,2.4-0.6c1,0,1.8,0.2,2.3,0.6
			s0.9,0.8,1.2,1.2h0.3v-1.5h2.1v12.5c0,0.6-0.2,1.1-0.6,1.5c-0.4,0.4-0.9,0.6-1.5,0.6h-7v-1.9h6.3c0.4,0,0.6-0.2,0.6-0.6v-3.3h-0.3
			c-0.2,0.3-0.4,0.5-0.7,0.8c-0.3,0.3-0.6,0.5-1.1,0.7c-0.5,0.2-1,0.3-1.7,0.3c-0.9,0-1.7-0.2-2.4-0.6c-0.7-0.4-1.3-1-1.8-1.8
			S330.3,209.2,330.3,208.1z M335.7,211.4c0.9,0,1.7-0.3,2.3-0.9c0.6-0.6,0.9-1.4,0.9-2.5v-0.2c0-1.1-0.3-1.9-0.9-2.5
			c-0.6-0.6-1.4-0.9-2.3-0.9c-0.9,0-1.7,0.3-2.3,0.9c-0.6,0.6-0.9,1.4-0.9,2.5v0.2c0,1.1,0.3,1.9,0.9,2.5
			C334,211.1,334.7,211.4,335.7,211.4z"/>
		<path class="st0" d="M81.5,235.8v-2.2l6.7-2.3V231l-6.7-2.3v-2.2l8.8,3.3v2.7L81.5,235.8z"/>
		<path class="st0" d="M104.2,238.8c-1.1,0-2.1-0.2-2.9-0.6c-0.8-0.4-1.4-1-1.9-1.7s-0.7-1.6-0.7-2.6v-0.2h2.3v0.2
			c0,0.9,0.3,1.6,0.8,2.2c0.6,0.5,1.3,0.8,2.3,0.8c1,0,1.8-0.3,2.4-0.8s0.8-1.3,0.8-2.3v-0.2c0-0.9-0.3-1.6-0.8-2.2
			s-1.3-0.8-2.1-0.8c-0.5,0-0.9,0.1-1.2,0.2c-0.3,0.1-0.6,0.3-0.8,0.5c-0.2,0.2-0.3,0.4-0.5,0.6h-2.8v-8.1h9.9v2h-7.7v4.3h0.3
			c0.1-0.2,0.3-0.5,0.6-0.7s0.6-0.4,1-0.5c0.4-0.1,0.9-0.2,1.5-0.2c0.9,0,1.7,0.2,2.4,0.6s1.3,0.9,1.7,1.6c0.4,0.7,0.6,1.6,0.6,2.6
			v0.2c0,1-0.2,1.9-0.7,2.7c-0.4,0.8-1.1,1.3-1.9,1.8S105.3,238.8,104.2,238.8z"/>
		<path class="st0" d="M117.2,238.8c-1.7,0-3.1-0.5-4.1-1.5c-1-1-1.5-2.4-1.5-4.4v-3.6c0-1.9,0.5-3.4,1.5-4.4c1-1,2.4-1.5,4.1-1.5
			c1.7,0,3.1,0.5,4.1,1.5c1,1,1.5,2.5,1.5,4.4v3.6c0,2-0.5,3.4-1.5,4.4C120.3,238.3,119,238.8,117.2,238.8z M117.2,236.8
			c1.2,0,2-0.3,2.6-1s0.8-1.6,0.8-2.8v-3.8c0-1.2-0.3-2.1-0.9-2.8c-0.6-0.7-1.4-1-2.5-1c-1.1,0-1.9,0.3-2.5,1s-0.9,1.6-0.9,2.8v3.8
			c0,1.2,0.3,2.2,0.9,2.8C115.2,236.5,116.1,236.8,117.2,236.8z"/>
		<path class="st0" d="M125.6,238.5v-10.4h2.1v1.2h0.3c0.2-0.4,0.5-0.7,0.9-1c0.4-0.3,1-0.4,1.8-0.4c0.8,0,1.4,0.2,1.9,0.5
			c0.5,0.3,0.8,0.7,1.1,1.2h0.3c0.2-0.5,0.6-0.9,1-1.2c0.5-0.3,1.1-0.5,1.9-0.5c0.7,0,1.3,0.1,1.8,0.4c0.5,0.3,0.9,0.7,1.2,1.2
			c0.3,0.5,0.5,1.2,0.5,2v6.9h-2.2v-6.7c0-0.6-0.2-1.1-0.5-1.5c-0.3-0.3-0.8-0.5-1.5-0.5c-0.7,0-1.2,0.2-1.6,0.7
			c-0.4,0.4-0.6,1.1-0.6,1.9v6.2H132v-6.7c0-0.6-0.2-1.1-0.5-1.5c-0.3-0.3-0.8-0.5-1.5-0.5c-0.7,0-1.2,0.2-1.6,0.7
			c-0.4,0.4-0.6,1.1-0.6,1.9v6.2H125.6z"/>
		<path class="st0" d="M143.7,238.5v-10.4h2.1v1.2h0.3c0.2-0.4,0.5-0.7,0.9-1c0.4-0.3,1-0.4,1.8-0.4c0.8,0,1.4,0.2,1.9,0.5
			c0.5,0.3,0.8,0.7,1.1,1.2h0.3c0.2-0.5,0.6-0.9,1-1.2c0.5-0.3,1.1-0.5,1.9-0.5c0.7,0,1.3,0.1,1.8,0.4c0.5,0.3,0.9,0.7,1.2,1.2
			c0.3,0.5,0.5,1.2,0.5,2v6.9h-2.2v-6.7c0-0.6-0.2-1.1-0.5-1.5c-0.3-0.3-0.8-0.5-1.5-0.5c-0.7,0-1.2,0.2-1.6,0.7
			c-0.4,0.4-0.6,1.1-0.6,1.9v6.2h-2.2v-6.7c0-0.6-0.2-1.1-0.5-1.5c-0.3-0.3-0.8-0.5-1.5-0.5c-0.7,0-1.2,0.2-1.6,0.7
			c-0.4,0.4-0.6,1.1-0.6,1.9v6.2H143.7z"/>
		<path class="st0" d="M168.2,226.7c-0.4,0-0.8-0.1-1.1-0.4c-0.3-0.3-0.4-0.6-0.4-1.1s0.1-0.8,0.4-1.1c0.3-0.3,0.6-0.4,1.1-0.4
			c0.4,0,0.8,0.1,1.1,0.4c0.3,0.3,0.4,0.6,0.4,1.1s-0.1,0.8-0.4,1.1C169,226.6,168.6,226.7,168.2,226.7z M167.1,238.5v-10.4h2.2
			v10.4H167.1z"/>
		<path class="st0" d="M172.5,238.5v-10.4h2.1v1.6h0.3c0.2-0.4,0.5-0.8,1.1-1.2c0.5-0.4,1.3-0.5,2.3-0.5c0.8,0,1.5,0.2,2.1,0.5
			c0.6,0.4,1.1,0.8,1.4,1.5c0.4,0.6,0.5,1.4,0.5,2.3v6.2h-2.2v-6.1c0-0.9-0.2-1.6-0.7-2c-0.4-0.4-1.1-0.6-1.9-0.6
			c-0.9,0-1.6,0.3-2.2,0.9s-0.8,1.4-0.8,2.6v5.2H172.5z"/>
		<path class="st0" d="M195.8,238.8c-1.1,0-2-0.2-2.8-0.6c-0.8-0.4-1.4-1-1.9-1.7c-0.4-0.7-0.7-1.6-0.7-2.6v-5.1
			c0-1.2,0.2-2.1,0.7-2.9c0.5-0.8,1.1-1.4,1.9-1.8c0.8-0.4,1.8-0.6,2.9-0.6c1.1,0,2,0.2,2.8,0.6s1.4,0.9,1.8,1.6
			c0.4,0.7,0.6,1.5,0.6,2.4h-2.2c0-0.7-0.2-1.3-0.7-1.8c-0.5-0.5-1.2-0.7-2.3-0.7c-1.1,0-1.9,0.3-2.4,0.8c-0.6,0.6-0.9,1.3-0.9,2.3
			v1.8h0.3c0.2-0.3,0.6-0.7,1.2-1s1.3-0.5,2.3-0.5c0.9,0,1.7,0.2,2.4,0.6c0.7,0.4,1.3,0.9,1.8,1.6c0.4,0.7,0.7,1.6,0.7,2.5v0.3
			c0,1-0.2,1.8-0.7,2.6c-0.5,0.7-1.1,1.3-1.9,1.7C197.8,238.6,196.8,238.8,195.8,238.8z M195.8,236.8c1,0,1.8-0.3,2.3-0.8
			c0.6-0.5,0.9-1.2,0.9-2.1v-0.2c0-0.6-0.1-1.1-0.4-1.6c-0.3-0.4-0.6-0.8-1.1-1s-1-0.4-1.7-0.4c-0.6,0-1.2,0.1-1.7,0.4
			s-0.9,0.6-1.1,1c-0.3,0.4-0.4,1-0.4,1.6v0.2c0,0.9,0.3,1.6,0.9,2.1C194,236.6,194.8,236.8,195.8,236.8z"/>
		<path class="st0" d="M209,238.8c-1.7,0-3.1-0.5-4.1-1.5c-1-1-1.5-2.4-1.5-4.4v-3.6c0-1.9,0.5-3.4,1.5-4.4c1-1,2.4-1.5,4.1-1.5
			c1.7,0,3.1,0.5,4.1,1.5c1,1,1.5,2.5,1.5,4.4v3.6c0,2-0.5,3.4-1.5,4.4C212.1,238.3,210.7,238.8,209,238.8z M209,236.8
			c1.2,0,2-0.3,2.6-1s0.8-1.6,0.8-2.8v-3.8c0-1.2-0.3-2.1-0.9-2.8c-0.6-0.7-1.4-1-2.5-1c-1.1,0-1.9,0.3-2.5,1s-0.9,1.6-0.9,2.8v3.8
			c0,1.2,0.3,2.2,0.9,2.8C207,236.5,207.8,236.8,209,236.8z"/>
		<path class="st0" d="M217.4,238.5v-10.4h2.1v1.2h0.3c0.2-0.4,0.5-0.7,0.9-1c0.4-0.3,1-0.4,1.8-0.4c0.8,0,1.4,0.2,1.9,0.5
			c0.5,0.3,0.8,0.7,1.1,1.2h0.3c0.2-0.5,0.6-0.9,1-1.2c0.5-0.3,1.1-0.5,1.9-0.5c0.7,0,1.3,0.1,1.8,0.4c0.5,0.3,0.9,0.7,1.2,1.2
			c0.3,0.5,0.5,1.2,0.5,2v6.9h-2.2v-6.7c0-0.6-0.2-1.1-0.5-1.5c-0.3-0.3-0.8-0.5-1.5-0.5c-0.7,0-1.2,0.2-1.6,0.7
			c-0.4,0.4-0.6,1.1-0.6,1.9v6.2h-2.2v-6.7c0-0.6-0.2-1.1-0.5-1.5c-0.3-0.3-0.8-0.5-1.5-0.5c-0.7,0-1.2,0.2-1.6,0.7
			c-0.4,0.4-0.6,1.1-0.6,1.9v6.2H217.4z"/>
		<path class="st0" d="M236.5,226.7c-0.4,0-0.8-0.1-1.1-0.4c-0.3-0.3-0.4-0.6-0.4-1.1s0.1-0.8,0.4-1.1c0.3-0.3,0.6-0.4,1.1-0.4
			c0.4,0,0.8,0.1,1.1,0.4c0.3,0.3,0.4,0.6,0.4,1.1s-0.1,0.8-0.4,1.1C237.3,226.6,236.9,226.7,236.5,226.7z M235.4,238.5v-10.4h2.2
			v10.4H235.4z"/>
		<path class="st0" d="M240.8,238.5v-10.4h2.1v1.6h0.3c0.2-0.4,0.5-0.8,1.1-1.2c0.5-0.4,1.3-0.5,2.3-0.5c0.8,0,1.5,0.2,2.1,0.5
			c0.6,0.4,1.1,0.8,1.4,1.5c0.4,0.6,0.5,1.4,0.5,2.3v6.2h-2.2v-6.1c0-0.9-0.2-1.6-0.7-2c-0.4-0.4-1.1-0.6-1.9-0.6
			c-0.9,0-1.6,0.3-2.2,0.9s-0.8,1.4-0.8,2.6v5.2H240.8z"/>
		<path class="st0" d="M81.5,261.1v-2.2l6.7-2.3v-0.3l-6.7-2.3v-2.2l8.8,3.3v2.7L81.5,261.1z"/>
		<path class="st0" d="M98.8,263.8v-1.7c0-1,0.2-1.9,0.5-2.5c0.4-0.7,0.9-1.2,1.5-1.6c0.7-0.4,1.4-0.8,2.4-1l1.3-0.4
			c0.6-0.2,1.1-0.4,1.5-0.7s0.7-0.6,1-1c0.2-0.4,0.3-0.9,0.3-1.4v-0.1c0-0.8-0.3-1.5-0.8-1.9s-1.3-0.7-2.2-0.7
			c-0.9,0-1.7,0.3-2.3,0.8s-0.9,1.2-0.9,2.2v0.3h-2.2v-0.3c0-1.1,0.2-2,0.7-2.7c0.5-0.7,1.1-1.3,1.9-1.7s1.7-0.6,2.7-0.6
			c1,0,1.9,0.2,2.7,0.6c0.8,0.4,1.4,0.9,1.9,1.6c0.5,0.7,0.7,1.5,0.7,2.4v0.2c0,1-0.2,1.7-0.6,2.4s-0.9,1.2-1.6,1.6
			c-0.7,0.4-1.4,0.8-2.3,1l-1.2,0.4c-0.7,0.2-1.2,0.4-1.6,0.6c-0.4,0.2-0.7,0.5-0.9,0.8c-0.2,0.3-0.3,0.7-0.3,1.2v0.2h8.3v2H98.8z"
			/>
		<path class="st0" d="M117.2,264.1c-1.7,0-3.1-0.5-4.1-1.5c-1-1-1.5-2.4-1.5-4.4v-3.6c0-1.9,0.5-3.4,1.5-4.4c1-1,2.4-1.5,4.1-1.5
			c1.7,0,3.1,0.5,4.1,1.5c1,1,1.5,2.5,1.5,4.4v3.6c0,2-0.5,3.4-1.5,4.4C120.3,263.6,118.9,264.1,117.2,264.1z M117.2,262.1
			c1.2,0,2-0.3,2.6-1s0.8-1.6,0.8-2.8v-3.8c0-1.2-0.3-2.1-0.9-2.8c-0.6-0.7-1.4-1-2.5-1c-1.1,0-1.9,0.3-2.5,1s-0.9,1.6-0.9,2.8v3.8
			c0,1.2,0.3,2.2,0.9,2.8C115.2,261.8,116.1,262.1,117.2,262.1z"/>
		<path class="st0" d="M125.6,263.8v-10.4h2.1v1.2h0.3c0.2-0.4,0.5-0.7,0.9-1c0.4-0.3,1-0.4,1.8-0.4c0.8,0,1.4,0.2,1.9,0.5
			c0.5,0.3,0.8,0.7,1.1,1.2h0.3c0.2-0.5,0.6-0.9,1-1.2c0.5-0.3,1.1-0.5,1.9-0.5c0.7,0,1.3,0.1,1.8,0.4c0.5,0.3,0.9,0.7,1.2,1.2
			c0.3,0.5,0.5,1.2,0.5,2v6.9h-2.2v-6.7c0-0.6-0.2-1.1-0.5-1.5c-0.3-0.3-0.8-0.5-1.5-0.5c-0.7,0-1.2,0.2-1.6,0.7
			c-0.4,0.4-0.6,1.1-0.6,1.9v6.2H132v-6.7c0-0.6-0.2-1.1-0.5-1.5c-0.3-0.3-0.8-0.5-1.5-0.5c-0.7,0-1.2,0.2-1.6,0.7
			c-0.4,0.4-0.6,1.1-0.6,1.9v6.2H125.6z"/>
		<path class="st0" d="M143.7,263.8v-10.4h2.1v1.2h0.3c0.2-0.4,0.5-0.7,0.9-1c0.4-0.3,1-0.4,1.8-0.4c0.8,0,1.4,0.2,1.9,0.5
			c0.5,0.3,0.8,0.7,1.1,1.2h0.3c0.2-0.5,0.6-0.9,1-1.2c0.5-0.3,1.1-0.5,1.9-0.5c0.7,0,1.3,0.1,1.8,0.4c0.5,0.3,0.9,0.7,1.2,1.2
			c0.3,0.5,0.5,1.2,0.5,2v6.9h-2.2v-6.7c0-0.6-0.2-1.1-0.5-1.5c-0.3-0.3-0.8-0.5-1.5-0.5c-0.7,0-1.2,0.2-1.6,0.7
			c-0.4,0.4-0.6,1.1-0.6,1.9v6.2H150v-6.7c0-0.6-0.2-1.1-0.5-1.5c-0.3-0.3-0.8-0.5-1.5-0.5c-0.7,0-1.2,0.2-1.6,0.7
			c-0.4,0.4-0.6,1.1-0.6,1.9v6.2H143.7z"/>
		<path class="st0" d="M168.2,252c-0.4,0-0.8-0.1-1.1-0.4c-0.3-0.3-0.4-0.6-0.4-1.1s0.1-0.8,0.4-1.1c0.3-0.3,0.6-0.4,1.1-0.4
			c0.4,0,0.8,0.1,1.1,0.4c0.3,0.3,0.4,0.6,0.4,1.1s-0.1,0.8-0.4,1.1C169,251.9,168.6,252,168.2,252z M167.1,263.8v-10.4h2.2v10.4
			H167.1z"/>
		<path class="st0" d="M172.5,263.8v-10.4h2.1v1.6h0.3c0.2-0.4,0.5-0.8,1.1-1.2c0.5-0.4,1.3-0.5,2.3-0.5c0.8,0,1.5,0.2,2.1,0.5
			c0.6,0.4,1.1,0.8,1.4,1.5c0.4,0.6,0.5,1.4,0.5,2.3v6.2h-2.2v-6.1c0-0.9-0.2-1.6-0.7-2c-0.4-0.4-1.1-0.6-1.9-0.6
			c-0.9,0-1.6,0.3-2.2,0.9s-0.8,1.4-0.8,2.6v5.2H172.5z"/>
		<path class="st0" d="M194.6,263.8v-13.2h-0.3l-2.4,5h-2.3l3.3-6.5h4v14.7H194.6z"/>
		<path class="st0" d="M205.1,264.1c-1.7,0-3.1-0.5-4.1-1.5c-1-1-1.5-2.4-1.5-4.4v-3.6c0-1.9,0.5-3.4,1.5-4.4c1-1,2.4-1.5,4.1-1.5
			c1.7,0,3.1,0.5,4.1,1.5c1,1,1.5,2.5,1.5,4.4v3.6c0,2-0.5,3.4-1.5,4.4C208.2,263.6,206.9,264.1,205.1,264.1z M205.1,262.1
			c1.2,0,2-0.3,2.6-1s0.8-1.6,0.8-2.8v-3.8c0-1.2-0.3-2.1-0.9-2.8c-0.6-0.7-1.4-1-2.5-1c-1.1,0-1.9,0.3-2.5,1s-0.9,1.6-0.9,2.8v3.8
			c0,1.2,0.3,2.2,0.9,2.8C203.2,261.8,204,262.1,205.1,262.1z"/>
		<path class="st0" d="M213.5,263.8v-10.4h2.1v1.2h0.3c0.2-0.4,0.5-0.7,0.9-1c0.4-0.3,1-0.4,1.8-0.4c0.8,0,1.4,0.2,1.9,0.5
			c0.5,0.3,0.8,0.7,1.1,1.2h0.3c0.2-0.5,0.6-0.9,1-1.2c0.5-0.3,1.1-0.5,1.9-0.5c0.7,0,1.3,0.1,1.8,0.4c0.5,0.3,0.9,0.7,1.2,1.2
			c0.3,0.5,0.5,1.2,0.5,2v6.9h-2.2v-6.7c0-0.6-0.2-1.1-0.5-1.5c-0.3-0.3-0.8-0.5-1.5-0.5c-0.7,0-1.2,0.2-1.6,0.7
			c-0.4,0.4-0.6,1.1-0.6,1.9v6.2h-2.2v-6.7c0-0.6-0.2-1.1-0.5-1.5c-0.3-0.3-0.8-0.5-1.5-0.5c-0.7,0-1.2,0.2-1.6,0.7
			c-0.4,0.4-0.6,1.1-0.6,1.9v6.2H213.5z"/>
		<path class="st0" d="M232.7,252c-0.4,0-0.8-0.1-1.1-0.4c-0.3-0.3-0.4-0.6-0.4-1.1s0.1-0.8,0.4-1.1c0.3-0.3,0.6-0.4,1.1-0.4
			c0.4,0,0.8,0.1,1.1,0.4c0.3,0.3,0.4,0.6,0.4,1.1s-0.1,0.8-0.4,1.1C233.5,251.9,233.1,252,232.7,252z M231.6,263.8v-10.4h2.2v10.4
			H231.6z"/>
		<path class="st0" d="M237,263.8v-10.4h2.1v1.6h0.3c0.2-0.4,0.5-0.8,1.1-1.2c0.5-0.4,1.3-0.5,2.3-0.5c0.8,0,1.5,0.2,2.1,0.5
			c0.6,0.4,1.1,0.8,1.4,1.5c0.4,0.6,0.5,1.4,0.5,2.3v6.2h-2.2v-6.1c0-0.9-0.2-1.6-0.7-2c-0.4-0.4-1.1-0.6-1.9-0.6
			c-0.9,0-1.6,0.3-2.2,0.9s-0.8,1.4-0.8,2.6v5.2H237z"/>
	</g>
</g>
<g>
	<g>
		<path class="st0" d="M80.9,312.3v-14.7h9.3v2.1h-7v4.2h6.4v2.1h-6.4v4.3h7.1v2.1H80.9z"/>
		<path class="st0" d="M91.9,312.3l4-5.2l-3.9-5.1h2.5l2.7,3.7h0.3l2.7-3.7h2.6L99,307l4,5.2h-2.6l-2.8-3.8h-0.3l-2.8,3.8H91.9z"/>
		<path class="st0" d="M109.2,312.3c-0.6,0-1.1-0.2-1.5-0.6c-0.4-0.4-0.6-0.9-0.6-1.5v-6.5h-2.9v-1.8h2.9v-3.4h2.2v3.4h3.1v1.8h-3.1
			v6.1c0,0.4,0.2,0.6,0.6,0.6h2.2v1.8H109.2z"/>
		<path class="st0" d="M114.9,312.3v-10.4h2.1v1.2h0.3c0.2-0.4,0.4-0.8,0.8-1c0.4-0.2,0.8-0.3,1.4-0.3h1.2v2h-1.3
			c-0.7,0-1.3,0.2-1.7,0.6c-0.4,0.4-0.7,1-0.7,1.8v6.1H114.9z"/>
		<path class="st0" d="M127.8,312.6c-1.1,0-2-0.2-2.8-0.7c-0.8-0.4-1.4-1.1-1.8-1.9s-0.7-1.7-0.7-2.8V307c0-1.1,0.2-2,0.7-2.8
			c0.4-0.8,1-1.4,1.8-1.9s1.7-0.7,2.7-0.7c1,0,1.9,0.2,2.6,0.7s1.3,1.1,1.8,1.8c0.4,0.8,0.6,1.7,0.6,2.8v0.8h-8
			c0,0.9,0.3,1.6,0.9,2.2c0.6,0.5,1.3,0.8,2.2,0.8c0.8,0,1.4-0.2,1.8-0.5s0.7-0.8,1-1.3l1.8,0.9c-0.2,0.4-0.5,0.8-0.9,1.2
			c-0.4,0.4-0.9,0.8-1.5,1.1C129.5,312.4,128.8,312.6,127.8,312.6z M124.8,306h5.8c-0.1-0.8-0.3-1.4-0.8-1.8c-0.5-0.4-1.2-0.7-2-0.7
			s-1.5,0.2-2,0.7S124.9,305.2,124.8,306z"/>
		<path class="st0" d="M135.4,312.3v-10.4h2.1v1.2h0.3c0.2-0.4,0.5-0.7,0.9-1c0.4-0.3,1-0.4,1.8-0.4c0.8,0,1.4,0.2,1.9,0.5
			c0.5,0.3,0.8,0.7,1.1,1.2h0.3c0.2-0.5,0.6-0.9,1-1.2c0.5-0.3,1.1-0.5,1.9-0.5c0.7,0,1.3,0.1,1.8,0.4c0.5,0.3,0.9,0.7,1.2,1.2
			c0.3,0.5,0.5,1.2,0.5,2v6.9h-2.2v-6.7c0-0.6-0.2-1.1-0.5-1.5c-0.3-0.3-0.8-0.5-1.5-0.5c-0.7,0-1.2,0.2-1.6,0.7
			c-0.4,0.4-0.6,1.1-0.6,1.9v6.2h-2.2v-6.7c0-0.6-0.2-1.1-0.5-1.5c-0.3-0.3-0.8-0.5-1.5-0.5c-0.7,0-1.2,0.2-1.6,0.7
			c-0.4,0.4-0.6,1.1-0.6,1.9v6.2H135.4z"/>
		<path class="st0" d="M163,312.6c-1.3,0-2.4-0.3-3.3-0.9c-0.9-0.6-1.4-1.5-1.6-2.7l2-0.5c0.1,0.6,0.3,1,0.6,1.4s0.6,0.6,1,0.7
			c0.4,0.1,0.8,0.2,1.3,0.2c0.7,0,1.2-0.1,1.6-0.4c0.4-0.3,0.6-0.6,0.6-1s-0.2-0.7-0.5-0.9c-0.4-0.2-0.9-0.4-1.6-0.5l-0.7-0.1
			c-0.7-0.1-1.3-0.3-1.9-0.5c-0.6-0.2-1-0.6-1.4-1s-0.5-1-0.5-1.6c0-1,0.4-1.7,1.1-2.3c0.7-0.5,1.7-0.8,2.9-0.8
			c1.2,0,2.1,0.3,2.9,0.8c0.8,0.5,1.2,1.2,1.5,2.1l-2,0.6c-0.1-0.6-0.4-1.1-0.8-1.3c-0.4-0.3-0.9-0.4-1.5-0.4
			c-0.6,0-1.1,0.1-1.4,0.3s-0.5,0.5-0.5,0.9c0,0.4,0.2,0.7,0.5,0.9c0.3,0.2,0.8,0.3,1.3,0.4l0.7,0.1c0.7,0.1,1.4,0.3,2,0.5
			c0.6,0.2,1.1,0.5,1.5,1c0.4,0.4,0.5,1,0.5,1.7c0,1-0.4,1.8-1.2,2.4C165.4,312.3,164.3,312.6,163,312.6z"/>
		<path class="st0" d="M173.7,312.3c-0.6,0-1.1-0.2-1.5-0.6c-0.4-0.4-0.6-0.9-0.6-1.5v-6.5h-2.9v-1.8h2.9v-3.4h2.2v3.4h3.1v1.8h-3.1
			v6.1c0,0.4,0.2,0.6,0.6,0.6h2.2v1.8H173.7z"/>
		<path class="st0" d="M182.7,312.6c-0.7,0-1.4-0.1-2-0.4c-0.6-0.3-1-0.6-1.4-1.1c-0.3-0.5-0.5-1.1-0.5-1.8c0-0.7,0.2-1.3,0.5-1.8
			c0.3-0.5,0.8-0.8,1.4-1.1c0.6-0.2,1.3-0.4,2-0.4h3.2v-0.7c0-0.6-0.2-1.1-0.5-1.5c-0.4-0.4-0.9-0.5-1.7-0.5c-0.7,0-1.3,0.2-1.7,0.5
			c-0.4,0.4-0.7,0.8-0.8,1.4l-2-0.7c0.2-0.6,0.4-1.1,0.8-1.5c0.4-0.5,0.9-0.8,1.5-1.1c0.6-0.3,1.4-0.4,2.2-0.4c1.3,0,2.4,0.3,3.2,1
			c0.8,0.7,1.2,1.7,1.2,2.9v4.3c0,0.4,0.2,0.6,0.6,0.6h0.9v1.8h-1.6c-0.5,0-0.9-0.1-1.2-0.4s-0.5-0.6-0.5-1v-0.1h-0.3
			c-0.1,0.2-0.3,0.5-0.5,0.7c-0.2,0.3-0.6,0.5-1,0.7C184,312.5,183.4,312.6,182.7,312.6z M183,310.8c0.9,0,1.6-0.2,2.1-0.7
			c0.5-0.5,0.8-1.2,0.8-2.1v-0.2h-3c-0.6,0-1,0.1-1.4,0.4c-0.4,0.2-0.5,0.6-0.5,1.1s0.2,0.9,0.5,1.1
			C181.9,310.6,182.4,310.8,183,310.8z"/>
		<path class="st0" d="M191.6,312.3v-10.4h2.1v1.2h0.3c0.2-0.4,0.4-0.8,0.8-1c0.4-0.2,0.8-0.3,1.4-0.3h1.2v2h-1.3
			c-0.7,0-1.3,0.2-1.7,0.6c-0.4,0.4-0.7,1-0.7,1.8v6.1H191.6z"/>
		<path class="st0" d="M199.8,312.3v-14.7h2.2v8.4h0.3l4.1-4h2.9l-5.2,5l5.4,5.3h-2.9l-4.3-4.3H202v4.3H199.8z"/>
		<path class="st0" d="M216.2,312.6c-1.1,0-2-0.2-2.8-0.7c-0.8-0.4-1.4-1.1-1.8-1.9s-0.7-1.7-0.7-2.8V307c0-1.1,0.2-2,0.7-2.8
			s1-1.4,1.8-1.9s1.7-0.7,2.7-0.7c1,0,1.9,0.2,2.6,0.7c0.8,0.4,1.3,1.1,1.8,1.8c0.4,0.8,0.6,1.7,0.6,2.8v0.8h-8
			c0,0.9,0.3,1.6,0.9,2.2c0.6,0.5,1.3,0.8,2.2,0.8c0.8,0,1.4-0.2,1.8-0.5s0.7-0.8,1-1.3l1.8,0.9c-0.2,0.4-0.5,0.8-0.9,1.2
			c-0.4,0.4-0.9,0.8-1.5,1.1S217.1,312.6,216.2,312.6z M213.1,306h5.8c-0.1-0.8-0.3-1.4-0.8-1.8c-0.5-0.4-1.2-0.7-2-0.7
			s-1.5,0.2-2,0.7C213.6,304.6,213.2,305.2,213.1,306z"/>
		<path class="st0" d="M223.7,312.3v-10.4h2.1v1.2h0.3c0.2-0.4,0.4-0.8,0.8-1c0.4-0.2,0.8-0.3,1.4-0.3h1.2v2h-1.3
			c-0.7,0-1.3,0.2-1.7,0.6c-0.4,0.4-0.7,1-0.7,1.8v6.1H223.7z"/>
		<path class="st0" d="M237.2,312.3v-14.7h4.4l4,13.2h0.3v-13.2h2.3v14.7h-4.4l-4-13.2h-0.3v13.2H237.2z"/>
		<path class="st0" d="M252.4,300.5c-0.4,0-0.8-0.1-1.1-0.4c-0.3-0.3-0.4-0.6-0.4-1.1s0.1-0.8,0.4-1.1c0.3-0.3,0.6-0.4,1.1-0.4
			c0.4,0,0.8,0.1,1.1,0.4c0.3,0.3,0.4,0.6,0.4,1.1s-0.1,0.8-0.4,1.1C253.2,300.3,252.8,300.5,252.4,300.5z M251.3,312.3v-10.4h2.2
			v10.4H251.3z"/>
		<path class="st0" d="M261.4,312.6c-1.1,0-2-0.2-2.8-0.7c-0.8-0.4-1.4-1.1-1.8-1.9s-0.7-1.7-0.7-2.8V307c0-1.1,0.2-2,0.7-2.8
			s1-1.4,1.8-1.9s1.7-0.7,2.7-0.7c1,0,1.9,0.2,2.6,0.7c0.8,0.4,1.3,1.1,1.8,1.8c0.4,0.8,0.6,1.7,0.6,2.8v0.8h-8
			c0,0.9,0.3,1.6,0.9,2.2c0.6,0.5,1.3,0.8,2.2,0.8c0.8,0,1.4-0.2,1.8-0.5s0.7-0.8,1-1.3l1.8,0.9c-0.2,0.4-0.5,0.8-0.9,1.2
			c-0.4,0.4-0.9,0.8-1.5,1.1S262.4,312.6,261.4,312.6z M258.4,306h5.8c-0.1-0.8-0.3-1.4-0.8-1.8c-0.5-0.4-1.2-0.7-2-0.7
			s-1.5,0.2-2,0.7C258.8,304.6,258.5,305.2,258.4,306z"/>
		<path class="st0" d="M273.3,312.6c-0.9,0-1.7-0.2-2.4-0.6c-0.7-0.4-1.3-1-1.8-1.8c-0.4-0.8-0.7-1.8-0.7-2.9v-0.3
			c0-1.1,0.2-2.1,0.7-2.9c0.4-0.8,1-1.4,1.7-1.8c0.7-0.4,1.5-0.6,2.4-0.6c0.7,0,1.2,0.1,1.7,0.3c0.5,0.2,0.8,0.4,1.1,0.6
			c0.3,0.3,0.5,0.5,0.7,0.8h0.3v-5.8h2.2v14.7h-2.1v-1.5h-0.3c-0.3,0.5-0.7,0.9-1.2,1.2C275,312.4,274.3,312.6,273.3,312.6z
			 M273.9,310.7c0.9,0,1.7-0.3,2.3-0.9c0.6-0.6,0.9-1.5,0.9-2.6V307c0-1.1-0.3-2-0.9-2.6c-0.6-0.6-1.4-0.9-2.3-0.9
			c-0.9,0-1.7,0.3-2.3,0.9c-0.6,0.6-0.9,1.5-0.9,2.6v0.2c0,1.1,0.3,2,0.9,2.6C272.2,310.4,272.9,310.7,273.9,310.7z"/>
		<path class="st0" d="M287.2,312.6c-1.1,0-2-0.2-2.8-0.7c-0.8-0.4-1.4-1.1-1.8-1.9s-0.7-1.7-0.7-2.8V307c0-1.1,0.2-2,0.7-2.8
			s1-1.4,1.8-1.9s1.7-0.7,2.7-0.7c1,0,1.9,0.2,2.6,0.7c0.8,0.4,1.3,1.1,1.8,1.8c0.4,0.8,0.6,1.7,0.6,2.8v0.8h-8
			c0,0.9,0.3,1.6,0.9,2.2c0.6,0.5,1.3,0.8,2.2,0.8c0.8,0,1.4-0.2,1.8-0.5s0.7-0.8,1-1.3l1.8,0.9c-0.2,0.4-0.5,0.8-0.9,1.2
			c-0.4,0.4-0.9,0.8-1.5,1.1S288.2,312.6,287.2,312.6z M284.2,306h5.8c-0.1-0.8-0.3-1.4-0.8-1.8c-0.5-0.4-1.2-0.7-2-0.7
			s-1.5,0.2-2,0.7C284.6,304.6,284.3,305.2,284.2,306z"/>
		<path class="st0" d="M294.8,312.3v-10.4h2.1v1.2h0.3c0.2-0.4,0.4-0.8,0.8-1c0.4-0.2,0.8-0.3,1.4-0.3h1.2v2h-1.3
			c-0.7,0-1.3,0.2-1.7,0.6c-0.4,0.4-0.7,1-0.7,1.8v6.1H294.8z"/>
		<path class="st0" d="M307.2,312.6c-1.3,0-2.4-0.3-3.3-0.9c-0.9-0.6-1.4-1.5-1.6-2.7l2-0.5c0.1,0.6,0.3,1,0.6,1.4s0.6,0.6,1,0.7
			c0.4,0.1,0.8,0.2,1.3,0.2c0.7,0,1.2-0.1,1.6-0.4c0.4-0.3,0.6-0.6,0.6-1s-0.2-0.7-0.5-0.9c-0.4-0.2-0.9-0.4-1.6-0.5l-0.7-0.1
			c-0.7-0.1-1.3-0.3-1.9-0.5c-0.6-0.2-1-0.6-1.4-1s-0.5-1-0.5-1.6c0-1,0.4-1.7,1.1-2.3c0.7-0.5,1.7-0.8,2.9-0.8
			c1.2,0,2.1,0.3,2.9,0.8c0.8,0.5,1.2,1.2,1.5,2.1l-2,0.6c-0.1-0.6-0.4-1.1-0.8-1.3c-0.4-0.3-0.9-0.4-1.5-0.4
			c-0.6,0-1.1,0.1-1.4,0.3s-0.5,0.5-0.5,0.9c0,0.4,0.2,0.7,0.5,0.9c0.3,0.2,0.8,0.3,1.3,0.4l0.7,0.1c0.7,0.1,1.4,0.3,2,0.5
			c0.6,0.2,1.1,0.5,1.5,1c0.4,0.4,0.5,1,0.5,1.7c0,1-0.4,1.8-1.2,2.4C309.5,312.3,308.5,312.6,307.2,312.6z"/>
		<path class="st0" d="M318.8,312.6c-1,0-1.9-0.2-2.7-0.6s-1.4-1-1.9-1.8c-0.5-0.8-0.7-1.8-0.7-2.9V307c0-1.1,0.2-2.1,0.7-2.9
			c0.5-0.8,1.1-1.4,1.9-1.8c0.8-0.4,1.7-0.6,2.7-0.6s1.8,0.2,2.5,0.5c0.7,0.4,1.3,0.9,1.7,1.5c0.4,0.6,0.7,1.3,0.8,2l-2.1,0.4
			c-0.1-0.5-0.2-0.9-0.4-1.3c-0.2-0.4-0.5-0.7-0.9-0.9s-0.9-0.3-1.5-0.3c-0.6,0-1.1,0.1-1.6,0.4c-0.5,0.3-0.9,0.7-1.1,1.2
			c-0.3,0.5-0.4,1.1-0.4,1.9v0.2c0,0.7,0.1,1.4,0.4,1.9c0.3,0.5,0.7,0.9,1.1,1.2s1,0.4,1.6,0.4c0.9,0,1.6-0.2,2.1-0.7
			c0.5-0.5,0.8-1.1,0.9-1.8l2.1,0.5c-0.2,0.7-0.5,1.4-0.9,2c-0.4,0.6-1,1.1-1.7,1.4S319.8,312.6,318.8,312.6z"/>
		<path class="st0" d="M326.4,312.3v-14.7h2.2v5.8h0.3c0.1-0.3,0.3-0.5,0.6-0.8c0.3-0.3,0.6-0.5,1-0.6c0.4-0.2,1-0.2,1.6-0.2
			c0.8,0,1.5,0.2,2.1,0.5c0.6,0.4,1.1,0.8,1.4,1.5c0.4,0.6,0.5,1.4,0.5,2.3v6.2h-2.2v-6.1c0-0.9-0.2-1.6-0.7-2
			c-0.4-0.4-1.1-0.6-1.9-0.6c-0.9,0-1.6,0.3-2.2,0.9s-0.8,1.4-0.8,2.6v5.2H326.4z"/>
		<path class="st0" d="M339.4,312.3v-14.7h2.2v14.7H339.4z"/>
		<path class="st0" d="M348,312.6c-0.7,0-1.4-0.1-2-0.4c-0.6-0.3-1-0.6-1.4-1.1c-0.3-0.5-0.5-1.1-0.5-1.8c0-0.7,0.2-1.3,0.5-1.8
			c0.3-0.5,0.8-0.8,1.4-1.1c0.6-0.2,1.3-0.4,2-0.4h3.2v-0.7c0-0.6-0.2-1.1-0.5-1.5c-0.4-0.4-0.9-0.5-1.7-0.5c-0.7,0-1.3,0.2-1.7,0.5
			c-0.4,0.4-0.7,0.8-0.8,1.4l-2-0.7c0.2-0.6,0.4-1.1,0.8-1.5c0.4-0.5,0.9-0.8,1.5-1.1c0.6-0.3,1.4-0.4,2.2-0.4c1.3,0,2.4,0.3,3.2,1
			c0.8,0.7,1.2,1.7,1.2,2.9v4.3c0,0.4,0.2,0.6,0.6,0.6h0.9v1.8h-1.6c-0.5,0-0.9-0.1-1.2-0.4s-0.5-0.6-0.5-1v-0.1h-0.3
			c-0.1,0.2-0.3,0.5-0.5,0.7c-0.2,0.3-0.6,0.5-1,0.7C349.3,312.5,348.7,312.6,348,312.6z M348.3,310.8c0.9,0,1.6-0.2,2.1-0.7
			c0.5-0.5,0.8-1.2,0.8-2.1v-0.2h-3c-0.6,0-1,0.1-1.4,0.4c-0.4,0.2-0.5,0.6-0.5,1.1s0.2,0.9,0.5,1.1
			C347.2,310.6,347.7,310.8,348.3,310.8z"/>
		<path class="st0" d="M356.4,307.1v-0.3c0-1.1,0.2-2,0.7-2.8s1-1.4,1.8-1.8c0.7-0.4,1.5-0.6,2.4-0.6c1,0,1.8,0.2,2.3,0.6
			s0.9,0.8,1.2,1.2h0.3v-1.5h2.1v12.5c0,0.6-0.2,1.1-0.6,1.5c-0.4,0.4-0.9,0.6-1.5,0.6h-7v-1.9h6.3c0.4,0,0.6-0.2,0.6-0.6v-3.3h-0.3
			c-0.2,0.3-0.4,0.5-0.7,0.8c-0.3,0.3-0.6,0.5-1.1,0.7c-0.5,0.2-1,0.3-1.7,0.3c-0.9,0-1.7-0.2-2.4-0.6c-0.7-0.4-1.3-1-1.8-1.8
			S356.4,308.2,356.4,307.1z M361.9,310.4c0.9,0,1.7-0.3,2.3-0.9c0.6-0.6,0.9-1.4,0.9-2.5v-0.2c0-1.1-0.3-1.9-0.9-2.5
			c-0.6-0.6-1.4-0.9-2.3-0.9c-0.9,0-1.7,0.3-2.3,0.9c-0.6,0.6-0.9,1.4-0.9,2.5v0.2c0,1.1,0.3,1.9,0.9,2.5
			C360.2,310.1,360.9,310.4,361.9,310.4z"/>
		<path class="st0" d="M81.5,334.8v-2.2l6.7-2.3V330l-6.7-2.3v-2.2l8.8,3.3v2.7L81.5,334.8z"/>
		<path class="st0" d="M100.8,337.6V337c0-0.5,0-1,0.1-1.3c0.1-0.4,0.3-0.8,0.5-1.3l5.3-9.4v-0.3h-8.3v-2H109v2.6l-5.5,9.9
			c-0.2,0.3-0.3,0.6-0.4,0.8s-0.1,0.6-0.1,0.9v0.4H100.8z"/>
		<path class="st0" d="M116.4,337.9c-1.7,0-3.1-0.5-4.1-1.5c-1-1-1.5-2.4-1.5-4.4v-3.6c0-1.9,0.5-3.4,1.5-4.4c1-1,2.4-1.5,4.1-1.5
			c1.7,0,3.1,0.5,4.1,1.5c1,1,1.5,2.5,1.5,4.4v3.6c0,2-0.5,3.4-1.5,4.4C119.5,337.4,118.1,337.9,116.4,337.9z M116.4,335.9
			c1.2,0,2-0.3,2.6-1s0.8-1.6,0.8-2.8v-3.8c0-1.2-0.3-2.1-0.9-2.8c-0.6-0.7-1.4-1-2.5-1c-1.1,0-1.9,0.3-2.5,1s-0.9,1.6-0.9,2.8v3.8
			c0,1.2,0.3,2.2,0.9,2.8C114.4,335.5,115.2,335.9,116.4,335.9z"/>
		<path class="st0" d="M124.8,337.6v-10.4h2.1v1.2h0.3c0.2-0.4,0.5-0.7,0.9-1c0.4-0.3,1-0.4,1.8-0.4c0.8,0,1.4,0.2,1.9,0.5
			c0.5,0.3,0.8,0.7,1.1,1.2h0.3c0.2-0.5,0.6-0.9,1-1.2c0.5-0.3,1.1-0.5,1.9-0.5c0.7,0,1.3,0.1,1.8,0.4c0.5,0.3,0.9,0.7,1.2,1.2
			c0.3,0.5,0.5,1.2,0.5,2v6.9h-2.2v-6.7c0-0.6-0.2-1.1-0.5-1.5c-0.3-0.3-0.8-0.5-1.5-0.5c-0.7,0-1.2,0.2-1.6,0.7
			c-0.4,0.4-0.6,1.1-0.6,1.9v6.2h-2.2v-6.7c0-0.6-0.2-1.1-0.5-1.5c-0.3-0.3-0.8-0.5-1.5-0.5c-0.7,0-1.2,0.2-1.6,0.7
			c-0.4,0.4-0.6,1.1-0.6,1.9v6.2H124.8z"/>
		<path class="st0" d="M142.8,337.6v-10.4h2.1v1.2h0.3c0.2-0.4,0.5-0.7,0.9-1c0.4-0.3,1-0.4,1.8-0.4c0.8,0,1.4,0.2,1.9,0.5
			c0.5,0.3,0.8,0.7,1.1,1.2h0.3c0.2-0.5,0.6-0.9,1-1.2c0.5-0.3,1.1-0.5,1.9-0.5c0.7,0,1.3,0.1,1.8,0.4c0.5,0.3,0.9,0.7,1.2,1.2
			c0.3,0.5,0.5,1.2,0.5,2v6.9h-2.2v-6.7c0-0.6-0.2-1.1-0.5-1.5c-0.3-0.3-0.8-0.5-1.5-0.5c-0.7,0-1.2,0.2-1.6,0.7
			c-0.4,0.4-0.6,1.1-0.6,1.9v6.2h-2.2v-6.7c0-0.6-0.2-1.1-0.5-1.5c-0.3-0.3-0.8-0.5-1.5-0.5c-0.7,0-1.2,0.2-1.6,0.7
			c-0.4,0.4-0.6,1.1-0.6,1.9v6.2H142.8z"/>
		<path class="st0" d="M167.4,325.8c-0.4,0-0.8-0.1-1.1-0.4c-0.3-0.3-0.4-0.6-0.4-1.1s0.1-0.8,0.4-1.1c0.3-0.3,0.6-0.4,1.1-0.4
			c0.4,0,0.8,0.1,1.1,0.4c0.3,0.3,0.4,0.6,0.4,1.1s-0.1,0.8-0.4,1.1C168.1,325.6,167.8,325.8,167.4,325.8z M166.3,337.6v-10.4h2.2
			v10.4H166.3z"/>
		<path class="st0" d="M171.7,337.6v-10.4h2.1v1.6h0.3c0.2-0.4,0.5-0.8,1.1-1.2c0.5-0.4,1.3-0.5,2.3-0.5c0.8,0,1.5,0.2,2.1,0.5
			c0.6,0.4,1.1,0.8,1.4,1.5c0.4,0.6,0.5,1.4,0.5,2.3v6.2h-2.2v-6.1c0-0.9-0.2-1.6-0.7-2c-0.4-0.4-1.1-0.6-1.9-0.6
			c-0.9,0-1.6,0.3-2.2,0.9s-0.8,1.4-0.8,2.6v5.2H171.7z"/>
		<path class="st0" d="M194.9,337.9c-1.1,0-2-0.2-2.8-0.6c-0.8-0.4-1.4-1-1.9-1.7c-0.4-0.7-0.7-1.6-0.7-2.6v-5.1
			c0-1.2,0.2-2.1,0.7-2.9c0.5-0.8,1.1-1.4,1.9-1.8c0.8-0.4,1.8-0.6,2.9-0.6c1.1,0,2,0.2,2.8,0.6s1.4,0.9,1.8,1.6
			c0.4,0.7,0.6,1.5,0.6,2.4H198c0-0.7-0.2-1.3-0.7-1.8c-0.5-0.5-1.2-0.7-2.3-0.7c-1.1,0-1.9,0.3-2.4,0.8c-0.6,0.6-0.9,1.3-0.9,2.3
			v1.8h0.3c0.2-0.3,0.6-0.7,1.2-1s1.3-0.5,2.3-0.5c0.9,0,1.7,0.2,2.4,0.6c0.7,0.4,1.3,0.9,1.8,1.6c0.4,0.7,0.7,1.6,0.7,2.5v0.3
			c0,1-0.2,1.8-0.7,2.6c-0.5,0.7-1.1,1.3-1.9,1.7C196.9,337.6,196,337.9,194.9,337.9z M194.9,335.9c1,0,1.8-0.3,2.3-0.8
			c0.6-0.5,0.9-1.2,0.9-2.1v-0.2c0-0.6-0.1-1.1-0.4-1.6c-0.3-0.4-0.6-0.8-1.1-1s-1-0.4-1.7-0.4c-0.6,0-1.2,0.1-1.7,0.4
			s-0.9,0.6-1.1,1c-0.3,0.4-0.4,1-0.4,1.6v0.2c0,0.9,0.3,1.6,0.9,2.1C193.2,335.6,194,335.9,194.9,335.9z"/>
		<path class="st0" d="M208.1,337.9c-1.7,0-3.1-0.5-4.1-1.5c-1-1-1.5-2.4-1.5-4.4v-3.6c0-1.9,0.5-3.4,1.5-4.4c1-1,2.4-1.5,4.1-1.5
			c1.7,0,3.1,0.5,4.1,1.5c1,1,1.5,2.5,1.5,4.4v3.6c0,2-0.5,3.4-1.5,4.4C211.2,337.4,209.8,337.9,208.1,337.9z M208.1,335.9
			c1.2,0,2-0.3,2.6-1s0.8-1.6,0.8-2.8v-3.8c0-1.2-0.3-2.1-0.9-2.8c-0.6-0.7-1.4-1-2.5-1c-1.1,0-1.9,0.3-2.5,1s-0.9,1.6-0.9,2.8v3.8
			c0,1.2,0.3,2.2,0.9,2.8C206.1,335.5,207,335.9,208.1,335.9z"/>
		<path class="st0" d="M216.5,337.6v-10.4h2.1v1.2h0.3c0.2-0.4,0.5-0.7,0.9-1c0.4-0.3,1-0.4,1.8-0.4c0.8,0,1.4,0.2,1.9,0.5
			c0.5,0.3,0.8,0.7,1.1,1.2h0.3c0.2-0.5,0.6-0.9,1-1.2c0.5-0.3,1.1-0.5,1.9-0.5c0.7,0,1.3,0.1,1.8,0.4c0.5,0.3,0.9,0.7,1.2,1.2
			c0.3,0.5,0.5,1.2,0.5,2v6.9h-2.2v-6.7c0-0.6-0.2-1.1-0.5-1.5c-0.3-0.3-0.8-0.5-1.5-0.5c-0.7,0-1.2,0.2-1.6,0.7
			c-0.4,0.4-0.6,1.1-0.6,1.9v6.2h-2.2v-6.7c0-0.6-0.2-1.1-0.5-1.5c-0.3-0.3-0.8-0.5-1.5-0.5c-0.7,0-1.2,0.2-1.6,0.7
			c-0.4,0.4-0.6,1.1-0.6,1.9v6.2H216.5z"/>
		<path class="st0" d="M235.7,325.8c-0.4,0-0.8-0.1-1.1-0.4c-0.3-0.3-0.4-0.6-0.4-1.1s0.1-0.8,0.4-1.1c0.3-0.3,0.6-0.4,1.1-0.4
			c0.4,0,0.8,0.1,1.1,0.4c0.3,0.3,0.4,0.6,0.4,1.1s-0.1,0.8-0.4,1.1C236.5,325.6,236.1,325.8,235.7,325.8z M234.6,337.6v-10.4h2.2
			v10.4H234.6z"/>
		<path class="st0" d="M240,337.6v-10.4h2.1v1.6h0.3c0.2-0.4,0.5-0.8,1.1-1.2c0.5-0.4,1.3-0.5,2.3-0.5c0.8,0,1.5,0.2,2.1,0.5
			c0.6,0.4,1.1,0.8,1.4,1.5c0.4,0.6,0.5,1.4,0.5,2.3v6.2h-2.2v-6.1c0-0.9-0.2-1.6-0.7-2c-0.4-0.4-1.1-0.6-1.9-0.6
			c-0.9,0-1.6,0.3-2.2,0.9s-0.8,1.4-0.8,2.6v5.2H240z"/>
		<path class="st0" d="M81.5,360.1v-2.2l6.7-2.3v-0.3l-6.7-2.3v-2.2l8.8,3.3v2.7L81.5,360.1z"/>
		<path class="st0" d="M104.2,363.1c-1.1,0-2-0.2-2.9-0.6c-0.8-0.4-1.5-1-2-1.7s-0.7-1.6-0.7-2.7v-0.4h2.2v0.3
			c0,0.9,0.3,1.7,0.9,2.2c0.6,0.5,1.4,0.8,2.4,0.8c1,0,1.8-0.3,2.4-0.8s0.8-1.1,0.8-1.9v-0.2c0-0.5-0.1-1-0.4-1.3s-0.6-0.6-1.1-0.7
			s-1-0.2-1.5-0.2h-2.7v-2.5l5.2-3.1v-0.3H99v-2h10.3v3l-5,2.9v0.3h0.9c0.7,0,1.4,0.1,2.1,0.4c0.7,0.3,1.2,0.7,1.6,1.3
			c0.4,0.6,0.6,1.3,0.6,2.2v0.3c0,0.9-0.2,1.8-0.7,2.5c-0.5,0.7-1.1,1.2-1.9,1.6S105.3,363.1,104.2,363.1z"/>
		<path class="st0" d="M117.4,363.1c-1.7,0-3.1-0.5-4.1-1.5c-1-1-1.5-2.4-1.5-4.4v-3.6c0-1.9,0.5-3.4,1.5-4.4c1-1,2.4-1.5,4.1-1.5
			c1.7,0,3.1,0.5,4.1,1.5c1,1,1.5,2.5,1.5,4.4v3.6c0,2-0.5,3.4-1.5,4.4C120.5,362.6,119.1,363.1,117.4,363.1z M117.4,361.1
			c1.2,0,2-0.3,2.6-1s0.8-1.6,0.8-2.8v-3.8c0-1.2-0.3-2.1-0.9-2.8c-0.6-0.7-1.4-1-2.5-1c-1.1,0-1.9,0.3-2.5,1s-0.9,1.6-0.9,2.8v3.8
			c0,1.2,0.3,2.2,0.9,2.8C115.4,360.8,116.2,361.1,117.4,361.1z"/>
		<path class="st0" d="M125.8,362.8v-10.4h2.1v1.2h0.3c0.2-0.4,0.5-0.7,0.9-1c0.4-0.3,1-0.4,1.8-0.4c0.8,0,1.4,0.2,1.9,0.5
			c0.5,0.3,0.8,0.7,1.1,1.2h0.3c0.2-0.5,0.6-0.9,1-1.2c0.5-0.3,1.1-0.5,1.9-0.5c0.7,0,1.3,0.1,1.8,0.4c0.5,0.3,0.9,0.7,1.2,1.2
			c0.3,0.5,0.5,1.2,0.5,2v6.9h-2.2v-6.7c0-0.6-0.2-1.1-0.5-1.5c-0.3-0.3-0.8-0.5-1.5-0.5c-0.7,0-1.2,0.2-1.6,0.7
			c-0.4,0.4-0.6,1.1-0.6,1.9v6.2h-2.2v-6.7c0-0.6-0.2-1.1-0.5-1.5c-0.3-0.3-0.8-0.5-1.5-0.5c-0.7,0-1.2,0.2-1.6,0.7
			c-0.4,0.4-0.6,1.1-0.6,1.9v6.2H125.8z"/>
		<path class="st0" d="M143.8,362.8v-10.4h2.1v1.2h0.3c0.2-0.4,0.5-0.7,0.9-1c0.4-0.3,1-0.4,1.8-0.4c0.8,0,1.4,0.2,1.9,0.5
			c0.5,0.3,0.8,0.7,1.1,1.2h0.3c0.2-0.5,0.6-0.9,1-1.2c0.5-0.3,1.1-0.5,1.9-0.5c0.7,0,1.3,0.1,1.8,0.4c0.5,0.3,0.9,0.7,1.2,1.2
			c0.3,0.5,0.5,1.2,0.5,2v6.9h-2.2v-6.7c0-0.6-0.2-1.1-0.5-1.5c-0.3-0.3-0.8-0.5-1.5-0.5c-0.7,0-1.2,0.2-1.6,0.7
			c-0.4,0.4-0.6,1.1-0.6,1.9v6.2h-2.2v-6.7c0-0.6-0.2-1.1-0.5-1.5c-0.3-0.3-0.8-0.5-1.5-0.5c-0.7,0-1.2,0.2-1.6,0.7
			c-0.4,0.4-0.6,1.1-0.6,1.9v6.2H143.8z"/>
		<path class="st0" d="M168.3,351c-0.4,0-0.8-0.1-1.1-0.4c-0.3-0.3-0.4-0.6-0.4-1.1s0.1-0.8,0.4-1.1c0.3-0.3,0.6-0.4,1.1-0.4
			c0.4,0,0.8,0.1,1.1,0.4c0.3,0.3,0.4,0.6,0.4,1.1s-0.1,0.8-0.4,1.1C169.1,350.9,168.8,351,168.3,351z M167.3,362.8v-10.4h2.2v10.4
			H167.3z"/>
		<path class="st0" d="M172.6,362.8v-10.4h2.1v1.6h0.3c0.2-0.4,0.5-0.8,1.1-1.2c0.5-0.4,1.3-0.5,2.3-0.5c0.8,0,1.5,0.2,2.1,0.5
			c0.6,0.4,1.1,0.8,1.4,1.5c0.4,0.6,0.5,1.4,0.5,2.3v6.2h-2.2v-6.1c0-0.9-0.2-1.6-0.7-2c-0.4-0.4-1.1-0.6-1.9-0.6
			c-0.9,0-1.6,0.3-2.2,0.9s-0.8,1.4-0.8,2.6v5.2H172.6z"/>
		<path class="st0" d="M194.8,362.8v-13.2h-0.3l-2.4,5h-2.3l3.3-6.5h4v14.7H194.8z"/>
		<path class="st0" d="M205.3,363.1c-1.7,0-3.1-0.5-4.1-1.5c-1-1-1.5-2.4-1.5-4.4v-3.6c0-1.9,0.5-3.4,1.5-4.4c1-1,2.4-1.5,4.1-1.5
			c1.7,0,3.1,0.5,4.1,1.5c1,1,1.5,2.5,1.5,4.4v3.6c0,2-0.5,3.4-1.5,4.4C208.4,362.6,207,363.1,205.3,363.1z M205.3,361.1
			c1.2,0,2-0.3,2.6-1s0.8-1.6,0.8-2.8v-3.8c0-1.2-0.3-2.1-0.9-2.8c-0.6-0.7-1.4-1-2.5-1c-1.1,0-1.9,0.3-2.5,1s-0.9,1.6-0.9,2.8v3.8
			c0,1.2,0.3,2.2,0.9,2.8C203.3,360.8,204.2,361.1,205.3,361.1z"/>
		<path class="st0" d="M213.7,362.8v-10.4h2.1v1.2h0.3c0.2-0.4,0.5-0.7,0.9-1c0.4-0.3,1-0.4,1.8-0.4c0.8,0,1.4,0.2,1.9,0.5
			c0.5,0.3,0.8,0.7,1.1,1.2h0.3c0.2-0.5,0.6-0.9,1-1.2c0.5-0.3,1.1-0.5,1.9-0.5c0.7,0,1.3,0.1,1.8,0.4c0.5,0.3,0.9,0.7,1.2,1.2
			c0.3,0.5,0.5,1.2,0.5,2v6.9h-2.2v-6.7c0-0.6-0.2-1.1-0.5-1.5c-0.3-0.3-0.8-0.5-1.5-0.5c-0.7,0-1.2,0.2-1.6,0.7
			c-0.4,0.4-0.6,1.1-0.6,1.9v6.2h-2.2v-6.7c0-0.6-0.2-1.1-0.5-1.5c-0.3-0.3-0.8-0.5-1.5-0.5c-0.7,0-1.2,0.2-1.6,0.7
			c-0.4,0.4-0.6,1.1-0.6,1.9v6.2H213.7z"/>
		<path class="st0" d="M232.9,351c-0.4,0-0.8-0.1-1.1-0.4c-0.3-0.3-0.4-0.6-0.4-1.1s0.1-0.8,0.4-1.1c0.3-0.3,0.6-0.4,1.1-0.4
			c0.4,0,0.8,0.1,1.1,0.4c0.3,0.3,0.4,0.6,0.4,1.1s-0.1,0.8-0.4,1.1C233.7,350.9,233.3,351,232.9,351z M231.8,362.8v-10.4h2.2v10.4
			H231.8z"/>
		<path class="st0" d="M237.2,362.8v-10.4h2.1v1.6h0.3c0.2-0.4,0.5-0.8,1.1-1.2c0.5-0.4,1.3-0.5,2.3-0.5c0.8,0,1.5,0.2,2.1,0.5
			c0.6,0.4,1.1,0.8,1.4,1.5c0.4,0.6,0.5,1.4,0.5,2.3v6.2h-2.2v-6.1c0-0.9-0.2-1.6-0.7-2c-0.4-0.4-1.1-0.6-1.9-0.6
			c-0.9,0-1.6,0.3-2.2,0.9s-0.8,1.4-0.8,2.6v5.2H237.2z"/>
	</g>
</g>
<g>
	<g>
		<path class="st0" d="M80.9,424v-14.7h2.3v6.3h6.2v-6.3h2.3V424h-2.3v-6.4h-6.2v6.4H80.9z"/>
		<path class="st0" d="M99.7,424.3c-1,0-2-0.2-2.8-0.6c-0.8-0.4-1.4-1-1.9-1.8c-0.5-0.8-0.7-1.7-0.7-2.8v-0.3c0-1.1,0.2-2,0.7-2.8
			c0.5-0.8,1.1-1.4,1.9-1.8c0.8-0.4,1.7-0.7,2.8-0.7s2,0.2,2.8,0.7c0.8,0.4,1.5,1,1.9,1.8c0.5,0.8,0.7,1.7,0.7,2.8v0.3
			c0,1.1-0.2,2-0.7,2.8c-0.5,0.8-1.1,1.4-1.9,1.8C101.6,424,100.7,424.3,99.7,424.3z M99.7,422.3c1,0,1.7-0.3,2.3-0.9
			c0.6-0.6,0.9-1.5,0.9-2.5v-0.2c0-1.1-0.3-1.9-0.9-2.5c-0.6-0.6-1.4-0.9-2.3-0.9c-0.9,0-1.7,0.3-2.3,0.9c-0.6,0.6-0.9,1.5-0.9,2.5
			v0.2c0,1.1,0.3,1.9,0.9,2.5C98,422,98.7,422.3,99.7,422.3z"/>
		<path class="st0" d="M112.6,424.3c-1,0-1.9-0.2-2.7-0.6c-0.8-0.4-1.4-1-1.9-1.8c-0.5-0.8-0.7-1.8-0.7-2.9v-0.3
			c0-1.1,0.2-2.1,0.7-2.9c0.5-0.8,1.1-1.4,1.9-1.8c0.8-0.4,1.7-0.6,2.7-0.6s1.8,0.2,2.5,0.5c0.7,0.4,1.3,0.9,1.7,1.5
			c0.4,0.6,0.7,1.3,0.8,2l-2.1,0.4c-0.1-0.5-0.2-0.9-0.4-1.3c-0.2-0.4-0.5-0.7-0.9-0.9s-0.9-0.3-1.5-0.3c-0.6,0-1.1,0.1-1.6,0.4
			c-0.5,0.3-0.9,0.7-1.1,1.2c-0.3,0.5-0.4,1.1-0.4,1.9v0.2c0,0.7,0.1,1.4,0.4,1.9s0.7,0.9,1.1,1.2s1,0.4,1.6,0.4
			c0.9,0,1.6-0.2,2.1-0.7c0.5-0.5,0.8-1.1,0.9-1.8l2.1,0.5c-0.2,0.7-0.5,1.4-0.9,2c-0.4,0.6-1,1.1-1.7,1.4S113.6,424.3,112.6,424.3z
			"/>
		<path class="st0" d="M120.2,424v-14.7h2.2v5.8h0.3c0.1-0.3,0.3-0.5,0.6-0.8c0.3-0.3,0.6-0.5,1-0.6c0.4-0.2,1-0.2,1.6-0.2
			c0.8,0,1.5,0.2,2.1,0.5c0.6,0.4,1.1,0.8,1.4,1.5c0.4,0.6,0.5,1.4,0.5,2.3v6.2h-2.2v-6.1c0-0.9-0.2-1.6-0.7-2
			c-0.4-0.4-1.1-0.6-1.9-0.6c-0.9,0-1.6,0.3-2.2,0.9c-0.5,0.6-0.8,1.4-0.8,2.6v5.2H120.2z"/>
		<path class="st0" d="M134.3,424l-1.8-10.4h2.2l1.3,8.9h0.3l1.8-8.9h3.5l1.8,8.9h0.3l1.3-8.9h2.2l-1.8,10.4h-3.6l-1.8-8.9h-0.3
			L138,424H134.3z"/>
		<path class="st0" d="M153.1,424.3c-0.7,0-1.4-0.1-2-0.4c-0.6-0.3-1-0.6-1.4-1.1c-0.3-0.5-0.5-1.1-0.5-1.8c0-0.7,0.2-1.3,0.5-1.8
			c0.3-0.5,0.8-0.8,1.4-1.1c0.6-0.2,1.3-0.4,2-0.4h3.2v-0.7c0-0.6-0.2-1.1-0.5-1.5c-0.4-0.4-0.9-0.5-1.7-0.5c-0.7,0-1.3,0.2-1.7,0.5
			c-0.4,0.4-0.7,0.8-0.8,1.4l-2-0.7c0.2-0.6,0.4-1.1,0.8-1.5c0.4-0.5,0.9-0.8,1.5-1.1c0.6-0.3,1.4-0.4,2.2-0.4c1.3,0,2.4,0.3,3.2,1
			c0.8,0.7,1.2,1.7,1.2,2.9v4.3c0,0.4,0.2,0.6,0.6,0.6h0.9v1.8h-1.6c-0.5,0-0.9-0.1-1.2-0.4s-0.5-0.6-0.5-1v-0.1h-0.3
			c-0.1,0.2-0.3,0.5-0.5,0.7c-0.2,0.3-0.6,0.5-1,0.7C154.4,424.1,153.8,424.3,153.1,424.3z M153.4,422.5c0.9,0,1.6-0.2,2.1-0.7
			c0.5-0.5,0.8-1.2,0.8-2.1v-0.2h-3c-0.6,0-1,0.1-1.4,0.4c-0.4,0.2-0.5,0.6-0.5,1.1s0.2,0.9,0.5,1.1
			C152.3,422.3,152.8,422.5,153.4,422.5z"/>
		<path class="st0" d="M166.3,424.3c-1.3,0-2.4-0.3-3.3-0.9c-0.9-0.6-1.4-1.5-1.6-2.7l2-0.5c0.1,0.6,0.3,1,0.6,1.4s0.6,0.6,1,0.7
			c0.4,0.1,0.8,0.2,1.3,0.2c0.7,0,1.2-0.1,1.6-0.4c0.4-0.3,0.6-0.6,0.6-1s-0.2-0.7-0.5-0.9c-0.4-0.2-0.9-0.4-1.6-0.5l-0.7-0.1
			c-0.7-0.1-1.3-0.3-1.9-0.5c-0.6-0.2-1-0.6-1.4-1s-0.5-1-0.5-1.6c0-1,0.4-1.7,1.1-2.3c0.7-0.5,1.7-0.8,2.9-0.8
			c1.2,0,2.1,0.3,2.9,0.8c0.8,0.5,1.2,1.2,1.5,2.1l-2,0.6c-0.1-0.6-0.4-1.1-0.8-1.3c-0.4-0.3-0.9-0.4-1.5-0.4
			c-0.6,0-1.1,0.1-1.4,0.3s-0.5,0.5-0.5,0.9c0,0.4,0.2,0.7,0.5,0.9c0.3,0.2,0.8,0.3,1.3,0.4l0.7,0.1c0.7,0.1,1.4,0.3,2,0.5
			c0.6,0.2,1.1,0.5,1.5,1c0.4,0.4,0.5,1,0.5,1.7c0,1-0.4,1.8-1.2,2.4C168.6,424,167.6,424.3,166.3,424.3z"/>
		<path class="st0" d="M177.3,424.3c-1.3,0-2.4-0.3-3.3-0.9c-0.9-0.6-1.4-1.5-1.6-2.7l2-0.5c0.1,0.6,0.3,1,0.6,1.4s0.6,0.6,1,0.7
			c0.4,0.1,0.8,0.2,1.3,0.2c0.7,0,1.2-0.1,1.6-0.4c0.4-0.3,0.6-0.6,0.6-1s-0.2-0.7-0.5-0.9c-0.4-0.2-0.9-0.4-1.6-0.5l-0.7-0.1
			c-0.7-0.1-1.3-0.3-1.9-0.5c-0.6-0.2-1-0.6-1.4-1s-0.5-1-0.5-1.6c0-1,0.4-1.7,1.1-2.3c0.7-0.5,1.7-0.8,2.9-0.8
			c1.2,0,2.1,0.3,2.9,0.8c0.8,0.5,1.2,1.2,1.5,2.1l-2,0.6c-0.1-0.6-0.4-1.1-0.8-1.3c-0.4-0.3-0.9-0.4-1.5-0.4
			c-0.6,0-1.1,0.1-1.4,0.3s-0.5,0.5-0.5,0.9c0,0.4,0.2,0.7,0.5,0.9c0.3,0.2,0.8,0.3,1.3,0.4l0.7,0.1c0.7,0.1,1.4,0.3,2,0.5
			c0.6,0.2,1.1,0.5,1.5,1c0.4,0.4,0.5,1,0.5,1.7c0,1-0.4,1.8-1.2,2.4C179.7,424,178.6,424.3,177.3,424.3z"/>
		<path class="st0" d="M188.9,424.3c-1.1,0-2-0.2-2.8-0.7c-0.8-0.4-1.4-1.1-1.8-1.9s-0.7-1.7-0.7-2.8v-0.3c0-1.1,0.2-2,0.7-2.8
			s1-1.4,1.8-1.9s1.7-0.7,2.7-0.7c1,0,1.9,0.2,2.6,0.7c0.8,0.4,1.3,1.1,1.8,1.8c0.4,0.8,0.6,1.7,0.6,2.8v0.8h-8
			c0,0.9,0.3,1.6,0.9,2.2c0.6,0.5,1.3,0.8,2.2,0.8c0.8,0,1.4-0.2,1.8-0.5s0.7-0.8,1-1.3l1.8,0.9c-0.2,0.4-0.5,0.8-0.9,1.2
			c-0.4,0.4-0.9,0.8-1.5,1.1S189.8,424.3,188.9,424.3z M185.9,417.7h5.8c-0.1-0.8-0.3-1.4-0.8-1.8c-0.5-0.4-1.2-0.7-2-0.7
			s-1.5,0.2-2,0.7C186.3,416.3,186,416.9,185.9,417.7z"/>
		<path class="st0" d="M196.4,424v-10.4h2.1v1.2h0.3c0.2-0.4,0.4-0.8,0.8-1c0.4-0.2,0.8-0.3,1.4-0.3h1.2v2H201
			c-0.7,0-1.3,0.2-1.7,0.6c-0.4,0.4-0.7,1-0.7,1.8v6.1H196.4z"/>
		<path class="st0" d="M214.8,424.3c-1,0-2-0.2-2.8-0.6c-0.8-0.4-1.4-1-1.9-1.8c-0.5-0.8-0.7-1.7-0.7-2.8v-0.3c0-1.1,0.2-2,0.7-2.8
			c0.5-0.8,1.1-1.4,1.9-1.8c0.8-0.4,1.7-0.7,2.8-0.7c1,0,2,0.2,2.8,0.7c0.8,0.4,1.5,1,1.9,1.8c0.5,0.8,0.7,1.7,0.7,2.8v0.3
			c0,1.1-0.2,2-0.7,2.8c-0.5,0.8-1.1,1.4-1.9,1.8C216.8,424,215.9,424.3,214.8,424.3z M214.8,422.3c1,0,1.7-0.3,2.3-0.9
			c0.6-0.6,0.9-1.5,0.9-2.5v-0.2c0-1.1-0.3-1.9-0.9-2.5c-0.6-0.6-1.4-0.9-2.3-0.9c-0.9,0-1.7,0.3-2.3,0.9c-0.6,0.6-0.9,1.5-0.9,2.5
			v0.2c0,1.1,0.3,1.9,0.9,2.5C213.1,422,213.9,422.3,214.8,422.3z"/>
		<path class="st0" d="M227.2,424.3c-0.9,0-1.7-0.2-2.4-0.6c-0.7-0.4-1.3-1-1.8-1.8c-0.4-0.8-0.7-1.8-0.7-2.9v-0.3
			c0-1.1,0.2-2.1,0.7-2.9c0.4-0.8,1-1.4,1.7-1.8c0.7-0.4,1.5-0.6,2.4-0.6c0.7,0,1.2,0.1,1.7,0.3c0.5,0.2,0.8,0.4,1.1,0.6
			c0.3,0.3,0.5,0.5,0.7,0.8h0.3v-5.8h2.2V424h-2.1v-1.5h-0.3c-0.3,0.5-0.7,0.9-1.2,1.2C229,424.1,228.2,424.3,227.2,424.3z
			 M227.8,422.4c0.9,0,1.7-0.3,2.3-0.9c0.6-0.6,0.9-1.5,0.9-2.6v-0.2c0-1.1-0.3-2-0.9-2.6c-0.6-0.6-1.4-0.9-2.3-0.9
			c-0.9,0-1.7,0.3-2.3,0.9c-0.6,0.6-0.9,1.5-0.9,2.6v0.2c0,1.1,0.3,2,0.9,2.6C226.1,422.1,226.9,422.4,227.8,422.4z"/>
		<path class="st0" d="M241.2,424.3c-1.1,0-2-0.2-2.8-0.7c-0.8-0.4-1.4-1.1-1.8-1.9s-0.7-1.7-0.7-2.8v-0.3c0-1.1,0.2-2,0.7-2.8
			s1-1.4,1.8-1.9s1.7-0.7,2.7-0.7c1,0,1.9,0.2,2.6,0.7c0.8,0.4,1.3,1.1,1.8,1.8c0.4,0.8,0.6,1.7,0.6,2.8v0.8h-8
			c0,0.9,0.3,1.6,0.9,2.2c0.6,0.5,1.3,0.8,2.2,0.8c0.8,0,1.4-0.2,1.8-0.5s0.7-0.8,1-1.3l1.8,0.9c-0.2,0.4-0.5,0.8-0.9,1.2
			c-0.4,0.4-0.9,0.8-1.5,1.1S242.1,424.3,241.2,424.3z M238.1,417.7h5.8c-0.1-0.8-0.3-1.4-0.8-1.8c-0.5-0.4-1.2-0.7-2-0.7
			s-1.5,0.2-2,0.7C238.6,416.3,238.3,416.9,238.1,417.7z"/>
		<path class="st0" d="M248.7,424v-10.4h2.1v1.2h0.3c0.2-0.4,0.4-0.8,0.8-1c0.4-0.2,0.8-0.3,1.4-0.3h1.2v2h-1.3
			c-0.7,0-1.3,0.2-1.7,0.6c-0.4,0.4-0.7,1-0.7,1.8v6.1H248.7z"/>
		<path class="st0" d="M86.5,449.5c-1.2,0-2.2-0.2-3-0.6c-0.8-0.4-1.5-1-1.9-1.8c-0.5-0.8-0.7-1.8-0.7-2.9v-9.7h2.3v9.8
			c0,1,0.3,1.8,0.9,2.4s1.4,0.8,2.5,0.8c1.1,0,1.9-0.3,2.5-0.8c0.6-0.6,0.9-1.4,0.9-2.4v-9.8h2.3v9.7c0,1.1-0.2,2.1-0.7,2.9
			c-0.5,0.8-1.1,1.4-1.9,1.8C88.6,449.3,87.6,449.5,86.5,449.5z M84.2,433.3c-0.4,0-0.8-0.1-1.1-0.4c-0.3-0.3-0.4-0.6-0.4-1.1
			s0.1-0.8,0.4-1.1c0.3-0.3,0.6-0.4,1.1-0.4s0.8,0.1,1.1,0.4c0.3,0.3,0.4,0.6,0.4,1.1s-0.1,0.8-0.4,1.1
			C85,433.2,84.7,433.3,84.2,433.3z M88.7,433.3c-0.4,0-0.8-0.1-1.1-0.4s-0.4-0.6-0.4-1.1s0.1-0.8,0.4-1.1s0.6-0.4,1.1-0.4
			c0.4,0,0.8,0.1,1.1,0.4c0.3,0.3,0.4,0.6,0.4,1.1s-0.1,0.8-0.4,1.1C89.4,433.2,89.1,433.3,88.7,433.3z"/>
		<path class="st0" d="M101.1,449.5c-1,0-1.8-0.2-2.3-0.5c-0.5-0.4-0.9-0.8-1.2-1.2h-0.3v1.5h-2.1v-14.7h2.2v5.8h0.3
			c0.2-0.3,0.4-0.6,0.7-0.8c0.3-0.3,0.7-0.5,1.1-0.6c0.5-0.2,1-0.3,1.7-0.3c0.9,0,1.7,0.2,2.4,0.6c0.7,0.4,1.3,1,1.7,1.8
			c0.4,0.8,0.7,1.8,0.7,2.9v0.3c0,1.1-0.2,2.1-0.7,2.9c-0.4,0.8-1,1.4-1.7,1.8S102,449.5,101.1,449.5z M100.5,447.6
			c0.9,0,1.7-0.3,2.3-0.9c0.6-0.6,0.9-1.5,0.9-2.6v-0.2c0-1.1-0.3-2-0.9-2.6s-1.4-0.9-2.3-0.9c-0.9,0-1.7,0.3-2.3,0.9
			c-0.6,0.6-0.9,1.5-0.9,2.6v0.2c0,1.1,0.3,2,0.9,2.6C98.8,447.3,99.5,447.6,100.5,447.6z"/>
		<path class="st0" d="M113.3,449.5c-1.1,0-2-0.2-2.8-0.7c-0.8-0.4-1.4-1.1-1.8-1.9s-0.7-1.7-0.7-2.8v-0.3c0-1.1,0.2-2,0.7-2.8
			c0.4-0.8,1-1.4,1.8-1.9s1.7-0.7,2.7-0.7c1,0,1.9,0.2,2.6,0.7c0.8,0.4,1.3,1.1,1.8,1.8c0.4,0.8,0.6,1.7,0.6,2.8v0.8h-8
			c0,0.9,0.3,1.6,0.9,2.2c0.6,0.5,1.3,0.8,2.2,0.8c0.8,0,1.4-0.2,1.8-0.5s0.7-0.8,1-1.3l1.8,0.9c-0.2,0.4-0.5,0.8-0.9,1.2
			c-0.4,0.4-0.9,0.8-1.5,1.1S114.3,449.5,113.3,449.5z M110.3,443h5.8c-0.1-0.8-0.3-1.4-0.8-1.8s-1.2-0.7-2-0.7
			c-0.8,0-1.5,0.2-2,0.7S110.4,442.2,110.3,443z"/>
		<path class="st0" d="M120.9,449.2v-10.4h2.1v1.2h0.3c0.2-0.4,0.4-0.8,0.8-1c0.4-0.2,0.8-0.3,1.4-0.3h1.2v2h-1.3
			c-0.7,0-1.3,0.2-1.7,0.6c-0.5,0.4-0.7,1-0.7,1.8v6.1H120.9z"/>
		<path class="st0" d="M133.3,449.5c-1.3,0-2.4-0.3-3.3-0.9s-1.4-1.5-1.6-2.7l2-0.5c0.1,0.6,0.3,1,0.6,1.4s0.6,0.6,1,0.7
			c0.4,0.1,0.8,0.2,1.3,0.2c0.7,0,1.2-0.1,1.6-0.4c0.4-0.3,0.6-0.6,0.6-1s-0.2-0.7-0.5-0.9c-0.4-0.2-0.9-0.4-1.6-0.5l-0.7-0.1
			c-0.7-0.1-1.3-0.3-1.9-0.5c-0.6-0.2-1-0.6-1.4-1c-0.3-0.4-0.5-1-0.5-1.6c0-1,0.4-1.7,1.1-2.3c0.7-0.5,1.7-0.8,2.9-0.8
			c1.2,0,2.1,0.3,2.9,0.8c0.8,0.5,1.2,1.2,1.5,2.1l-2,0.6c-0.1-0.6-0.4-1.1-0.8-1.3c-0.4-0.3-0.9-0.4-1.5-0.4
			c-0.6,0-1.1,0.1-1.4,0.3s-0.5,0.5-0.5,0.9c0,0.4,0.2,0.7,0.5,0.9c0.3,0.2,0.8,0.3,1.3,0.4l0.7,0.1c0.7,0.1,1.4,0.3,2,0.5
			c0.6,0.2,1.1,0.5,1.5,1c0.4,0.4,0.5,1,0.5,1.7c0,1-0.4,1.8-1.2,2.4C135.6,449.2,134.6,449.5,133.3,449.5z"/>
		<path class="st0" d="M144.9,449.5c-1,0-1.9-0.2-2.7-0.6s-1.4-1-1.9-1.8c-0.5-0.8-0.7-1.8-0.7-2.9v-0.3c0-1.1,0.2-2.1,0.7-2.9
			c0.5-0.8,1.1-1.4,1.9-1.8c0.8-0.4,1.7-0.6,2.7-0.6s1.8,0.2,2.5,0.5c0.7,0.4,1.3,0.9,1.7,1.5c0.4,0.6,0.7,1.3,0.8,2l-2.1,0.4
			c-0.1-0.5-0.2-0.9-0.4-1.3c-0.2-0.4-0.5-0.7-0.9-0.9s-0.9-0.3-1.5-0.3c-0.6,0-1.1,0.1-1.6,0.4c-0.5,0.3-0.9,0.7-1.1,1.2
			c-0.3,0.5-0.4,1.1-0.4,1.9v0.2c0,0.7,0.1,1.4,0.4,1.9c0.3,0.5,0.7,0.9,1.1,1.2s1,0.4,1.6,0.4c0.9,0,1.6-0.2,2.1-0.7
			c0.5-0.5,0.8-1.1,0.9-1.8l2.1,0.5c-0.2,0.7-0.5,1.4-0.9,2c-0.4,0.6-1,1.1-1.7,1.4S145.9,449.5,144.9,449.5z"/>
		<path class="st0" d="M152.6,449.2v-14.7h2.2v5.8h0.3c0.1-0.3,0.3-0.5,0.6-0.8c0.3-0.3,0.6-0.5,1-0.6c0.4-0.2,1-0.2,1.6-0.2
			c0.8,0,1.5,0.2,2.1,0.5c0.6,0.4,1.1,0.8,1.4,1.5c0.4,0.6,0.5,1.4,0.5,2.3v6.2h-2.2v-6.1c0-0.9-0.2-1.6-0.7-2
			c-0.4-0.4-1.1-0.6-1.9-0.6c-0.9,0-1.6,0.3-2.2,0.9s-0.8,1.4-0.8,2.6v5.2H152.6z"/>
		<path class="st0" d="M166.7,449.2l-1.8-10.4h2.2l1.3,8.9h0.3l1.8-8.9h3.5l1.8,8.9h0.3l1.3-8.9h2.2l-1.8,10.4h-3.6l-1.8-8.9h-0.3
			l-1.8,8.9H166.7z"/>
		<path class="st0" d="M187,449.5c-1.1,0-2-0.2-2.8-0.7c-0.8-0.4-1.4-1.1-1.8-1.9s-0.7-1.7-0.7-2.8v-0.3c0-1.1,0.2-2,0.7-2.8
			s1-1.4,1.8-1.9s1.7-0.7,2.7-0.7c1,0,1.9,0.2,2.6,0.7c0.8,0.4,1.3,1.1,1.8,1.8c0.4,0.8,0.6,1.7,0.6,2.8v0.8h-8
			c0,0.9,0.3,1.6,0.9,2.2c0.6,0.5,1.3,0.8,2.2,0.8c0.8,0,1.4-0.2,1.8-0.5s0.7-0.8,1-1.3l1.8,0.9c-0.2,0.4-0.5,0.8-0.9,1.2
			c-0.4,0.4-0.9,0.8-1.5,1.1S187.9,449.5,187,449.5z M183.9,443h5.8c-0.1-0.8-0.3-1.4-0.8-1.8c-0.5-0.4-1.2-0.7-2-0.7
			s-1.5,0.2-2,0.7C184.4,441.6,184,442.2,183.9,443z"/>
		<path class="st0" d="M194.5,449.2v-10.4h2.1v1.2h0.3c0.2-0.4,0.5-0.7,0.9-1c0.4-0.3,1-0.4,1.8-0.4c0.8,0,1.4,0.2,1.9,0.5
			c0.5,0.3,0.8,0.7,1.1,1.2h0.3c0.2-0.5,0.6-0.9,1-1.2c0.5-0.3,1.1-0.5,1.9-0.5c0.7,0,1.3,0.1,1.8,0.4c0.5,0.3,0.9,0.7,1.2,1.2
			c0.3,0.5,0.5,1.2,0.5,2v6.9h-2.2v-6.7c0-0.6-0.2-1.1-0.5-1.5c-0.3-0.3-0.8-0.5-1.5-0.5c-0.7,0-1.2,0.2-1.6,0.7
			c-0.4,0.4-0.6,1.1-0.6,1.9v6.2h-2.2v-6.7c0-0.6-0.2-1.1-0.5-1.5c-0.3-0.3-0.8-0.5-1.5-0.5c-0.7,0-1.2,0.2-1.6,0.7
			c-0.4,0.4-0.6,1.1-0.6,1.9v6.2H194.5z"/>
		<path class="st0" d="M212.6,449.2v-10.4h2.1v1.2h0.3c0.2-0.4,0.5-0.7,0.9-1c0.4-0.3,1-0.4,1.8-0.4c0.8,0,1.4,0.2,1.9,0.5
			c0.5,0.3,0.8,0.7,1.1,1.2h0.3c0.2-0.5,0.6-0.9,1-1.2c0.5-0.3,1.1-0.5,1.9-0.5c0.7,0,1.3,0.1,1.8,0.4c0.5,0.3,0.9,0.7,1.2,1.2
			c0.3,0.5,0.5,1.2,0.5,2v6.9h-2.2v-6.7c0-0.6-0.2-1.1-0.5-1.5c-0.3-0.3-0.8-0.5-1.5-0.5c-0.7,0-1.2,0.2-1.6,0.7
			c-0.4,0.4-0.6,1.1-0.6,1.9v6.2h-2.2v-6.7c0-0.6-0.2-1.1-0.5-1.5c-0.3-0.3-0.8-0.5-1.5-0.5c-0.7,0-1.2,0.2-1.6,0.7
			c-0.4,0.4-0.6,1.1-0.6,1.9v6.2H212.6z"/>
		<path class="st0" d="M234.6,449.4c-0.8,0-1.5-0.2-2.1-0.5c-0.6-0.4-1.1-0.8-1.5-1.5c-0.4-0.6-0.5-1.4-0.5-2.3v-6.2h2.2v6.1
			c0,0.9,0.2,1.6,0.7,2c0.4,0.4,1.1,0.6,1.9,0.6c0.9,0,1.6-0.3,2.1-0.9c0.5-0.6,0.8-1.5,0.8-2.6v-5.2h2.2v10.4h-2.1v-1.6h-0.3
			c-0.2,0.4-0.5,0.8-1.1,1.2C236.3,449.2,235.6,449.4,234.6,449.4z"/>
		<path class="st0" d="M243.5,449.2v-10.4h2.1v1.6h0.3c0.2-0.4,0.5-0.8,1.1-1.2c0.5-0.4,1.3-0.5,2.3-0.5c0.8,0,1.5,0.2,2.1,0.5
			c0.6,0.4,1.1,0.8,1.4,1.5c0.4,0.6,0.5,1.4,0.5,2.3v6.2h-2.2v-6.1c0-0.9-0.2-1.6-0.7-2c-0.4-0.4-1.1-0.6-1.9-0.6
			c-0.9,0-1.6,0.3-2.2,0.9s-0.8,1.4-0.8,2.6v5.2H243.5z"/>
		<path class="st0" d="M256,444.1v-0.3c0-1.1,0.2-2,0.7-2.8s1-1.4,1.8-1.8c0.7-0.4,1.5-0.6,2.4-0.6c1,0,1.8,0.2,2.3,0.6
			s0.9,0.8,1.2,1.2h0.3v-1.5h2.1v12.5c0,0.6-0.2,1.1-0.6,1.5c-0.4,0.4-0.9,0.6-1.5,0.6h-7v-1.9h6.3c0.4,0,0.6-0.2,0.6-0.6v-3.3h-0.3
			c-0.2,0.3-0.4,0.5-0.7,0.8c-0.3,0.3-0.6,0.5-1.1,0.7c-0.5,0.2-1,0.3-1.7,0.3c-0.9,0-1.7-0.2-2.4-0.6c-0.7-0.4-1.3-1-1.8-1.8
			S256,445.2,256,444.1z M261.4,447.4c0.9,0,1.7-0.3,2.3-0.9c0.6-0.6,0.9-1.4,0.9-2.5v-0.2c0-1.1-0.3-1.9-0.9-2.5
			c-0.6-0.6-1.4-0.9-2.3-0.9c-0.9,0-1.7,0.3-2.3,0.9c-0.6,0.6-0.9,1.4-0.9,2.5v0.2c0,1.1,0.3,1.9,0.9,2.5
			C259.7,447.1,260.5,447.4,261.4,447.4z"/>
	</g>
</g>
<circle class="st0" cx="31.5" cy="134.2" r="28.9"/>
<g>
	<g>
		<g>
			<path class="st4" d="M38.8,134.6L38.8,134.6L31.5,121l-7.2,13.6h0c-0.8,1.3-1.2,2.8-1.2,4.4c0,4.7,3.8,8.5,8.5,8.5
				s8.5-3.8,8.5-8.5C40,137.3,39.5,135.8,38.8,134.6z"/>
		</g>
	</g>
</g>
</svg>
