<?xml version="1.0" encoding="utf-8"?>
<!-- Generator: Adobe Illustrator 27.9.0, SVG Export Plug-In . SVG Version: 6.00 Build 0)  -->
<svg version="1.1" id="Ebene_1" xmlns="http://www.w3.org/2000/svg" xmlns:xlink="http://www.w3.org/1999/xlink" x="0px" y="0px"
	 viewBox="0 0 300 300" style="enable-background:new 0 0 300 300;" xml:space="preserve">
<style type="text/css">
	.st0{fill:#207BB5;}
</style>
<g>
	<path class="st0" d="M159.1,157.2L159.1,157.2l-48.9-91.6l-48.9,91.6h0c-5.2,8.6-8.2,18.7-8.2,29.4c0,31.5,25.5,57.1,57.1,57.1
		s57.1-25.5,57.1-57.1C167.3,175.8,164.3,165.8,159.1,157.2z"/>
	<path class="st0" d="M241.6,114.8L241.6,114.8l-31.2-58.5l-31.2,58.5h0c-3.3,5.5-5.2,11.9-5.2,18.8c0,20.1,16.3,36.4,36.4,36.4
		s36.4-16.3,36.4-36.4C246.9,126.7,245,120.3,241.6,114.8z"/>
</g>
</svg>
